<?xml version="1.0" encoding="utf-8"?>
<!-- Generator: Adobe Illustrator 19.0.0, SVG Export Plug-In . SVG Version: 6.00 Build 0)  -->
<svg version="1.1" id="Layer_1" xmlns="http://www.w3.org/2000/svg" xmlns:xlink="http://www.w3.org/1999/xlink" x="0px" y="0px"
	 viewBox="0 -5 841 611" style="enable-background:new 0 -5 841 611;" xml:space="preserve">
<style type="text/css">
	.st0{fill:none;stroke:#000000;stroke-width:2;stroke-miterlimit:10;}
	.st1{fill:none;stroke:#000000;stroke-width:0.5;stroke-linecap:square;stroke-miterlimit:10;}
	.st2{font-family:'CourierNewPSMT';}
	.st3{font-size:18px;}
	.st4{font-family:'SourceCodePro-Regular';}
	.st5{font-size:12px;}
	.st6{opacity:0.2;fill:#E46C0A;enable-background:new    ;}
	.st7{font-family:'ArialMT';}
	.st8{font-size:30px;}
	.st9{opacity:0.2;fill:#31859C;enable-background:new    ;}
	.st10{opacity:0.2;fill:#604A7B;enable-background:new    ;}
	.st11{opacity:0.2;fill:#3D3D5C;enable-background:new    ;}
</style>
<g>
	<g>
		<path class="st0" d="M608.9,583.3h-54.2v-11.5"/>
		<path class="st0" d="M663.1,560.2H554.7v11.5"/>
		<path class="st0" d="M663.1,498.6h-54.2v7.7"/>
		<path class="st0" d="M554.7,279.3h-54.2v-17.3"/>
		<path class="st0" d="M663.1,129.2H554.7v11.5"/>
		<path class="st0" d="M663.1,21.4h-54.2v7.7"/>
		<path class="st0" d="M663.1,313.9h-54.2v7.7"/>
		<path class="st0" d="M446.2,522.7H392v-44.7"/>
		<path class="st0" d="M608.9,321.6H500.5v17.3"/>
		<path class="st0" d="M663.1,375.5h-54.2v-7.7"/>
		<path class="st0" d="M608.9,367.8h-54.2v-11.5"/>
		<path class="st0" d="M663.1,514h-54.2v-7.7"/>
		<path class="st0" d="M554.7,356.2h-54.2v-17.3"/>
		<path class="st0" d="M554.7,571.8h-54.2v-17.3"/>
		<path class="st0" d="M663.1,190.7h-54.2V183"/>
		<path class="st0" d="M663.1,98.4h-54.2v-7.7"/>
		<path class="st0" d="M608.9,290.8h-54.2v-11.5"/>
		<path class="st0" d="M608.9,213.8h-54.2v-15.4"/>
		<path class="st0" d="M663.1,421.7H554.7v11.5"/>
		<path class="st0" d="M663.1,437.1h-54.2v7.7"/>
		<path class="st0" d="M663.1,406.3h-54.2v-7.7"/>
		<path class="st0" d="M392,185.4H229.4V287"/>
		<path class="st0" d="M554.7,79.1h-54.2V65.7"/>
		<path class="st0" d="M608.9,152.3h-54.2v-11.5"/>
		<path class="st0" d="M663.1,52.2H500.5v13.5"/>
		<path class="st0" d="M608.9,90.7h-54.2V79.1"/>
		<path class="st0" d="M663.1,483.2h-54.2v-7.7"/>
		<path class="st0" d="M608.9,398.6H337.8v39.7"/>
		<path class="st0" d="M663.1,344.7H554.7v11.5"/>
		<path class="st0" d="M608.9,244.6H500.5v17.3"/>
		<path class="st0" d="M663.1,175.3h-54.2v7.7"/>
		<path class="st0" d="M663.1,159.9h-54.2v-7.7"/>
		<path class="st0" d="M392,477.9h-54.2v-39.7"/>
		<path class="st0" d="M500.5,261.9h-54.2v-31.8"/>
		<path class="st0" d="M554.7,490.9H446.2v31.8"/>
		<path class="st0" d="M608.9,506.3h-54.2v-15.4"/>
		<path class="st0" d="M663.1,236.9h-54.2v7.7"/>
		<path class="st0" d="M663.1,83h-54.2v7.7"/>
		<path class="st0" d="M663.1,144.6h-54.2v7.7"/>
		<path class="st0" d="M337.8,438.3h-54.2v-49.7"/>
		<path class="st0" d="M663.1,221.5h-54.2v-7.7"/>
		<path class="st0" d="M663.1,6H12.5v37.5"/>
		<path class="st0" d="M663.1,360.1h-54.2v7.7"/>
		<path class="st0" d="M663.1,206.1h-54.2v7.7"/>
		<path class="st0" d="M663.1,390.9h-54.2v7.7"/>
		<path class="st0" d="M554.7,140.7H392v44.7"/>
		<path class="st0" d="M663.1,283.1h-54.2v7.7"/>
		<path class="st0" d="M6,43.5h6.5"/>
		<path class="st0" d="M608.9,537.1H500.5v17.3"/>
		<path class="st0" d="M175.2,200.4h-54.2V133"/>
		<path class="st0" d="M554.7,433.2H392v44.7"/>
		<path class="st0" d="M663.1,267.7H554.7v11.5"/>
		<path class="st0" d="M554.7,198.4H446.2v31.8"/>
		<path class="st0" d="M500.5,65.7H120.9V133"/>
		<path class="st0" d="M663.1,544.8h-54.2v-7.7"/>
		<path class="st0" d="M663.1,252.3h-54.2v-7.7"/>
		<path class="st0" d="M120.9,133H66.7v-52"/>
		<path class="st0" d="M283.6,388.6h-54.2V287"/>
		<path class="st0" d="M66.7,81.1H12.5V43.5"/>
		<path class="st0" d="M500.5,554.4h-54.2v-31.8"/>
		<path class="st0" d="M663.1,452.4h-54.2v-7.7"/>
		<path class="st0" d="M663.1,591h-54.2v-7.7"/>
		<path class="st0" d="M446.2,230.2H392v-44.7"/>
		<path class="st0" d="M663.1,67.6H554.7v11.5"/>
		<path class="st0" d="M663.1,298.5h-54.2v-7.7"/>
		<path class="st0" d="M608.9,29.1H66.7v52"/>
		<path class="st0" d="M663.1,529.4h-54.2v7.7"/>
		<path class="st0" d="M663.1,329.3h-54.2v-7.7"/>
		<path class="st0" d="M663.1,113.8h-488v86.6"/>
		<path class="st0" d="M663.1,575.6h-54.2v7.7"/>
		<path class="st0" d="M608.9,444.8h-54.2v-11.5"/>
		<path class="st0" d="M608.9,183h-54.2v15.4"/>
		<path class="st0" d="M229.4,287h-54.2v-86.6"/>
		<path class="st0" d="M663.1,467.8h-54.2v7.7"/>
		<path class="st0" d="M500.5,338.9H283.6v49.7"/>
		<path class="st0" d="M608.9,475.5h-54.2v15.4"/>
		<path class="st0" d="M663.1,36.8h-54.2v-7.7"/>
		<path d="M666.1,560.2c0,1.7-1.3,3-3,3s-3-1.3-3-3c0-1.7,1.3-3,3-3S666.1,558.6,666.1,560.2z"/>
		<path class="st1" d="M666.1,560.2c0,1.7-1.3,3-3,3s-3-1.3-3-3c0-1.7,1.3-3,3-3S666.1,558.6,666.1,560.2z"/>
		<path d="M611.9,583.3c0,1.7-1.3,3-3,3c-1.7,0-3-1.3-3-3c0-1.7,1.3-3,3-3C610.6,580.3,611.9,581.6,611.9,583.3z"/>
		<path class="st1" d="M611.9,583.3c0,1.7-1.3,3-3,3c-1.7,0-3-1.3-3-3c0-1.7,1.3-3,3-3C610.6,580.3,611.9,581.6,611.9,583.3z"/>
		<path d="M666.1,498.6c0,1.7-1.3,3-3,3s-3-1.3-3-3c0-1.7,1.3-3,3-3S666.1,497,666.1,498.6z"/>
		<path class="st1" d="M666.1,498.6c0,1.7-1.3,3-3,3s-3-1.3-3-3c0-1.7,1.3-3,3-3S666.1,497,666.1,498.6z"/>
		<path d="M557.7,279.3c0,1.7-1.3,3-3,3c-1.7,0-3-1.3-3-3c0-1.7,1.3-3,3-3C556.3,276.3,557.7,277.6,557.7,279.3z"/>
		<path class="st1" d="M557.7,279.3c0,1.7-1.3,3-3,3c-1.7,0-3-1.3-3-3c0-1.7,1.3-3,3-3C556.3,276.3,557.7,277.6,557.7,279.3z"/>
		<path d="M666.1,129.2c0,1.7-1.3,3-3,3s-3-1.3-3-3c0-1.7,1.3-3,3-3S666.1,127.5,666.1,129.2z"/>
		<path class="st1" d="M666.1,129.2c0,1.7-1.3,3-3,3s-3-1.3-3-3c0-1.7,1.3-3,3-3S666.1,127.5,666.1,129.2z"/>
		<path d="M666.1,21.4c0,1.7-1.3,3-3,3s-3-1.3-3-3c0-1.7,1.3-3,3-3S666.1,19.7,666.1,21.4z"/>
		<path class="st1" d="M666.1,21.4c0,1.7-1.3,3-3,3s-3-1.3-3-3c0-1.7,1.3-3,3-3S666.1,19.7,666.1,21.4z"/>
		<path d="M666.1,313.9c0,1.7-1.3,3-3,3s-3-1.3-3-3c0-1.7,1.3-3,3-3S666.1,312.2,666.1,313.9z"/>
		<path class="st1" d="M666.1,313.9c0,1.7-1.3,3-3,3s-3-1.3-3-3c0-1.7,1.3-3,3-3S666.1,312.2,666.1,313.9z"/>
		<path d="M449.2,522.7c0,1.7-1.3,3-3,3c-1.7,0-3-1.3-3-3c0-1.7,1.3-3,3-3C447.9,519.7,449.2,521,449.2,522.7z"/>
		<path class="st1" d="M449.2,522.7c0,1.7-1.3,3-3,3c-1.7,0-3-1.3-3-3c0-1.7,1.3-3,3-3C447.9,519.7,449.2,521,449.2,522.7z"/>
		<path d="M666.1,375.5c0,1.7-1.3,3-3,3s-3-1.3-3-3c0-1.7,1.3-3,3-3S666.1,373.8,666.1,375.5z"/>
		<path class="st1" d="M666.1,375.5c0,1.7-1.3,3-3,3s-3-1.3-3-3c0-1.7,1.3-3,3-3S666.1,373.8,666.1,375.5z"/>
		<path d="M611.9,321.6c0,1.7-1.3,3-3,3c-1.7,0-3-1.3-3-3s1.3-3,3-3C610.6,318.6,611.9,319.9,611.9,321.6z"/>
		<path class="st1" d="M611.9,321.6c0,1.7-1.3,3-3,3c-1.7,0-3-1.3-3-3s1.3-3,3-3C610.6,318.6,611.9,319.9,611.9,321.6z"/>
		<path d="M611.9,367.8c0,1.7-1.3,3-3,3c-1.7,0-3-1.3-3-3c0-1.7,1.3-3,3-3C610.6,364.8,611.9,366.1,611.9,367.8z"/>
		<path class="st1" d="M611.9,367.8c0,1.7-1.3,3-3,3c-1.7,0-3-1.3-3-3c0-1.7,1.3-3,3-3C610.6,364.8,611.9,366.1,611.9,367.8z"/>
		<path d="M666.1,514c0,1.7-1.3,3-3,3s-3-1.3-3-3s1.3-3,3-3S666.1,512.4,666.1,514z"/>
		<path class="st1" d="M666.1,514c0,1.7-1.3,3-3,3s-3-1.3-3-3s1.3-3,3-3S666.1,512.4,666.1,514z"/>
		<path d="M557.7,356.2c0,1.7-1.3,3-3,3c-1.7,0-3-1.3-3-3c0-1.7,1.3-3,3-3C556.3,353.2,557.7,354.6,557.7,356.2z"/>
		<path class="st1" d="M557.7,356.2c0,1.7-1.3,3-3,3c-1.7,0-3-1.3-3-3c0-1.7,1.3-3,3-3C556.3,353.2,557.7,354.6,557.7,356.2z"/>
		<path d="M666.1,190.7c0,1.7-1.3,3-3,3s-3-1.3-3-3c0-1.7,1.3-3,3-3S666.1,189.1,666.1,190.7z"/>
		<path class="st1" d="M666.1,190.7c0,1.7-1.3,3-3,3s-3-1.3-3-3c0-1.7,1.3-3,3-3S666.1,189.1,666.1,190.7z"/>
		<path d="M557.7,571.8c0,1.7-1.3,3-3,3c-1.7,0-3-1.3-3-3s1.3-3,3-3C556.3,568.8,557.7,570.1,557.7,571.8z"/>
		<path class="st1" d="M557.7,571.8c0,1.7-1.3,3-3,3c-1.7,0-3-1.3-3-3s1.3-3,3-3C556.3,568.8,557.7,570.1,557.7,571.8z"/>
		<path d="M666.1,98.4c0,1.7-1.3,3-3,3s-3-1.3-3-3c0-1.7,1.3-3,3-3S666.1,96.7,666.1,98.4z"/>
		<path class="st1" d="M666.1,98.4c0,1.7-1.3,3-3,3s-3-1.3-3-3c0-1.7,1.3-3,3-3S666.1,96.7,666.1,98.4z"/>
		<path d="M611.9,290.8c0,1.7-1.3,3-3,3c-1.7,0-3-1.3-3-3c0-1.7,1.3-3,3-3C610.6,287.8,611.9,289.1,611.9,290.8z"/>
		<path class="st1" d="M611.9,290.8c0,1.7-1.3,3-3,3c-1.7,0-3-1.3-3-3c0-1.7,1.3-3,3-3C610.6,287.8,611.9,289.1,611.9,290.8z"/>
		<path d="M611.9,213.8c0,1.7-1.3,3-3,3c-1.7,0-3-1.3-3-3c0-1.7,1.3-3,3-3C610.6,210.8,611.9,212.2,611.9,213.8z"/>
		<path class="st1" d="M611.9,213.8c0,1.7-1.3,3-3,3c-1.7,0-3-1.3-3-3c0-1.7,1.3-3,3-3C610.6,210.8,611.9,212.2,611.9,213.8z"/>
		<path d="M666.1,421.7c0,1.7-1.3,3-3,3s-3-1.3-3-3s1.3-3,3-3S666.1,420,666.1,421.7z"/>
		<path class="st1" d="M666.1,421.7c0,1.7-1.3,3-3,3s-3-1.3-3-3s1.3-3,3-3S666.1,420,666.1,421.7z"/>
		<path d="M666.1,437.1c0,1.7-1.3,3-3,3s-3-1.3-3-3c0-1.7,1.3-3,3-3S666.1,435.4,666.1,437.1z"/>
		<path class="st1" d="M666.1,437.1c0,1.7-1.3,3-3,3s-3-1.3-3-3c0-1.7,1.3-3,3-3S666.1,435.4,666.1,437.1z"/>
		<path d="M666.1,406.3c0,1.7-1.3,3-3,3s-3-1.3-3-3c0-1.7,1.3-3,3-3S666.1,404.6,666.1,406.3z"/>
		<path class="st1" d="M666.1,406.3c0,1.7-1.3,3-3,3s-3-1.3-3-3c0-1.7,1.3-3,3-3S666.1,404.6,666.1,406.3z"/>
		<path d="M395,185.4c0,1.7-1.3,3-3,3s-3-1.3-3-3s1.3-3,3-3S395,183.8,395,185.4z"/>
		<path class="st1" d="M395,185.4c0,1.7-1.3,3-3,3s-3-1.3-3-3s1.3-3,3-3S395,183.8,395,185.4z"/>
		<path d="M557.7,79.1c0,1.7-1.3,3-3,3c-1.7,0-3-1.3-3-3s1.3-3,3-3C556.3,76.1,557.7,77.5,557.7,79.1z"/>
		<path class="st1" d="M557.7,79.1c0,1.7-1.3,3-3,3c-1.7,0-3-1.3-3-3s1.3-3,3-3C556.3,76.1,557.7,77.5,557.7,79.1z"/>
		<path d="M666.1,52.2c0,1.7-1.3,3-3,3s-3-1.3-3-3c0-1.7,1.3-3,3-3S666.1,50.5,666.1,52.2z"/>
		<path class="st1" d="M666.1,52.2c0,1.7-1.3,3-3,3s-3-1.3-3-3c0-1.7,1.3-3,3-3S666.1,50.5,666.1,52.2z"/>
		<path d="M611.9,152.3c0,1.7-1.3,3-3,3c-1.7,0-3-1.3-3-3s1.3-3,3-3C610.6,149.3,611.9,150.6,611.9,152.3z"/>
		<path class="st1" d="M611.9,152.3c0,1.7-1.3,3-3,3c-1.7,0-3-1.3-3-3s1.3-3,3-3C610.6,149.3,611.9,150.6,611.9,152.3z"/>
		<path d="M611.9,90.7c0,1.7-1.3,3-3,3c-1.7,0-3-1.3-3-3c0-1.7,1.3-3,3-3C610.6,87.7,611.9,89,611.9,90.7z"/>
		<path class="st1" d="M611.9,90.7c0,1.7-1.3,3-3,3c-1.7,0-3-1.3-3-3c0-1.7,1.3-3,3-3C610.6,87.7,611.9,89,611.9,90.7z"/>
		<path d="M666.1,483.2c0,1.7-1.3,3-3,3s-3-1.3-3-3c0-1.7,1.3-3,3-3S666.1,481.6,666.1,483.2z"/>
		<path class="st1" d="M666.1,483.2c0,1.7-1.3,3-3,3s-3-1.3-3-3c0-1.7,1.3-3,3-3S666.1,481.6,666.1,483.2z"/>
		<path d="M666.1,344.7c0,1.7-1.3,3-3,3s-3-1.3-3-3s1.3-3,3-3S666.1,343,666.1,344.7z"/>
		<path class="st1" d="M666.1,344.7c0,1.7-1.3,3-3,3s-3-1.3-3-3s1.3-3,3-3S666.1,343,666.1,344.7z"/>
		<path d="M611.9,398.6c0,1.7-1.3,3-3,3c-1.7,0-3-1.3-3-3s1.3-3,3-3C610.6,395.6,611.9,396.9,611.9,398.6z"/>
		<path class="st1" d="M611.9,398.6c0,1.7-1.3,3-3,3c-1.7,0-3-1.3-3-3s1.3-3,3-3C610.6,395.6,611.9,396.9,611.9,398.6z"/>
		<path d="M611.9,244.6c0,1.7-1.3,3-3,3c-1.7,0-3-1.3-3-3c0-1.7,1.3-3,3-3C610.6,241.6,611.9,243,611.9,244.6z"/>
		<path class="st1" d="M611.9,244.6c0,1.7-1.3,3-3,3c-1.7,0-3-1.3-3-3c0-1.7,1.3-3,3-3C610.6,241.6,611.9,243,611.9,244.6z"/>
		<path d="M666.1,175.3c0,1.7-1.3,3-3,3s-3-1.3-3-3c0-1.7,1.3-3,3-3S666.1,173.7,666.1,175.3z"/>
		<path class="st1" d="M666.1,175.3c0,1.7-1.3,3-3,3s-3-1.3-3-3c0-1.7,1.3-3,3-3S666.1,173.7,666.1,175.3z"/>
		<path d="M666.1,159.9c0,1.7-1.3,3-3,3s-3-1.3-3-3c0-1.7,1.3-3,3-3S666.1,158.3,666.1,159.9z"/>
		<path class="st1" d="M666.1,159.9c0,1.7-1.3,3-3,3s-3-1.3-3-3c0-1.7,1.3-3,3-3S666.1,158.3,666.1,159.9z"/>
		<path d="M395,477.9c0,1.7-1.3,3-3,3s-3-1.3-3-3c0-1.7,1.3-3,3-3S395,476.3,395,477.9z"/>
		<path class="st1" d="M395,477.9c0,1.7-1.3,3-3,3s-3-1.3-3-3c0-1.7,1.3-3,3-3S395,476.3,395,477.9z"/>
		<path d="M503.5,261.9c0,1.7-1.3,3-3,3c-1.7,0-3-1.3-3-3s1.3-3,3-3C502.1,258.9,503.5,260.3,503.5,261.9z"/>
		<path class="st1" d="M503.5,261.9c0,1.7-1.3,3-3,3c-1.7,0-3-1.3-3-3s1.3-3,3-3C502.1,258.9,503.5,260.3,503.5,261.9z"/>
		<path d="M557.7,490.9c0,1.7-1.3,3-3,3c-1.7,0-3-1.3-3-3s1.3-3,3-3C556.3,487.9,557.7,489.3,557.7,490.9z"/>
		<path class="st1" d="M557.7,490.9c0,1.7-1.3,3-3,3c-1.7,0-3-1.3-3-3s1.3-3,3-3C556.3,487.9,557.7,489.3,557.7,490.9z"/>
		<path d="M611.9,506.3c0,1.7-1.3,3-3,3c-1.7,0-3-1.3-3-3c0-1.7,1.3-3,3-3C610.6,503.3,611.9,504.7,611.9,506.3z"/>
		<path class="st1" d="M611.9,506.3c0,1.7-1.3,3-3,3c-1.7,0-3-1.3-3-3c0-1.7,1.3-3,3-3C610.6,503.3,611.9,504.7,611.9,506.3z"/>
		<path d="M666.1,236.9c0,1.7-1.3,3-3,3s-3-1.3-3-3c0-1.7,1.3-3,3-3S666.1,235.3,666.1,236.9z"/>
		<path class="st1" d="M666.1,236.9c0,1.7-1.3,3-3,3s-3-1.3-3-3c0-1.7,1.3-3,3-3S666.1,235.3,666.1,236.9z"/>
		<path d="M666.1,83c0,1.7-1.3,3-3,3s-3-1.3-3-3c0-1.7,1.3-3,3-3S666.1,81.3,666.1,83z"/>
		<path class="st1" d="M666.1,83c0,1.7-1.3,3-3,3s-3-1.3-3-3c0-1.7,1.3-3,3-3S666.1,81.3,666.1,83z"/>
		<path d="M666.1,144.6c0,1.7-1.3,3-3,3s-3-1.3-3-3c0-1.7,1.3-3,3-3S666.1,142.9,666.1,144.6z"/>
		<path class="st1" d="M666.1,144.6c0,1.7-1.3,3-3,3s-3-1.3-3-3c0-1.7,1.3-3,3-3S666.1,142.9,666.1,144.6z"/>
		<path d="M340.8,438.3c0,1.7-1.3,3-3,3c-1.7,0-3-1.3-3-3c0-1.7,1.3-3,3-3C339.5,435.3,340.8,436.6,340.8,438.3z"/>
		<path class="st1" d="M340.8,438.3c0,1.7-1.3,3-3,3c-1.7,0-3-1.3-3-3c0-1.7,1.3-3,3-3C339.5,435.3,340.8,436.6,340.8,438.3z"/>
		<path d="M666.1,221.5c0,1.7-1.3,3-3,3s-3-1.3-3-3c0-1.7,1.3-3,3-3S666.1,219.9,666.1,221.5z"/>
		<path class="st1" d="M666.1,221.5c0,1.7-1.3,3-3,3s-3-1.3-3-3c0-1.7,1.3-3,3-3S666.1,219.9,666.1,221.5z"/>
		<path d="M666.1,206.1c0,1.7-1.3,3-3,3s-3-1.3-3-3c0-1.7,1.3-3,3-3S666.1,204.5,666.1,206.1z"/>
		<path class="st1" d="M666.1,206.1c0,1.7-1.3,3-3,3s-3-1.3-3-3c0-1.7,1.3-3,3-3S666.1,204.5,666.1,206.1z"/>
		<path d="M666.1,360.1c0,1.7-1.3,3-3,3s-3-1.3-3-3c0-1.7,1.3-3,3-3S666.1,358.4,666.1,360.1z"/>
		<path class="st1" d="M666.1,360.1c0,1.7-1.3,3-3,3s-3-1.3-3-3c0-1.7,1.3-3,3-3S666.1,358.4,666.1,360.1z"/>
		<path d="M666.1,6c0,1.7-1.3,3-3,3s-3-1.3-3-3s1.3-3,3-3S666.1,4.3,666.1,6z"/>
		<path class="st1" d="M666.1,6c0,1.7-1.3,3-3,3s-3-1.3-3-3s1.3-3,3-3S666.1,4.3,666.1,6z"/>
		<path d="M666.1,283.1c0,1.7-1.3,3-3,3s-3-1.3-3-3c0-1.7,1.3-3,3-3S666.1,281.4,666.1,283.1z"/>
		<path class="st1" d="M666.1,283.1c0,1.7-1.3,3-3,3s-3-1.3-3-3c0-1.7,1.3-3,3-3S666.1,281.4,666.1,283.1z"/>
		<path d="M666.1,390.9c0,1.7-1.3,3-3,3s-3-1.3-3-3c0-1.7,1.3-3,3-3S666.1,389.2,666.1,390.9z"/>
		<path class="st1" d="M666.1,390.9c0,1.7-1.3,3-3,3s-3-1.3-3-3c0-1.7,1.3-3,3-3S666.1,389.2,666.1,390.9z"/>
		<path d="M557.7,140.7c0,1.7-1.3,3-3,3c-1.7,0-3-1.3-3-3c0-1.7,1.3-3,3-3C556.3,137.7,557.7,139,557.7,140.7z"/>
		<path class="st1" d="M557.7,140.7c0,1.7-1.3,3-3,3c-1.7,0-3-1.3-3-3c0-1.7,1.3-3,3-3C556.3,137.7,557.7,139,557.7,140.7z"/>
		<path d="M15.5,43.5c0,1.7-1.3,3-3,3c-1.7,0-3-1.3-3-3c0-1.7,1.3-3,3-3C14.2,40.5,15.5,41.9,15.5,43.5z"/>
		<path class="st1" d="M15.5,43.5c0,1.7-1.3,3-3,3c-1.7,0-3-1.3-3-3c0-1.7,1.3-3,3-3C14.2,40.5,15.5,41.9,15.5,43.5z"/>
		<path d="M611.9,537.1c0,1.7-1.3,3-3,3c-1.7,0-3-1.3-3-3s1.3-3,3-3C610.6,534.1,611.9,535.5,611.9,537.1z"/>
		<path class="st1" d="M611.9,537.1c0,1.7-1.3,3-3,3c-1.7,0-3-1.3-3-3s1.3-3,3-3C610.6,534.1,611.9,535.5,611.9,537.1z"/>
		<path d="M178.2,200.4c0,1.7-1.3,3-3,3c-1.7,0-3-1.3-3-3c0-1.7,1.3-3,3-3C176.8,197.4,178.2,198.7,178.2,200.4z"/>
		<path class="st1" d="M178.2,200.4c0,1.7-1.3,3-3,3c-1.7,0-3-1.3-3-3c0-1.7,1.3-3,3-3C176.8,197.4,178.2,198.7,178.2,200.4z"/>
		<path d="M557.7,433.2c0,1.7-1.3,3-3,3c-1.7,0-3-1.3-3-3c0-1.7,1.3-3,3-3C556.3,430.2,557.7,431.5,557.7,433.2z"/>
		<path class="st1" d="M557.7,433.2c0,1.7-1.3,3-3,3c-1.7,0-3-1.3-3-3c0-1.7,1.3-3,3-3C556.3,430.2,557.7,431.5,557.7,433.2z"/>
		<path d="M666.1,267.7c0,1.7-1.3,3-3,3s-3-1.3-3-3c0-1.7,1.3-3,3-3S666.1,266.1,666.1,267.7z"/>
		<path class="st1" d="M666.1,267.7c0,1.7-1.3,3-3,3s-3-1.3-3-3c0-1.7,1.3-3,3-3S666.1,266.1,666.1,267.7z"/>
		<path d="M557.7,198.4c0,1.7-1.3,3-3,3c-1.7,0-3-1.3-3-3c0-1.7,1.3-3,3-3C556.3,195.4,557.7,196.8,557.7,198.4z"/>
		<path class="st1" d="M557.7,198.4c0,1.7-1.3,3-3,3c-1.7,0-3-1.3-3-3c0-1.7,1.3-3,3-3C556.3,195.4,557.7,196.8,557.7,198.4z"/>
		<path d="M503.5,65.7c0,1.7-1.3,3-3,3c-1.7,0-3-1.3-3-3c0-1.7,1.3-3,3-3C502.1,62.7,503.5,64,503.5,65.7z"/>
		<path class="st1" d="M503.5,65.7c0,1.7-1.3,3-3,3c-1.7,0-3-1.3-3-3c0-1.7,1.3-3,3-3C502.1,62.7,503.5,64,503.5,65.7z"/>
		<path d="M666.1,544.8c0,1.7-1.3,3-3,3s-3-1.3-3-3s1.3-3,3-3S666.1,543.2,666.1,544.8z"/>
		<path class="st1" d="M666.1,544.8c0,1.7-1.3,3-3,3s-3-1.3-3-3s1.3-3,3-3S666.1,543.2,666.1,544.8z"/>
		<path d="M666.1,252.3c0,1.7-1.3,3-3,3s-3-1.3-3-3c0-1.7,1.3-3,3-3S666.1,250.7,666.1,252.3z"/>
		<path class="st1" d="M666.1,252.3c0,1.7-1.3,3-3,3s-3-1.3-3-3c0-1.7,1.3-3,3-3S666.1,250.7,666.1,252.3z"/>
		<path d="M123.9,133c0,1.7-1.3,3-3,3c-1.7,0-3-1.3-3-3c0-1.7,1.3-3,3-3C122.6,130,123.9,131.4,123.9,133z"/>
		<path class="st1" d="M123.9,133c0,1.7-1.3,3-3,3c-1.7,0-3-1.3-3-3c0-1.7,1.3-3,3-3C122.6,130,123.9,131.4,123.9,133z"/>
		<path d="M286.6,388.6c0,1.7-1.3,3-3,3c-1.7,0-3-1.3-3-3c0-1.7,1.3-3,3-3C285.3,385.6,286.6,386.9,286.6,388.6z"/>
		<path class="st1" d="M286.6,388.6c0,1.7-1.3,3-3,3c-1.7,0-3-1.3-3-3c0-1.7,1.3-3,3-3C285.3,385.6,286.6,386.9,286.6,388.6z"/>
		<path d="M69.7,81.1c0,1.7-1.3,3-3,3c-1.7,0-3-1.3-3-3c0-1.7,1.3-3,3-3C68.4,78.1,69.7,79.4,69.7,81.1z"/>
		<path class="st1" d="M69.7,81.1c0,1.7-1.3,3-3,3c-1.7,0-3-1.3-3-3c0-1.7,1.3-3,3-3C68.4,78.1,69.7,79.4,69.7,81.1z"/>
		<path d="M503.5,554.4c0,1.7-1.3,3-3,3c-1.7,0-3-1.3-3-3s1.3-3,3-3C502.1,551.4,503.5,552.8,503.5,554.4z"/>
		<path class="st1" d="M503.5,554.4c0,1.7-1.3,3-3,3c-1.7,0-3-1.3-3-3s1.3-3,3-3C502.1,551.4,503.5,552.8,503.5,554.4z"/>
		<path d="M666.1,452.4c0,1.7-1.3,3-3,3s-3-1.3-3-3c0-1.7,1.3-3,3-3S666.1,450.8,666.1,452.4z"/>
		<path class="st1" d="M666.1,452.4c0,1.7-1.3,3-3,3s-3-1.3-3-3c0-1.7,1.3-3,3-3S666.1,450.8,666.1,452.4z"/>
		<path d="M666.1,591c0,1.7-1.3,3-3,3s-3-1.3-3-3s1.3-3,3-3S666.1,589.3,666.1,591z"/>
		<path class="st1" d="M666.1,591c0,1.7-1.3,3-3,3s-3-1.3-3-3s1.3-3,3-3S666.1,589.3,666.1,591z"/>
		<path d="M666.1,67.6c0,1.7-1.3,3-3,3s-3-1.3-3-3c0-1.7,1.3-3,3-3S666.1,65.9,666.1,67.6z"/>
		<path class="st1" d="M666.1,67.6c0,1.7-1.3,3-3,3s-3-1.3-3-3c0-1.7,1.3-3,3-3S666.1,65.9,666.1,67.6z"/>
		<path d="M449.2,230.2c0,1.7-1.3,3-3,3c-1.7,0-3-1.3-3-3c0-1.7,1.3-3,3-3C447.9,227.2,449.2,228.5,449.2,230.2z"/>
		<path class="st1" d="M449.2,230.2c0,1.7-1.3,3-3,3c-1.7,0-3-1.3-3-3c0-1.7,1.3-3,3-3C447.9,227.2,449.2,228.5,449.2,230.2z"/>
		<path d="M666.1,298.5c0,1.7-1.3,3-3,3s-3-1.3-3-3s1.3-3,3-3S666.1,296.8,666.1,298.5z"/>
		<path class="st1" d="M666.1,298.5c0,1.7-1.3,3-3,3s-3-1.3-3-3s1.3-3,3-3S666.1,296.8,666.1,298.5z"/>
		<path d="M666.1,529.4c0,1.7-1.3,3-3,3s-3-1.3-3-3c0-1.7,1.3-3,3-3S666.1,527.8,666.1,529.4z"/>
		<path class="st1" d="M666.1,529.4c0,1.7-1.3,3-3,3s-3-1.3-3-3c0-1.7,1.3-3,3-3S666.1,527.8,666.1,529.4z"/>
		<path d="M611.9,29.1c0,1.7-1.3,3-3,3c-1.7,0-3-1.3-3-3c0-1.7,1.3-3,3-3C610.6,26.1,611.9,27.4,611.9,29.1z"/>
		<path class="st1" d="M611.9,29.1c0,1.7-1.3,3-3,3c-1.7,0-3-1.3-3-3c0-1.7,1.3-3,3-3C610.6,26.1,611.9,27.4,611.9,29.1z"/>
		<path d="M666.1,329.3c0,1.7-1.3,3-3,3s-3-1.3-3-3c0-1.7,1.3-3,3-3S666.1,327.6,666.1,329.3z"/>
		<path class="st1" d="M666.1,329.3c0,1.7-1.3,3-3,3s-3-1.3-3-3c0-1.7,1.3-3,3-3S666.1,327.6,666.1,329.3z"/>
		<path d="M666.1,575.6c0,1.7-1.3,3-3,3s-3-1.3-3-3c0-1.7,1.3-3,3-3S666.1,573.9,666.1,575.6z"/>
		<path class="st1" d="M666.1,575.6c0,1.7-1.3,3-3,3s-3-1.3-3-3c0-1.7,1.3-3,3-3S666.1,573.9,666.1,575.6z"/>
		<path d="M666.1,113.8c0,1.7-1.3,3-3,3s-3-1.3-3-3c0-1.7,1.3-3,3-3S666.1,112.1,666.1,113.8z"/>
		<path class="st1" d="M666.1,113.8c0,1.7-1.3,3-3,3s-3-1.3-3-3c0-1.7,1.3-3,3-3S666.1,112.1,666.1,113.8z"/>
		<path d="M611.9,183c0,1.7-1.3,3-3,3c-1.7,0-3-1.3-3-3c0-1.7,1.3-3,3-3C610.6,180,611.9,181.4,611.9,183z"/>
		<path class="st1" d="M611.9,183c0,1.7-1.3,3-3,3c-1.7,0-3-1.3-3-3c0-1.7,1.3-3,3-3C610.6,180,611.9,181.4,611.9,183z"/>
		<path d="M611.9,444.8c0,1.7-1.3,3-3,3c-1.7,0-3-1.3-3-3s1.3-3,3-3C610.6,441.8,611.9,443.1,611.9,444.8z"/>
		<path class="st1" d="M611.9,444.8c0,1.7-1.3,3-3,3c-1.7,0-3-1.3-3-3s1.3-3,3-3C610.6,441.8,611.9,443.1,611.9,444.8z"/>
		<path d="M232.4,287c0,1.7-1.3,3-3,3c-1.7,0-3-1.3-3-3c0-1.7,1.3-3,3-3C231,284,232.4,285.4,232.4,287z"/>
		<path class="st1" d="M232.4,287c0,1.7-1.3,3-3,3c-1.7,0-3-1.3-3-3c0-1.7,1.3-3,3-3C231,284,232.4,285.4,232.4,287z"/>
		<path d="M666.1,467.8c0,1.7-1.3,3-3,3s-3-1.3-3-3s1.3-3,3-3S666.1,466.2,666.1,467.8z"/>
		<path class="st1" d="M666.1,467.8c0,1.7-1.3,3-3,3s-3-1.3-3-3s1.3-3,3-3S666.1,466.2,666.1,467.8z"/>
		<path d="M503.5,338.9c0,1.7-1.3,3-3,3c-1.7,0-3-1.3-3-3c0-1.7,1.3-3,3-3C502.1,335.9,503.5,337.3,503.5,338.9z"/>
		<path class="st1" d="M503.5,338.9c0,1.7-1.3,3-3,3c-1.7,0-3-1.3-3-3c0-1.7,1.3-3,3-3C502.1,335.9,503.5,337.3,503.5,338.9z"/>
		<path d="M611.9,475.5c0,1.7-1.3,3-3,3c-1.7,0-3-1.3-3-3c0-1.7,1.3-3,3-3C610.6,472.5,611.9,473.9,611.9,475.5z"/>
		<path class="st1" d="M611.9,475.5c0,1.7-1.3,3-3,3c-1.7,0-3-1.3-3-3c0-1.7,1.3-3,3-3C610.6,472.5,611.9,473.9,611.9,475.5z"/>
		<path d="M666.1,36.8c0,1.7-1.3,3-3,3s-3-1.3-3-3c0-1.7,1.3-3,3-3S666.1,35.1,666.1,36.8z"/>
		<path class="st1" d="M666.1,36.8c0,1.7-1.3,3-3,3s-3-1.3-3-3c0-1.7,1.3-3,3-3S666.1,35.1,666.1,36.8z"/>
	</g>
	<g transform="matrix(1,0,0,1,668.12,549.7105)">
		<text transform="matrix(1 0 0 1 0 15)" class="st2 st3">CANGA+</text>
	</g>
	<g transform="matrix(1,0,0,1,668.12,72.4737)">
		<text transform="matrix(1 0 0 1 0 15)" class="st2 st3">PICST</text>
	</g>
	<g transform="matrix(1,0,0,1,668.12,226.4211)">
		<text transform="matrix(1 0 0 1 0 15)" class="st2 st3">SACBA*</text>
	</g>
	<g transform="matrix(1,0,0,1,668.12,134.0526)">
		<text transform="matrix(1 0 0 1 0 15)" class="st2 st3">TETPH*</text>
	</g>
	<g transform="matrix(1,0,0,1,668.12,488.1316)">
		<text transform="matrix(1 0 0 1 0 15)" class="st2 st3">NAUDC+</text>
	</g>
	<g transform="matrix(1,0,0,1,668.12,211.0263)">
		<text transform="matrix(1 0 0 1 0 15)" class="st2 st3">SACCA*</text>
	</g>
	<g transform="matrix(1,0,0,1,668.12,118.6579)">
		<text transform="matrix(1 0 0 1 0 15)" class="st2 st3">1071379A*</text>
	</g>
	<g transform="matrix(1,0,0,1,668.12,-4.5)">
		<text transform="matrix(1 0 0 1 0 15)" class="st2 st3">SCHPO</text>
	</g>
	<g transform="matrix(1,0,0,1,668.12,195.6316)">
		<text transform="matrix(1 0 0 1 0 15)" class="st2 st3">NAUDC*</text>
	</g>
	<g transform="matrix(1,0,0,1,668.12,349.5789)">
		<text transform="matrix(1 0 0 1 0 15)" class="st2 st3">KLUWA</text>
	</g>
	<g transform="matrix(1,0,0,1,668.12,10.8947)">
		<text transform="matrix(1 0 0 1 0 15)" class="st2 st3">YARLI</text>
	</g>
	<g transform="matrix(1,0,0,1,668.12,272.6053)">
		<text transform="matrix(1 0 0 1 0 15)" class="st2 st3">51660A*</text>
	</g>
	<g transform="matrix(1,0,0,1,668.12,380.3684)">
		<text transform="matrix(1 0 0 1 0 15)" class="st2 st3">TORDC</text>
	</g>
	<g transform="matrix(1,0,0,1,668.12,303.3947)">
		<text transform="matrix(1 0 0 1 0 15)" class="st2 st3">KLULA</text>
	</g>
	<g transform="matrix(1,0,0,1,668.12,364.9737)">
		<text transform="matrix(1 0 0 1 0 15)" class="st2 st3">LACTH</text>
	</g>
	<g transform="matrix(1,0,0,1,668.12,257.2105)">
		<text transform="matrix(1 0 0 1 0 15)" class="st2 st3">CANGA*</text>
	</g>
	<g transform="matrix(1,0,0,1,668.12,503.5263)">
		<text transform="matrix(1 0 0 1 0 15)" class="st2 st3">SACCA+</text>
	</g>
	<g transform="matrix(1,0,0,1,668.12,534.3158)">
		<text transform="matrix(1 0 0 1 0 15)" class="st2 st3">YEAST+</text>
	</g>
	<g transform="matrix(1,0,0,1,668.12,180.2368)">
		<text transform="matrix(1 0 0 1 0 15)" class="st2 st3">KAZAF*</text>
	</g>
	<g transform="matrix(1,0,0,1,668.12,241.8158)">
		<text transform="matrix(1 0 0 1 0 15)" class="st2 st3">YEAST*</text>
	</g>
	<g transform="matrix(1,0,0,1,668.12,87.8684)">
		<text transform="matrix(1 0 0 1 0 15)" class="st2 st3">CANAL</text>
	</g>
	<g transform="matrix(1,0,0,1,668.12,395.7632)">
		<text transform="matrix(1 0 0 1 0 15)" class="st2 st3">ZYGRO</text>
	</g>
	<g transform="matrix(1,0,0,1,668.12,411.1579)">
		<text transform="matrix(1 0 0 1 0 15)" class="st2 st3">1071379A+</text>
	</g>
	<g transform="matrix(1,0,0,1,668.12,426.5526)">
		<text transform="matrix(1 0 0 1 0 15)" class="st2 st3">TETPH+</text>
	</g>
	<g transform="matrix(1,0,0,1,668.12,441.9474)">
		<text transform="matrix(1 0 0 1 0 15)" class="st2 st3">VANPO+</text>
	</g>
	<g transform="matrix(1,0,0,1,668.12,57.0789)">
		<text transform="matrix(1 0 0 1 0 15)" class="st2 st3">DEBHA</text>
	</g>
	<g transform="matrix(1,0,0,1,668.12,580.5)">
		<text transform="matrix(1 0 0 1 0 15)" class="st2 st3">51914A+</text>
	</g>
	<g transform="matrix(1,0,0,1,668.12,288)">
		<text transform="matrix(1 0 0 1 0 15)" class="st2 st3">51914A*</text>
	</g>
	<g transform="matrix(1,0,0,1,668.12,41.6842)">
		<text transform="matrix(1 0 0 1 0 15)" class="st2 st3">DEKBR</text>
	</g>
	<g transform="matrix(1,0,0,1,668.12,518.9211)">
		<text transform="matrix(1 0 0 1 0 15)" class="st2 st3">SACBA+</text>
	</g>
	<g transform="matrix(1,0,0,1,668.12,318.7895)">
		<text transform="matrix(1 0 0 1 0 15)" class="st2 st3">ASHGO</text>
	</g>
	<g transform="matrix(1,0,0,1,668.12,103.2632)">
		<text transform="matrix(1 0 0 1 0 15)" class="st2 st3">HANAN</text>
	</g>
	<g transform="matrix(1,0,0,1,668.12,565.1053)">
		<text transform="matrix(1 0 0 1 0 15)" class="st2 st3">51660A+</text>
	</g>
	<g transform="matrix(1,0,0,1,668.12,472.7368)">
		<text transform="matrix(1 0 0 1 0 15)" class="st2 st3">KAZAF+</text>
	</g>
	<g transform="matrix(1,0,0,1,668.12,334.1842)">
		<text transform="matrix(1 0 0 1 0 15)" class="st2 st3">SACKL</text>
	</g>
	<g transform="matrix(1,0,0,1,668.12,457.3421)">
		<text transform="matrix(1 0 0 1 0 15)" class="st2 st3">588726A+</text>
	</g>
	<g transform="matrix(1,0,0,1,668.12,149.4474)">
		<text transform="matrix(1 0 0 1 0 15)" class="st2 st3">VANPO*</text>
	</g>
	<g transform="matrix(1,0,0,1,668.12,164.8421)">
		<text transform="matrix(1 0 0 1 0 15)" class="st2 st3">588726A*</text>
	</g>
	<g transform="matrix(1,0,0,1,668.12,26.2895)">
		<text transform="matrix(1 0 0 1 0 15)" class="st2 st3">45786A</text>
	</g>
	<g transform="matrix(1,0,0,1,505.4665,253.9375)">
		<text transform="matrix(1 0 0 1 0 12)" class="st4 st5">&lt;31&gt;</text>
	</g>
	<g transform="matrix(1,0,0,1,613.9022,498.3289)">
		<text transform="matrix(1 0 0 1 0 12)" class="st4 st5">&lt;13&gt;</text>
	</g>
	<g transform="matrix(1,0,0,1,559.6844,482.9342)">
		<text transform="matrix(1 0 0 1 0 12)" class="st4 st5">&lt;14&gt;</text>
	</g>
	<g transform="matrix(1,0,0,1,613.9022,575.3026)">
		<text transform="matrix(1 0 0 1 0 12)" class="st4 st5">&lt;15&gt;</text>
	</g>
	<g transform="matrix(1,0,0,1,342.8131,430.2553)">
		<text transform="matrix(1 0 0 1 0 12)" class="st4 st5">&lt;21&gt;</text>
	</g>
	<g transform="matrix(1,0,0,1,559.6844,271.2566)">
		<text transform="matrix(1 0 0 1 0 12)" class="st4 st5">&lt;29&gt;</text>
	</g>
	<g transform="matrix(1,0,0,1,559.6844,132.7039)">
		<text transform="matrix(1 0 0 1 0 12)" class="st4 st5">&lt;24&gt;</text>
	</g>
	<g transform="matrix(1,0,0,1,451.2487,514.6859)">
		<text transform="matrix(1 0 0 1 0 12)" class="st4 st5">&lt;19&gt;</text>
	</g>
	<g transform="matrix(1,0,0,1,613.9022,529.1184)">
		<text transform="matrix(1 0 0 1 0 12)" class="st4 st5">&lt;17&gt;</text>
	</g>
	<g transform="matrix(1,0,0,1,613.9022,313.5921)">
		<text transform="matrix(1 0 0 1 0 12)" class="st4 st5">&lt;5&gt;</text>
	</g>
	<g transform="matrix(1,0,0,1,559.6844,425.2039)">
		<text transform="matrix(1 0 0 1 0 12)" class="st4 st5">&lt;11&gt;</text>
	</g>
	<g transform="matrix(1,0,0,1,180.1596,192.3886)">
		<text transform="matrix(1 0 0 1 0 12)" class="st4 st5">&lt;35&gt;</text>
	</g>
	<g transform="matrix(1,0,0,1,613.9022,359.7763)">
		<text transform="matrix(1 0 0 1 0 12)" class="st4 st5">&lt;6&gt;</text>
	</g>
	<g transform="matrix(1,0,0,1,559.6844,190.4342)">
		<text transform="matrix(1 0 0 1 0 12)" class="st4 st5">&lt;27&gt;</text>
	</g>
	<g transform="matrix(1,0,0,1,505.4665,57.6546)">
		<text transform="matrix(1 0 0 1 0 12)" class="st4 st5">&lt;4&gt;</text>
	</g>
	<g transform="matrix(1,0,0,1,559.6844,348.2303)">
		<text transform="matrix(1 0 0 1 0 12)" class="st4 st5">&lt;7&gt;</text>
	</g>
	<g transform="matrix(1,0,0,1,559.6844,563.7566)">
		<text transform="matrix(1 0 0 1 0 12)" class="st4 st5">&lt;16&gt;</text>
	</g>
	<g transform="matrix(1,0,0,1,125.9418,125.0216)">
		<text transform="matrix(1 0 0 1 0 12)" class="st4 st5">&lt;36&gt;</text>
	</g>
	<g transform="matrix(1,0,0,1,288.5953,380.5833)">
		<text transform="matrix(1 0 0 1 0 12)" class="st4 st5">&lt;22&gt;</text>
	</g>
	<g transform="matrix(1,0,0,1,613.9022,282.8026)">
		<text transform="matrix(1 0 0 1 0 12)" class="st4 st5">&lt;28&gt;</text>
	</g>
	<g transform="matrix(1,0,0,1,71.724,73.0569)">
		<text transform="matrix(1 0 0 1 0 12)" class="st4 st5">&lt;37&gt;</text>
	</g>
	<g transform="matrix(1,0,0,1,613.9022,205.8289)">
		<text transform="matrix(1 0 0 1 0 12)" class="st4 st5">&lt;26&gt;</text>
	</g>
	<g transform="matrix(1,0,0,1,505.4665,546.4375)">
		<text transform="matrix(1 0 0 1 0 12)" class="st4 st5">&lt;18&gt;</text>
	</g>
	<g transform="matrix(1,0,0,1,451.2487,222.1859)">
		<text transform="matrix(1 0 0 1 0 12)" class="st4 st5">&lt;32&gt;</text>
	</g>
	<g transform="matrix(1,0,0,1,559.6844,71.125)">
		<text transform="matrix(1 0 0 1 0 12)" class="st4 st5">&lt;3&gt;</text>
	</g>
	<g transform="matrix(1,0,0,1,397.0309,177.4449)">
		<text transform="matrix(1 0 0 1 0 12)" class="st4 st5">&lt;33&gt;</text>
	</g>
	<g transform="matrix(1,0,0,1,613.9022,21.0921)">
		<text transform="matrix(1 0 0 1 0 12)" class="st4 st5">&lt;1&gt;</text>
	</g>
	<g transform="matrix(1,0,0,1,613.9022,144.25)">
		<text transform="matrix(1 0 0 1 0 12)" class="st4 st5">&lt;23&gt;</text>
	</g>
	<g transform="matrix(1,0,0,1,613.9022,82.6711)">
		<text transform="matrix(1 0 0 1 0 12)" class="st4 st5">&lt;2&gt;</text>
	</g>
	<g transform="matrix(1,0,0,1,613.9022,175.0395)">
		<text transform="matrix(1 0 0 1 0 12)" class="st4 st5">&lt;25&gt;</text>
	</g>
	<g transform="matrix(1,0,0,1,613.9022,436.75)">
		<text transform="matrix(1 0 0 1 0 12)" class="st4 st5">&lt;10&gt;</text>
	</g>
	<g transform="matrix(1,0,0,1,613.9022,390.5658)">
		<text transform="matrix(1 0 0 1 0 12)" class="st4 st5">&lt;9&gt;</text>
	</g>
	<g transform="matrix(1,0,0,1,234.3774,279.0141)">
		<text transform="matrix(1 0 0 1 0 12)" class="st4 st5">&lt;34&gt;</text>
	</g>
	<g transform="matrix(1,0,0,1,613.9022,236.6184)">
		<text transform="matrix(1 0 0 1 0 12)" class="st4 st5">&lt;30&gt;</text>
	</g>
	<g transform="matrix(1,0,0,1,505.4665,330.9112)">
		<text transform="matrix(1 0 0 1 0 12)" class="st4 st5">&lt;8&gt;</text>
	</g>
	<g transform="matrix(1,0,0,1,397.0309,469.9449)">
		<text transform="matrix(1 0 0 1 0 12)" class="st4 st5">&lt;20&gt;</text>
	</g>
	<g transform="matrix(1,0,0,1,613.9022,467.5395)">
		<text transform="matrix(1 0 0 1 0 12)" class="st4 st5">&lt;12&gt;</text>
	</g>
</g>
<path class="st6" d="M396.4,602.8h358.5c8,0,14.4-5.3,14.4-12V424.4c0-6.7-6.4-12-14.4-12H396.4c-8,0-14.4,5.3-14.4,12v166.3
	C382,597.4,388.4,602.8,396.4,602.8z"/>
<text transform="matrix(1 0 0 1 781.2092 518.5262)" class="st7 st8">BY</text>
<path class="st9" d="M602.3,411.6h161.5c3.6,0,6.5-5.3,6.5-11.9v-6.5c0-6.6-2.9-11.9-6.5-11.9H602.3c-3.6,0-6.5,5.3-6.5,11.9v6.5
	C595.8,406.3,598.7,411.6,602.3,411.6z"/>
<text transform="matrix(1 0 0 1 781.2096 407.2632)" class="st7 st8">ZT</text>
<path class="st10" d="M498.5,380.8h262.1c5.9,0,10.5-5.1,10.5-11.6v-52.7c0-6.4-4.7-11.6-10.5-11.6H498.5c-5.9,0-10.5,5.1-10.5,11.6
	v52.7C488,375.6,492.7,380.8,498.5,380.8z"/>
<text transform="matrix(1 0 0 1 781.2101 356.2303)" class="st7 st8">KLE</text>
<path class="st6" d="M396.5,305.1H755c8,0,14.4-5.3,14.4-11.8V129.6c0-6.6-6.4-11.8-14.4-11.8H396.5c-8,0-14.4,5.3-14.4,11.8v163.7
	C382.1,299.9,388.5,305.1,396.5,305.1z"/>
<text transform="matrix(1 0 0 1 781.3292 225.8683)" class="st7 st8">BY</text>
<path class="st11" d="M492.7,117.7h266.4c5.9,0,10.7-5,10.7-11.3V11.3C769.8,5,765.1,0,759.1,0H492.7C486.8,0,482,5,482,11.3v95.2
	C482,112.6,486.8,117.7,492.7,117.7z"/>
<text transform="matrix(1 0 0 1 781.2089 62.2927)" class="st7 st8">O</text>
</svg>
