<?xml version="1.0" encoding="utf-8"?>
<!-- Generator: Adobe Illustrator 19.0.0, SVG Export Plug-In . SVG Version: 6.00 Build 0)  -->
<svg version="1.1" id="Layer_1" xmlns="http://www.w3.org/2000/svg" xmlns:xlink="http://www.w3.org/1999/xlink" x="0px" y="0px"
	 viewBox="0 -9 847 619" style="enable-background:new 0 -9 847 619;" xml:space="preserve">
<style type="text/css">
	.st0{fill:none;stroke:#000000;stroke-width:2;stroke-miterlimit:10;}
	.st1{fill:none;stroke:#000000;stroke-width:0.5;stroke-linecap:square;stroke-miterlimit:10;}
	.st2{font-family:'CourierNewPSMT';}
	.st3{font-size:18px;}
	.st4{font-family:'SourceCodePro-Regular';}
	.st5{font-size:14px;}
	.st6{opacity:0.2;fill:#E46C0A;enable-background:new    ;}
	.st7{font-family:'ArialMT';}
	.st8{font-size:30px;}
	.st9{opacity:0.2;fill:#31859C;enable-background:new    ;}
	.st10{opacity:0.2;fill:#604A7B;enable-background:new    ;}
	.st11{opacity:0.2;fill:#3D3D5C;enable-background:new    ;}
</style>
<g>
	<g>
		<path class="st0" d="M613.1,512.3H493v25.3"/>
		<path class="st0" d="M613.1,579.8h-60v-16.9"/>
		<path class="st0" d="M553,562.9h-60v-25.3"/>
		<path class="st0" d="M72.7,100.5h-60V53.3"/>
		<path class="st0" d="M673.1,73.5H493v19.7"/>
		<path class="st0" d="M613.1,129.8h-60v-16.9"/>
		<path class="st0" d="M673.1,208.5h-60v-11.3"/>
		<path class="st0" d="M553,247.9h-60v-25.3"/>
		<path class="st0" d="M673.1,6H12.6v47.3"/>
		<path class="st0" d="M553,360.4H372.9v65.4"/>
		<path class="st0" d="M673.1,163.5H192.7v65.8"/>
		<path class="st0" d="M673.1,501h-60v11.3"/>
		<path class="st0" d="M192.7,229.3h-60v-68.1"/>
		<path class="st0" d="M613.1,422.3h-60v22.5"/>
		<path class="st0" d="M613.1,197.3H493v25.3"/>
		<path class="st0" d="M553,112.9h-60V93.2"/>
		<path class="st0" d="M6,53.3h6.6"/>
		<path class="st0" d="M673.1,388.5h-60v-11.3"/>
		<path class="st0" d="M132.7,161.3h-60v-60.8"/>
		<path class="st0" d="M613.1,39.8H72.7v60.8"/>
		<path class="st0" d="M673.1,141h-60v-11.3"/>
		<path class="st0" d="M252.8,295.2h-60v-65.8"/>
		<path class="st0" d="M673.1,366h-60v11.3"/>
		<path class="st0" d="M673.1,411h-60v11.3"/>
		<path class="st0" d="M673.1,118.5h-60v11.3"/>
		<path class="st0" d="M613.1,377.3h-60v-16.9"/>
		<path class="st0" d="M673.1,253.5h-60v11.3"/>
		<path class="st0" d="M673.1,546H553v16.9"/>
		<path class="st0" d="M673.1,276h-60v-11.3"/>
		<path class="st0" d="M613.1,467.3h-60v-22.5"/>
		<path class="st0" d="M432.9,491.2h-60v-65.4"/>
		<path class="st0" d="M493,537.6h-60v-46.4"/>
		<path class="st0" d="M312.8,367.8h-60v-72.6"/>
		<path class="st0" d="M673.1,231H553v16.9"/>
		<path class="st0" d="M673.1,96H553v16.9"/>
		<path class="st0" d="M673.1,433.5h-60v-11.3"/>
		<path class="st0" d="M673.1,321h-60v-11.3"/>
		<path class="st0" d="M553,444.8H432.9v46.4"/>
		<path class="st0" d="M673.1,28.5h-60v11.3"/>
		<path class="st0" d="M673.1,343.5H553v16.9"/>
		<path class="st0" d="M673.1,478.5h-60v-11.3"/>
		<path class="st0" d="M493,222.6H252.8v72.6"/>
		<path class="st0" d="M372.9,425.8h-60v-58"/>
		<path class="st0" d="M613.1,309.8H312.8v58"/>
		<path class="st0" d="M673.1,298.5h-60v11.3"/>
		<path class="st0" d="M673.1,591h-60v-11.3"/>
		<path class="st0" d="M673.1,523.5h-60v-11.3"/>
		<path class="st0" d="M673.1,186h-60v11.3"/>
		<path class="st0" d="M613.1,264.8h-60v-16.9"/>
		<path class="st0" d="M493,93.2H132.7v68.1"/>
		<path class="st0" d="M673.1,51h-60V39.8"/>
		<path class="st0" d="M673.1,568.5h-60v11.3"/>
		<path class="st0" d="M673.1,456h-60v11.3"/>
		<path d="M617.1,512.3c0,2.2-1.8,4-4,4c-2.2,0-4-1.8-4-4c0-2.2,1.8-4,4-4C615.3,508.3,617.1,510,617.1,512.3z"/>
		<path class="st1" d="M617.1,512.3c0,2.2-1.8,4-4,4c-2.2,0-4-1.8-4-4c0-2.2,1.8-4,4-4C615.3,508.3,617.1,510,617.1,512.3z"/>
		<path d="M617.1,579.8c0,2.2-1.8,4-4,4c-2.2,0-4-1.8-4-4s1.8-4,4-4C615.3,575.8,617.1,577.5,617.1,579.8z"/>
		<path class="st1" d="M617.1,579.8c0,2.2-1.8,4-4,4c-2.2,0-4-1.8-4-4s1.8-4,4-4C615.3,575.8,617.1,577.5,617.1,579.8z"/>
		<path d="M557,562.9c0,2.2-1.8,4-4,4c-2.2,0-4-1.8-4-4s1.8-4,4-4C555.2,558.9,557,560.7,557,562.9z"/>
		<path class="st1" d="M557,562.9c0,2.2-1.8,4-4,4c-2.2,0-4-1.8-4-4s1.8-4,4-4C555.2,558.9,557,560.7,557,562.9z"/>
		<path d="M76.7,100.5c0,2.2-1.8,4-4,4c-2.2,0-4-1.8-4-4s1.8-4,4-4C74.9,96.5,76.7,98.3,76.7,100.5z"/>
		<path class="st1" d="M76.7,100.5c0,2.2-1.8,4-4,4c-2.2,0-4-1.8-4-4s1.8-4,4-4C74.9,96.5,76.7,98.3,76.7,100.5z"/>
		<path d="M677.1,73.5c0,2.2-1.8,4-4,4c-2.2,0-4-1.8-4-4s1.8-4,4-4C675.3,69.5,677.1,71.3,677.1,73.5z"/>
		<path class="st1" d="M677.1,73.5c0,2.2-1.8,4-4,4c-2.2,0-4-1.8-4-4s1.8-4,4-4C675.3,69.5,677.1,71.3,677.1,73.5z"/>
		<path d="M617.1,129.8c0,2.2-1.8,4-4,4c-2.2,0-4-1.8-4-4c0-2.2,1.8-4,4-4C615.3,125.8,617.1,127.5,617.1,129.8z"/>
		<path class="st1" d="M617.1,129.8c0,2.2-1.8,4-4,4c-2.2,0-4-1.8-4-4c0-2.2,1.8-4,4-4C615.3,125.8,617.1,127.5,617.1,129.8z"/>
		<path d="M677.1,208.5c0,2.2-1.8,4-4,4c-2.2,0-4-1.8-4-4s1.8-4,4-4C675.3,204.5,677.1,206.3,677.1,208.5z"/>
		<path class="st1" d="M677.1,208.5c0,2.2-1.8,4-4,4c-2.2,0-4-1.8-4-4s1.8-4,4-4C675.3,204.5,677.1,206.3,677.1,208.5z"/>
		<path d="M557,247.9c0,2.2-1.8,4-4,4c-2.2,0-4-1.8-4-4s1.8-4,4-4C555.2,243.9,557,245.7,557,247.9z"/>
		<path class="st1" d="M557,247.9c0,2.2-1.8,4-4,4c-2.2,0-4-1.8-4-4s1.8-4,4-4C555.2,243.9,557,245.7,557,247.9z"/>
		<path d="M677.1,6c0,2.2-1.8,4-4,4c-2.2,0-4-1.8-4-4s1.8-4,4-4C675.3,2,677.1,3.8,677.1,6z"/>
		<path class="st1" d="M677.1,6c0,2.2-1.8,4-4,4c-2.2,0-4-1.8-4-4s1.8-4,4-4C675.3,2,677.1,3.8,677.1,6z"/>
		<path d="M557,360.4c0,2.2-1.8,4-4,4c-2.2,0-4-1.8-4-4s1.8-4,4-4C555.2,356.4,557,358.2,557,360.4z"/>
		<path class="st1" d="M557,360.4c0,2.2-1.8,4-4,4c-2.2,0-4-1.8-4-4s1.8-4,4-4C555.2,356.4,557,358.2,557,360.4z"/>
		<path d="M677.1,501c0,2.2-1.8,4-4,4c-2.2,0-4-1.8-4-4s1.8-4,4-4C675.3,497,677.1,498.8,677.1,501z"/>
		<path class="st1" d="M677.1,501c0,2.2-1.8,4-4,4c-2.2,0-4-1.8-4-4s1.8-4,4-4C675.3,497,677.1,498.8,677.1,501z"/>
		<path d="M677.1,163.5c0,2.2-1.8,4-4,4c-2.2,0-4-1.8-4-4s1.8-4,4-4C675.3,159.5,677.1,161.3,677.1,163.5z"/>
		<path class="st1" d="M677.1,163.5c0,2.2-1.8,4-4,4c-2.2,0-4-1.8-4-4s1.8-4,4-4C675.3,159.5,677.1,161.3,677.1,163.5z"/>
		<path d="M196.7,229.3c0,2.2-1.8,4-4,4c-2.2,0-4-1.8-4-4c0-2.2,1.8-4,4-4C195,225.3,196.7,227.1,196.7,229.3z"/>
		<path class="st1" d="M196.7,229.3c0,2.2-1.8,4-4,4c-2.2,0-4-1.8-4-4c0-2.2,1.8-4,4-4C195,225.3,196.7,227.1,196.7,229.3z"/>
		<path d="M617.1,422.3c0,2.2-1.8,4-4,4c-2.2,0-4-1.8-4-4s1.8-4,4-4C615.3,418.3,617.1,420,617.1,422.3z"/>
		<path class="st1" d="M617.1,422.3c0,2.2-1.8,4-4,4c-2.2,0-4-1.8-4-4s1.8-4,4-4C615.3,418.3,617.1,420,617.1,422.3z"/>
		<path d="M617.1,197.3c0,2.2-1.8,4-4,4c-2.2,0-4-1.8-4-4s1.8-4,4-4C615.3,193.3,617.1,195,617.1,197.3z"/>
		<path class="st1" d="M617.1,197.3c0,2.2-1.8,4-4,4c-2.2,0-4-1.8-4-4s1.8-4,4-4C615.3,193.3,617.1,195,617.1,197.3z"/>
		<path d="M557,112.9c0,2.2-1.8,4-4,4c-2.2,0-4-1.8-4-4s1.8-4,4-4C555.2,108.9,557,110.7,557,112.9z"/>
		<path class="st1" d="M557,112.9c0,2.2-1.8,4-4,4c-2.2,0-4-1.8-4-4s1.8-4,4-4C555.2,108.9,557,110.7,557,112.9z"/>
		<path d="M16.6,53.3c0,2.2-1.8,4-4,4c-2.2,0-4-1.8-4-4c0-2.2,1.8-4,4-4C14.8,49.3,16.6,51,16.6,53.3z"/>
		<path class="st1" d="M16.6,53.3c0,2.2-1.8,4-4,4c-2.2,0-4-1.8-4-4c0-2.2,1.8-4,4-4C14.8,49.3,16.6,51,16.6,53.3z"/>
		<path d="M677.1,388.5c0,2.2-1.8,4-4,4c-2.2,0-4-1.8-4-4s1.8-4,4-4C675.3,384.5,677.1,386.3,677.1,388.5z"/>
		<path class="st1" d="M677.1,388.5c0,2.2-1.8,4-4,4c-2.2,0-4-1.8-4-4s1.8-4,4-4C675.3,384.5,677.1,386.3,677.1,388.5z"/>
		<path d="M136.7,161.3c0,2.2-1.8,4-4,4c-2.2,0-4-1.8-4-4c0-2.2,1.8-4,4-4C134.9,157.3,136.7,159,136.7,161.3z"/>
		<path class="st1" d="M136.7,161.3c0,2.2-1.8,4-4,4c-2.2,0-4-1.8-4-4c0-2.2,1.8-4,4-4C134.9,157.3,136.7,159,136.7,161.3z"/>
		<path d="M617.1,39.8c0,2.2-1.8,4-4,4c-2.2,0-4-1.8-4-4s1.8-4,4-4C615.3,35.8,617.1,37.5,617.1,39.8z"/>
		<path class="st1" d="M617.1,39.8c0,2.2-1.8,4-4,4c-2.2,0-4-1.8-4-4s1.8-4,4-4C615.3,35.8,617.1,37.5,617.1,39.8z"/>
		<path d="M677.1,141c0,2.2-1.8,4-4,4c-2.2,0-4-1.8-4-4s1.8-4,4-4C675.3,137,677.1,138.8,677.1,141z"/>
		<path class="st1" d="M677.1,141c0,2.2-1.8,4-4,4c-2.2,0-4-1.8-4-4s1.8-4,4-4C675.3,137,677.1,138.8,677.1,141z"/>
		<path d="M256.8,295.2c0,2.2-1.8,4-4,4c-2.2,0-4-1.8-4-4c0-2.2,1.8-4,4-4C255,291.2,256.8,293,256.8,295.2z"/>
		<path class="st1" d="M256.8,295.2c0,2.2-1.8,4-4,4c-2.2,0-4-1.8-4-4c0-2.2,1.8-4,4-4C255,291.2,256.8,293,256.8,295.2z"/>
		<path d="M677.1,366c0,2.2-1.8,4-4,4c-2.2,0-4-1.8-4-4s1.8-4,4-4C675.3,362,677.1,363.8,677.1,366z"/>
		<path class="st1" d="M677.1,366c0,2.2-1.8,4-4,4c-2.2,0-4-1.8-4-4s1.8-4,4-4C675.3,362,677.1,363.8,677.1,366z"/>
		<path d="M677.1,411c0,2.2-1.8,4-4,4c-2.2,0-4-1.8-4-4s1.8-4,4-4C675.3,407,677.1,408.8,677.1,411z"/>
		<path class="st1" d="M677.1,411c0,2.2-1.8,4-4,4c-2.2,0-4-1.8-4-4s1.8-4,4-4C675.3,407,677.1,408.8,677.1,411z"/>
		<path d="M677.1,118.5c0,2.2-1.8,4-4,4c-2.2,0-4-1.8-4-4s1.8-4,4-4C675.3,114.5,677.1,116.3,677.1,118.5z"/>
		<path class="st1" d="M677.1,118.5c0,2.2-1.8,4-4,4c-2.2,0-4-1.8-4-4s1.8-4,4-4C675.3,114.5,677.1,116.3,677.1,118.5z"/>
		<path d="M677.1,253.5c0,2.2-1.8,4-4,4c-2.2,0-4-1.8-4-4s1.8-4,4-4C675.3,249.5,677.1,251.3,677.1,253.5z"/>
		<path class="st1" d="M677.1,253.5c0,2.2-1.8,4-4,4c-2.2,0-4-1.8-4-4s1.8-4,4-4C675.3,249.5,677.1,251.3,677.1,253.5z"/>
		<path d="M617.1,377.3c0,2.2-1.8,4-4,4c-2.2,0-4-1.8-4-4s1.8-4,4-4C615.3,373.3,617.1,375,617.1,377.3z"/>
		<path class="st1" d="M617.1,377.3c0,2.2-1.8,4-4,4c-2.2,0-4-1.8-4-4s1.8-4,4-4C615.3,373.3,617.1,375,617.1,377.3z"/>
		<path d="M677.1,546c0,2.2-1.8,4-4,4c-2.2,0-4-1.8-4-4s1.8-4,4-4C675.3,542,677.1,543.8,677.1,546z"/>
		<path class="st1" d="M677.1,546c0,2.2-1.8,4-4,4c-2.2,0-4-1.8-4-4s1.8-4,4-4C675.3,542,677.1,543.8,677.1,546z"/>
		<path d="M677.1,276c0,2.2-1.8,4-4,4c-2.2,0-4-1.8-4-4s1.8-4,4-4C675.3,272,677.1,273.8,677.1,276z"/>
		<path class="st1" d="M677.1,276c0,2.2-1.8,4-4,4c-2.2,0-4-1.8-4-4s1.8-4,4-4C675.3,272,677.1,273.8,677.1,276z"/>
		<path d="M617.1,467.3c0,2.2-1.8,4-4,4c-2.2,0-4-1.8-4-4s1.8-4,4-4C615.3,463.3,617.1,465,617.1,467.3z"/>
		<path class="st1" d="M617.1,467.3c0,2.2-1.8,4-4,4c-2.2,0-4-1.8-4-4s1.8-4,4-4C615.3,463.3,617.1,465,617.1,467.3z"/>
		<path d="M436.9,491.2c0,2.2-1.8,4-4,4s-4-1.8-4-4c0-2.2,1.8-4,4-4S436.9,488.9,436.9,491.2z"/>
		<path class="st1" d="M436.9,491.2c0,2.2-1.8,4-4,4s-4-1.8-4-4c0-2.2,1.8-4,4-4S436.9,488.9,436.9,491.2z"/>
		<path d="M497,537.6c0,2.2-1.8,4-4,4c-2.2,0-4-1.8-4-4s1.8-4,4-4C495.2,533.6,497,535.4,497,537.6z"/>
		<path class="st1" d="M497,537.6c0,2.2-1.8,4-4,4c-2.2,0-4-1.8-4-4s1.8-4,4-4C495.2,533.6,497,535.4,497,537.6z"/>
		<path d="M677.1,231c0,2.2-1.8,4-4,4c-2.2,0-4-1.8-4-4s1.8-4,4-4C675.3,227,677.1,228.8,677.1,231z"/>
		<path class="st1" d="M677.1,231c0,2.2-1.8,4-4,4c-2.2,0-4-1.8-4-4s1.8-4,4-4C675.3,227,677.1,228.8,677.1,231z"/>
		<path d="M677.1,96c0,2.2-1.8,4-4,4c-2.2,0-4-1.8-4-4s1.8-4,4-4C675.3,92,677.1,93.8,677.1,96z"/>
		<path class="st1" d="M677.1,96c0,2.2-1.8,4-4,4c-2.2,0-4-1.8-4-4s1.8-4,4-4C675.3,92,677.1,93.8,677.1,96z"/>
		<path d="M316.8,367.8c0,2.2-1.8,4-4,4s-4-1.8-4-4c0-2.2,1.8-4,4-4S316.8,365.5,316.8,367.8z"/>
		<path class="st1" d="M316.8,367.8c0,2.2-1.8,4-4,4s-4-1.8-4-4c0-2.2,1.8-4,4-4S316.8,365.5,316.8,367.8z"/>
		<path d="M677.1,433.5c0,2.2-1.8,4-4,4c-2.2,0-4-1.8-4-4s1.8-4,4-4C675.3,429.5,677.1,431.3,677.1,433.5z"/>
		<path class="st1" d="M677.1,433.5c0,2.2-1.8,4-4,4c-2.2,0-4-1.8-4-4s1.8-4,4-4C675.3,429.5,677.1,431.3,677.1,433.5z"/>
		<path d="M677.1,321c0,2.2-1.8,4-4,4c-2.2,0-4-1.8-4-4s1.8-4,4-4C675.3,317,677.1,318.8,677.1,321z"/>
		<path class="st1" d="M677.1,321c0,2.2-1.8,4-4,4c-2.2,0-4-1.8-4-4s1.8-4,4-4C675.3,317,677.1,318.8,677.1,321z"/>
		<path d="M677.1,28.5c0,2.2-1.8,4-4,4c-2.2,0-4-1.8-4-4s1.8-4,4-4C675.3,24.5,677.1,26.3,677.1,28.5z"/>
		<path class="st1" d="M677.1,28.5c0,2.2-1.8,4-4,4c-2.2,0-4-1.8-4-4s1.8-4,4-4C675.3,24.5,677.1,26.3,677.1,28.5z"/>
		<path d="M557,444.8c0,2.2-1.8,4-4,4c-2.2,0-4-1.8-4-4s1.8-4,4-4C555.2,440.8,557,442.5,557,444.8z"/>
		<path class="st1" d="M557,444.8c0,2.2-1.8,4-4,4c-2.2,0-4-1.8-4-4s1.8-4,4-4C555.2,440.8,557,442.5,557,444.8z"/>
		<path d="M677.1,343.5c0,2.2-1.8,4-4,4c-2.2,0-4-1.8-4-4s1.8-4,4-4C675.3,339.5,677.1,341.3,677.1,343.5z"/>
		<path class="st1" d="M677.1,343.5c0,2.2-1.8,4-4,4c-2.2,0-4-1.8-4-4s1.8-4,4-4C675.3,339.5,677.1,341.3,677.1,343.5z"/>
		<path d="M677.1,478.5c0,2.2-1.8,4-4,4c-2.2,0-4-1.8-4-4s1.8-4,4-4C675.3,474.5,677.1,476.3,677.1,478.5z"/>
		<path class="st1" d="M677.1,478.5c0,2.2-1.8,4-4,4c-2.2,0-4-1.8-4-4s1.8-4,4-4C675.3,474.5,677.1,476.3,677.1,478.5z"/>
		<path d="M497,222.6c0,2.2-1.8,4-4,4c-2.2,0-4-1.8-4-4s1.8-4,4-4C495.2,218.6,497,220.4,497,222.6z"/>
		<path class="st1" d="M497,222.6c0,2.2-1.8,4-4,4c-2.2,0-4-1.8-4-4s1.8-4,4-4C495.2,218.6,497,220.4,497,222.6z"/>
		<path d="M376.9,425.8c0,2.2-1.8,4-4,4s-4-1.8-4-4c0-2.2,1.8-4,4-4S376.9,423.6,376.9,425.8z"/>
		<path class="st1" d="M376.9,425.8c0,2.2-1.8,4-4,4s-4-1.8-4-4c0-2.2,1.8-4,4-4S376.9,423.6,376.9,425.8z"/>
		<path d="M617.1,309.8c0,2.2-1.8,4-4,4c-2.2,0-4-1.8-4-4s1.8-4,4-4C615.3,305.8,617.1,307.5,617.1,309.8z"/>
		<path class="st1" d="M617.1,309.8c0,2.2-1.8,4-4,4c-2.2,0-4-1.8-4-4s1.8-4,4-4C615.3,305.8,617.1,307.5,617.1,309.8z"/>
		<path d="M677.1,298.5c0,2.2-1.8,4-4,4c-2.2,0-4-1.8-4-4s1.8-4,4-4C675.3,294.5,677.1,296.3,677.1,298.5z"/>
		<path class="st1" d="M677.1,298.5c0,2.2-1.8,4-4,4c-2.2,0-4-1.8-4-4s1.8-4,4-4C675.3,294.5,677.1,296.3,677.1,298.5z"/>
		<path d="M677.1,591c0,2.2-1.8,4-4,4c-2.2,0-4-1.8-4-4s1.8-4,4-4C675.3,587,677.1,588.8,677.1,591z"/>
		<path class="st1" d="M677.1,591c0,2.2-1.8,4-4,4c-2.2,0-4-1.8-4-4s1.8-4,4-4C675.3,587,677.1,588.8,677.1,591z"/>
		<path d="M677.1,523.5c0,2.2-1.8,4-4,4c-2.2,0-4-1.8-4-4s1.8-4,4-4C675.3,519.5,677.1,521.3,677.1,523.5z"/>
		<path class="st1" d="M677.1,523.5c0,2.2-1.8,4-4,4c-2.2,0-4-1.8-4-4s1.8-4,4-4C675.3,519.5,677.1,521.3,677.1,523.5z"/>
		<path d="M677.1,186c0,2.2-1.8,4-4,4c-2.2,0-4-1.8-4-4s1.8-4,4-4C675.3,182,677.1,183.8,677.1,186z"/>
		<path class="st1" d="M677.1,186c0,2.2-1.8,4-4,4c-2.2,0-4-1.8-4-4s1.8-4,4-4C675.3,182,677.1,183.8,677.1,186z"/>
		<path d="M617.1,264.8c0,2.2-1.8,4-4,4c-2.2,0-4-1.8-4-4s1.8-4,4-4C615.3,260.8,617.1,262.5,617.1,264.8z"/>
		<path class="st1" d="M617.1,264.8c0,2.2-1.8,4-4,4c-2.2,0-4-1.8-4-4s1.8-4,4-4C615.3,260.8,617.1,262.5,617.1,264.8z"/>
		<path d="M497,93.2c0,2.2-1.8,4-4,4c-2.2,0-4-1.8-4-4s1.8-4,4-4C495.2,89.2,497,91,497,93.2z"/>
		<path class="st1" d="M497,93.2c0,2.2-1.8,4-4,4c-2.2,0-4-1.8-4-4s1.8-4,4-4C495.2,89.2,497,91,497,93.2z"/>
		<path d="M677.1,51c0,2.2-1.8,4-4,4c-2.2,0-4-1.8-4-4s1.8-4,4-4C675.3,47,677.1,48.8,677.1,51z"/>
		<path class="st1" d="M677.1,51c0,2.2-1.8,4-4,4c-2.2,0-4-1.8-4-4s1.8-4,4-4C675.3,47,677.1,48.8,677.1,51z"/>
		<path d="M677.1,568.5c0,2.2-1.8,4-4,4c-2.2,0-4-1.8-4-4s1.8-4,4-4C675.3,564.5,677.1,566.3,677.1,568.5z"/>
		<path class="st1" d="M677.1,568.5c0,2.2-1.8,4-4,4c-2.2,0-4-1.8-4-4s1.8-4,4-4C675.3,564.5,677.1,566.3,677.1,568.5z"/>
		<path d="M677.1,456c0,2.2-1.8,4-4,4c-2.2,0-4-1.8-4-4s1.8-4,4-4C675.3,452,677.1,453.8,677.1,456z"/>
		<path class="st1" d="M677.1,456c0,2.2-1.8,4-4,4c-2.2,0-4-1.8-4-4s1.8-4,4-4C675.3,452,677.1,453.8,677.1,456z"/>
	</g>
	<g transform="matrix(1,0,0,1,678.11,243)">
		<text transform="matrix(1 0 0 1 0 15)" class="st2 st3">KLUWA</text>
	</g>
	<g transform="matrix(1,0,0,1,678.11,535.5)">
		<text transform="matrix(1 0 0 1 0 15)" class="st2 st3">CANGA</text>
	</g>
	<g transform="matrix(1,0,0,1,678.11,265.5)">
		<text transform="matrix(1 0 0 1 0 15)" class="st2 st3">LACTH</text>
	</g>
	<g transform="matrix(1,0,0,1,678.11,63)">
		<text transform="matrix(1 0 0 1 0 15)" class="st2 st3">DEKBR</text>
	</g>
	<g transform="matrix(1,0,0,1,678.11,198)">
		<text transform="matrix(1 0 0 1 0 15)" class="st2 st3">ASHGO</text>
	</g>
	<g transform="matrix(1,0,0,1,678.11,-4.5)">
		<text transform="matrix(1 0 0 1 0 15)" class="st2 st3">SCHPO</text>
	</g>
	<g transform="matrix(1,0,0,1,678.11,85.5)">
		<text transform="matrix(1 0 0 1 0 15)" class="st2 st3">DEBHA</text>
	</g>
	<g transform="matrix(1,0,0,1,678.11,220.5)">
		<text transform="matrix(1 0 0 1 0 15)" class="st2 st3">SACKL</text>
	</g>
	<g transform="matrix(1,0,0,1,678.11,310.5)">
		<text transform="matrix(1 0 0 1 0 15)" class="st2 st3">ZYGRO</text>
	</g>
	<g transform="matrix(1,0,0,1,678.11,423)">
		<text transform="matrix(1 0 0 1 0 15)" class="st2 st3">KAZAF</text>
	</g>
	<g transform="matrix(1,0,0,1,678.11,18)">
		<text transform="matrix(1 0 0 1 0 15)" class="st2 st3">YARLI</text>
	</g>
	<g transform="matrix(1,0,0,1,678.11,333)">
		<text transform="matrix(1 0 0 1 0 15)" class="st2 st3">1071379A</text>
	</g>
	<g transform="matrix(1,0,0,1,678.11,468)">
		<text transform="matrix(1 0 0 1 0 15)" class="st2 st3">SACCA</text>
	</g>
	<g transform="matrix(1,0,0,1,678.11,153)">
		<text transform="matrix(1 0 0 1 0 15)" class="st2 st3">HANAN</text>
	</g>
	<g transform="matrix(1,0,0,1,678.11,490.5)">
		<text transform="matrix(1 0 0 1 0 15)" class="st2 st3">SACBA</text>
	</g>
	<g transform="matrix(1,0,0,1,678.11,288)">
		<text transform="matrix(1 0 0 1 0 15)" class="st2 st3">TORDC</text>
	</g>
	<g transform="matrix(1,0,0,1,678.11,378)">
		<text transform="matrix(1 0 0 1 0 15)" class="st2 st3">VANPO</text>
	</g>
	<g transform="matrix(1,0,0,1,678.11,580.5)">
		<text transform="matrix(1 0 0 1 0 15)" class="st2 st3">51914A</text>
	</g>
	<g transform="matrix(1,0,0,1,678.11,130.5)">
		<text transform="matrix(1 0 0 1 0 15)" class="st2 st3">CANAL</text>
	</g>
	<g transform="matrix(1,0,0,1,678.11,513)">
		<text transform="matrix(1 0 0 1 0 15)" class="st2 st3">YEAST</text>
	</g>
	<g transform="matrix(1,0,0,1,678.11,175.5)">
		<text transform="matrix(1 0 0 1 0 15)" class="st2 st3">KLULA</text>
	</g>
	<g transform="matrix(1,0,0,1,678.11,355.5)">
		<text transform="matrix(1 0 0 1 0 15)" class="st2 st3">TETPH</text>
	</g>
	<g transform="matrix(1,0,0,1,678.11,40.5)">
		<text transform="matrix(1 0 0 1 0 15)" class="st2 st3">45786A</text>
	</g>
	<g transform="matrix(1,0,0,1,678.11,108)">
		<text transform="matrix(1 0 0 1 0 15)" class="st2 st3">PICST</text>
	</g>
	<g transform="matrix(1,0,0,1,678.11,400.5)">
		<text transform="matrix(1 0 0 1 0 15)" class="st2 st3">588726A</text>
	</g>
	<g transform="matrix(1,0,0,1,678.11,558)">
		<text transform="matrix(1 0 0 1 0 15)" class="st2 st3">51660A</text>
	</g>
	<g transform="matrix(1,0,0,1,678.11,445.5)">
		<text transform="matrix(1 0 0 1 0 15)" class="st2 st3">NAUDC</text>
	</g>
	<g transform="matrix(1,0,0,1,618.0641,503.25)">
		<text transform="matrix(1 0 0 1 0 14)" class="st4 st5">&lt;17&gt;</text>
	</g>
	<g transform="matrix(1,0,0,1,618.0641,570.75)">
		<text transform="matrix(1 0 0 1 0 14)" class="st4 st5">&lt;15&gt;</text>
	</g>
	<g transform="matrix(1,0,0,1,558.0182,553.875)">
		<text transform="matrix(1 0 0 1 0 14)" class="st4 st5">&lt;16&gt;</text>
	</g>
	<g transform="matrix(1,0,0,1,197.7428,220.3301)">
		<text transform="matrix(1 0 0 1 0 14)" class="st4 st5">&lt;23&gt;</text>
	</g>
	<g transform="matrix(1,0,0,1,77.651,91.5044)">
		<text transform="matrix(1 0 0 1 0 14)" class="st4 st5">&lt;25&gt;</text>
	</g>
	<g transform="matrix(1,0,0,1,618.0641,368.25)">
		<text transform="matrix(1 0 0 1 0 14)" class="st4 st5">&lt;10&gt;</text>
	</g>
	<g transform="matrix(1,0,0,1,497.9723,213.5625)">
		<text transform="matrix(1 0 0 1 0 14)" class="st4 st5">&lt;8&gt;</text>
	</g>
	<g transform="matrix(1,0,0,1,618.0641,300.75)">
		<text transform="matrix(1 0 0 1 0 14)" class="st4 st5">&lt;9&gt;</text>
	</g>
	<g transform="matrix(1,0,0,1,377.8805,416.7656)">
		<text transform="matrix(1 0 0 1 0 14)" class="st4 st5">&lt;20&gt;</text>
	</g>
	<g transform="matrix(1,0,0,1,558.0182,103.875)">
		<text transform="matrix(1 0 0 1 0 14)" class="st4 st5">&lt;3&gt;</text>
	</g>
	<g transform="matrix(1,0,0,1,618.0641,188.25)">
		<text transform="matrix(1 0 0 1 0 14)" class="st4 st5">&lt;5&gt;</text>
	</g>
	<g transform="matrix(1,0,0,1,618.0641,413.25)">
		<text transform="matrix(1 0 0 1 0 14)" class="st4 st5">&lt;12&gt;</text>
	</g>
	<g transform="matrix(1,0,0,1,618.0641,458.25)">
		<text transform="matrix(1 0 0 1 0 14)" class="st4 st5">&lt;13&gt;</text>
	</g>
	<g transform="matrix(1,0,0,1,497.9723,528.5625)">
		<text transform="matrix(1 0 0 1 0 14)" class="st4 st5">&lt;18&gt;</text>
	</g>
	<g transform="matrix(1,0,0,1,437.9264,482.1562)">
		<text transform="matrix(1 0 0 1 0 14)" class="st4 st5">&lt;19&gt;</text>
	</g>
	<g transform="matrix(1,0,0,1,618.0641,120.75)">
		<text transform="matrix(1 0 0 1 0 14)" class="st4 st5">&lt;2&gt;</text>
	</g>
	<g transform="matrix(1,0,0,1,618.0641,30.75)">
		<text transform="matrix(1 0 0 1 0 14)" class="st4 st5">&lt;1&gt;</text>
	</g>
	<g transform="matrix(1,0,0,1,137.6969,152.2588)">
		<text transform="matrix(1 0 0 1 0 14)" class="st4 st5">&lt;24&gt;</text>
	</g>
	<g transform="matrix(1,0,0,1,618.0641,255.75)">
		<text transform="matrix(1 0 0 1 0 14)" class="st4 st5">&lt;6&gt;</text>
	</g>
	<g transform="matrix(1,0,0,1,558.0182,238.875)">
		<text transform="matrix(1 0 0 1 0 14)" class="st4 st5">&lt;7&gt;</text>
	</g>
	<g transform="matrix(1,0,0,1,257.7887,286.1602)">
		<text transform="matrix(1 0 0 1 0 14)" class="st4 st5">&lt;22&gt;</text>
	</g>
	<g transform="matrix(1,0,0,1,497.9723,84.1875)">
		<text transform="matrix(1 0 0 1 0 14)" class="st4 st5">&lt;4&gt;</text>
	</g>
	<g transform="matrix(1,0,0,1,317.8346,358.7578)">
		<text transform="matrix(1 0 0 1 0 14)" class="st4 st5">&lt;21&gt;</text>
	</g>
	<g transform="matrix(1,0,0,1,558.0182,435.75)">
		<text transform="matrix(1 0 0 1 0 14)" class="st4 st5">&lt;14&gt;</text>
	</g>
	<g transform="matrix(1,0,0,1,558.0182,351.375)">
		<text transform="matrix(1 0 0 1 0 14)" class="st4 st5">&lt;11&gt;</text>
	</g>
</g>
<path class="st6" d="M379.8,600.3h376.3c8.4,0,15.1-7.5,15.1-16.8V351.2c0-9.3-6.7-16.8-15.1-16.8H379.8c-8.4,0-15.1,7.5-15.1,16.8
	v232.3C364.7,592.8,371.4,600.3,379.8,600.3z"/>
<text transform="matrix(1 0 0 1 783.2092 482.4996)" class="st7 st8">BY</text>
<path class="st9" d="M604.3,329.1h161.5c3.6,0,6.5-6.7,6.5-15V306c0-8.3-2.9-15-6.5-15H604.3c-3.6,0-6.5,6.7-6.5,15v8.1
	C597.8,322.4,600.7,329.1,604.3,329.1z"/>
<text transform="matrix(1 0 0 1 783.2094 318.9998)" class="st7 st8">ZT</text>
<path class="st10" d="M494.8,288.3h269.3c6,0,10.8-7.8,10.8-17.6v-80c0-9.8-4.8-17.6-10.8-17.6H494.8c-6,0-10.8,7.8-10.8,17.6v80
	C484,280.5,488.8,288.3,494.8,288.3z"/>
<text transform="matrix(1 0 0 1 783.2091 235.5002)" class="st7 st8">KLE</text>
<path class="st11" d="M469.2,171.4h291.9c6.5,0,11.7-7.5,11.7-16.8V12.9c0-9.3-5.2-16.8-11.7-16.8H469.2c-6.5,0-11.7,7.5-11.7,16.8
	v141.7C457.5,163.7,462.7,171.4,469.2,171.4z"/>
<text transform="matrix(1 0 0 1 783.2098 96)" class="st7 st8">O</text>
</svg>
