<?xml version="1.0" encoding="utf-8"?>
<!-- Generator: Adobe Illustrator 19.0.0, SVG Export Plug-In . SVG Version: 6.00 Build 0)  -->
<svg version="1.1" id="Layer_1" xmlns="http://www.w3.org/2000/svg" xmlns:xlink="http://www.w3.org/1999/xlink" x="0px" y="0px"
	 viewBox="0 -12 791 613" style="enable-background:new 0 -12 791 613;" xml:space="preserve">
<style type="text/css">
	.st0{fill:none;stroke:#000000;stroke-width:2;stroke-miterlimit:10;}
	.st1{fill:none;stroke:#000000;stroke-width:0.5;stroke-linecap:square;stroke-miterlimit:10;}
	.st2{font-family:'CourierNewPSMT';}
	.st3{font-size:20px;}
	.st4{font-family:'SourceCodePro-Regular';}
	.st5{opacity:0.2;fill:#E46C0A;enable-background:new    ;}
</style>
<g>
	<g>
		<path class="st0" d="M357,50.8H12.9v124.4"/>
		<path class="st0" d="M6,175.2h6.9"/>
		<path class="st0" d="M529,236.3H98.9v63.2"/>
		<path class="st0" d="M701.1,586.1h-86V569"/>
		<path class="st0" d="M701.1,142.5h-86v17.1"/>
		<path class="st0" d="M701.1,415.5H357v44.8"/>
		<path class="st0" d="M701.1,176.6h-86v-17.1"/>
		<path class="st0" d="M701.1,74.2h-86V57.2"/>
		<path class="st0" d="M271,412.3h-86v-49.6"/>
		<path class="st0" d="M701.1,347.2h-86v17.1"/>
		<path class="st0" d="M615.1,57.2H443v38.4"/>
		<path class="st0" d="M357,460.3h-86v-48"/>
		<path class="st0" d="M701.1,449.6h-86v17.1"/>
		<path class="st0" d="M184.9,362.7h-86v-63.2"/>
		<path class="st0" d="M701.1,210.7H529v25.6"/>
		<path class="st0" d="M701.1,381.4h-86v-17.1"/>
		<path class="st0" d="M701.1,244.9h-86v17.1"/>
		<path class="st0" d="M529,543.5h-86v-38.4"/>
		<path class="st0" d="M701.1,483.7h-86v-17.1"/>
		<path class="st0" d="M701.1,279h-86v-17.1"/>
		<path class="st0" d="M701.1,552h-86V569"/>
		<path class="st0" d="M98.9,299.5h-86V175.2"/>
		<path class="st0" d="M701.1,40.1h-86v17.1"/>
		<path class="st0" d="M701.1,6H357v44.8"/>
		<path class="st0" d="M615.1,261.9h-86v-25.6"/>
		<path class="st0" d="M701.1,517.9H529v25.6"/>
		<path class="st0" d="M615.1,159.6h-86V134"/>
		<path class="st0" d="M701.1,108.4H529V134"/>
		<path class="st0" d="M615.1,466.7H443v38.4"/>
		<path class="st0" d="M701.1,313.1H184.9v49.6"/>
		<path class="st0" d="M615.1,364.3H271v48"/>
		<path class="st0" d="M615.1,569h-86v-25.6"/>
		<path class="st0" d="M443,505.1h-86v-44.8"/>
		<path class="st0" d="M443,95.6h-86V50.8"/>
		<path class="st0" d="M529,134h-86V95.6"/>
		<path d="M361,50.8c0,2.2-1.8,4-4,4c-2.2,0-4-1.8-4-4c0-2.2,1.8-4,4-4C359.2,46.8,361,48.6,361,50.8z"/>
		<path class="st1" d="M361,50.8c0,2.2-1.8,4-4,4c-2.2,0-4-1.8-4-4c0-2.2,1.8-4,4-4C359.2,46.8,361,48.6,361,50.8z"/>
		<path d="M16.9,175.2c0,2.2-1.8,4-4,4c-2.2,0-4-1.8-4-4c0-2.2,1.8-4,4-4C15.1,171.2,16.9,172.9,16.9,175.2z"/>
		<path class="st1" d="M16.9,175.2c0,2.2-1.8,4-4,4c-2.2,0-4-1.8-4-4c0-2.2,1.8-4,4-4C15.1,171.2,16.9,172.9,16.9,175.2z"/>
		<path d="M533,236.3c0,2.2-1.8,4-4,4s-4-1.8-4-4c0-2.2,1.8-4,4-4S533,234.1,533,236.3z"/>
		<path class="st1" d="M533,236.3c0,2.2-1.8,4-4,4s-4-1.8-4-4c0-2.2,1.8-4,4-4S533,234.1,533,236.3z"/>
		<path d="M705.1,142.5c0,2.2-1.8,4-4,4c-2.2,0-4-1.8-4-4c0-2.2,1.8-4,4-4C703.3,138.5,705.1,140.3,705.1,142.5z"/>
		<path class="st1" d="M705.1,142.5c0,2.2-1.8,4-4,4c-2.2,0-4-1.8-4-4c0-2.2,1.8-4,4-4C703.3,138.5,705.1,140.3,705.1,142.5z"/>
		<path d="M705.1,586.1c0,2.2-1.8,4-4,4c-2.2,0-4-1.8-4-4c0-2.2,1.8-4,4-4C703.3,582.1,705.1,583.9,705.1,586.1z"/>
		<path class="st1" d="M705.1,586.1c0,2.2-1.8,4-4,4c-2.2,0-4-1.8-4-4c0-2.2,1.8-4,4-4C703.3,582.1,705.1,583.9,705.1,586.1z"/>
		<path d="M705.1,415.5c0,2.2-1.8,4-4,4c-2.2,0-4-1.8-4-4c0-2.2,1.8-4,4-4C703.3,411.5,705.1,413.3,705.1,415.5z"/>
		<path class="st1" d="M705.1,415.5c0,2.2-1.8,4-4,4c-2.2,0-4-1.8-4-4c0-2.2,1.8-4,4-4C703.3,411.5,705.1,413.3,705.1,415.5z"/>
		<path d="M705.1,176.6c0,2.2-1.8,4-4,4c-2.2,0-4-1.8-4-4c0-2.2,1.8-4,4-4C703.3,172.6,705.1,174.4,705.1,176.6z"/>
		<path class="st1" d="M705.1,176.6c0,2.2-1.8,4-4,4c-2.2,0-4-1.8-4-4c0-2.2,1.8-4,4-4C703.3,172.6,705.1,174.4,705.1,176.6z"/>
		<path d="M705.1,74.2c0,2.2-1.8,4-4,4c-2.2,0-4-1.8-4-4c0-2.2,1.8-4,4-4C703.3,70.2,705.1,72,705.1,74.2z"/>
		<path class="st1" d="M705.1,74.2c0,2.2-1.8,4-4,4c-2.2,0-4-1.8-4-4c0-2.2,1.8-4,4-4C703.3,70.2,705.1,72,705.1,74.2z"/>
		<path d="M275,412.3c0,2.2-1.8,4-4,4c-2.2,0-4-1.8-4-4s1.8-4,4-4C273.2,408.3,275,410.1,275,412.3z"/>
		<path class="st1" d="M275,412.3c0,2.2-1.8,4-4,4c-2.2,0-4-1.8-4-4s1.8-4,4-4C273.2,408.3,275,410.1,275,412.3z"/>
		<path d="M705.1,347.2c0,2.2-1.8,4-4,4c-2.2,0-4-1.8-4-4s1.8-4,4-4C703.3,343.2,705.1,345,705.1,347.2z"/>
		<path class="st1" d="M705.1,347.2c0,2.2-1.8,4-4,4c-2.2,0-4-1.8-4-4s1.8-4,4-4C703.3,343.2,705.1,345,705.1,347.2z"/>
		<path d="M619.1,57.2c0,2.2-1.8,4-4,4c-2.2,0-4-1.8-4-4c0-2.2,1.8-4,4-4C617.3,53.2,619.1,55,619.1,57.2z"/>
		<path class="st1" d="M619.1,57.2c0,2.2-1.8,4-4,4c-2.2,0-4-1.8-4-4c0-2.2,1.8-4,4-4C617.3,53.2,619.1,55,619.1,57.2z"/>
		<path d="M705.1,449.6c0,2.2-1.8,4-4,4c-2.2,0-4-1.8-4-4c0-2.2,1.8-4,4-4C703.3,445.6,705.1,447.4,705.1,449.6z"/>
		<path class="st1" d="M705.1,449.6c0,2.2-1.8,4-4,4c-2.2,0-4-1.8-4-4c0-2.2,1.8-4,4-4C703.3,445.6,705.1,447.4,705.1,449.6z"/>
		<path d="M361,460.3c0,2.2-1.8,4-4,4c-2.2,0-4-1.8-4-4c0-2.2,1.8-4,4-4C359.2,456.3,361,458.1,361,460.3z"/>
		<path class="st1" d="M361,460.3c0,2.2-1.8,4-4,4c-2.2,0-4-1.8-4-4c0-2.2,1.8-4,4-4C359.2,456.3,361,458.1,361,460.3z"/>
		<path d="M188.9,362.7c0,2.2-1.8,4-4,4c-2.2,0-4-1.8-4-4s1.8-4,4-4C187.1,358.7,188.9,360.5,188.9,362.7z"/>
		<path class="st1" d="M188.9,362.7c0,2.2-1.8,4-4,4c-2.2,0-4-1.8-4-4s1.8-4,4-4C187.1,358.7,188.9,360.5,188.9,362.7z"/>
		<path d="M705.1,210.7c0,2.2-1.8,4-4,4c-2.2,0-4-1.8-4-4c0-2.2,1.8-4,4-4C703.3,206.7,705.1,208.5,705.1,210.7z"/>
		<path class="st1" d="M705.1,210.7c0,2.2-1.8,4-4,4c-2.2,0-4-1.8-4-4c0-2.2,1.8-4,4-4C703.3,206.7,705.1,208.5,705.1,210.7z"/>
		<path d="M705.1,381.4c0,2.2-1.8,4-4,4c-2.2,0-4-1.8-4-4s1.8-4,4-4C703.3,377.4,705.1,379.2,705.1,381.4z"/>
		<path class="st1" d="M705.1,381.4c0,2.2-1.8,4-4,4c-2.2,0-4-1.8-4-4s1.8-4,4-4C703.3,377.4,705.1,379.2,705.1,381.4z"/>
		<path d="M705.1,244.9c0,2.2-1.8,4-4,4c-2.2,0-4-1.8-4-4c0-2.2,1.8-4,4-4C703.3,240.9,705.1,242.7,705.1,244.9z"/>
		<path class="st1" d="M705.1,244.9c0,2.2-1.8,4-4,4c-2.2,0-4-1.8-4-4c0-2.2,1.8-4,4-4C703.3,240.9,705.1,242.7,705.1,244.9z"/>
		<path d="M705.1,483.7c0,2.2-1.8,4-4,4c-2.2,0-4-1.8-4-4c0-2.2,1.8-4,4-4C703.3,479.7,705.1,481.5,705.1,483.7z"/>
		<path class="st1" d="M705.1,483.7c0,2.2-1.8,4-4,4c-2.2,0-4-1.8-4-4c0-2.2,1.8-4,4-4C703.3,479.7,705.1,481.5,705.1,483.7z"/>
		<path d="M533,543.5c0,2.2-1.8,4-4,4s-4-1.8-4-4s1.8-4,4-4S533,541.2,533,543.5z"/>
		<path class="st1" d="M533,543.5c0,2.2-1.8,4-4,4s-4-1.8-4-4s1.8-4,4-4S533,541.2,533,543.5z"/>
		<path d="M705.1,279c0,2.2-1.8,4-4,4c-2.2,0-4-1.8-4-4c0-2.2,1.8-4,4-4C703.3,275,705.1,276.8,705.1,279z"/>
		<path class="st1" d="M705.1,279c0,2.2-1.8,4-4,4c-2.2,0-4-1.8-4-4c0-2.2,1.8-4,4-4C703.3,275,705.1,276.8,705.1,279z"/>
		<path d="M705.1,552c0,2.2-1.8,4-4,4c-2.2,0-4-1.8-4-4c0-2.2,1.8-4,4-4C703.3,548,705.1,549.8,705.1,552z"/>
		<path class="st1" d="M705.1,552c0,2.2-1.8,4-4,4c-2.2,0-4-1.8-4-4c0-2.2,1.8-4,4-4C703.3,548,705.1,549.8,705.1,552z"/>
		<path d="M102.9,299.5c0,2.2-1.8,4-4,4c-2.2,0-4-1.8-4-4c0-2.2,1.8-4,4-4C101.1,295.5,102.9,297.3,102.9,299.5z"/>
		<path class="st1" d="M102.9,299.5c0,2.2-1.8,4-4,4c-2.2,0-4-1.8-4-4c0-2.2,1.8-4,4-4C101.1,295.5,102.9,297.3,102.9,299.5z"/>
		<path d="M705.1,40.1c0,2.2-1.8,4-4,4c-2.2,0-4-1.8-4-4c0-2.2,1.8-4,4-4C703.3,36.1,705.1,37.9,705.1,40.1z"/>
		<path class="st1" d="M705.1,40.1c0,2.2-1.8,4-4,4c-2.2,0-4-1.8-4-4c0-2.2,1.8-4,4-4C703.3,36.1,705.1,37.9,705.1,40.1z"/>
		<path d="M705.1,6c0,2.2-1.8,4-4,4c-2.2,0-4-1.8-4-4s1.8-4,4-4C703.3,2,705.1,3.8,705.1,6z"/>
		<path class="st1" d="M705.1,6c0,2.2-1.8,4-4,4c-2.2,0-4-1.8-4-4s1.8-4,4-4C703.3,2,705.1,3.8,705.1,6z"/>
		<path d="M619.1,261.9c0,2.2-1.8,4-4,4c-2.2,0-4-1.8-4-4c0-2.2,1.8-4,4-4C617.3,257.9,619.1,259.7,619.1,261.9z"/>
		<path class="st1" d="M619.1,261.9c0,2.2-1.8,4-4,4c-2.2,0-4-1.8-4-4c0-2.2,1.8-4,4-4C617.3,257.9,619.1,259.7,619.1,261.9z"/>
		<path d="M705.1,517.9c0,2.2-1.8,4-4,4c-2.2,0-4-1.8-4-4c0-2.2,1.8-4,4-4C703.3,513.9,705.1,515.6,705.1,517.9z"/>
		<path class="st1" d="M705.1,517.9c0,2.2-1.8,4-4,4c-2.2,0-4-1.8-4-4c0-2.2,1.8-4,4-4C703.3,513.9,705.1,515.6,705.1,517.9z"/>
		<path d="M619.1,159.6c0,2.2-1.8,4-4,4c-2.2,0-4-1.8-4-4c0-2.2,1.8-4,4-4C617.3,155.6,619.1,157.3,619.1,159.6z"/>
		<path class="st1" d="M619.1,159.6c0,2.2-1.8,4-4,4c-2.2,0-4-1.8-4-4c0-2.2,1.8-4,4-4C617.3,155.6,619.1,157.3,619.1,159.6z"/>
		<path d="M705.1,108.4c0,2.2-1.8,4-4,4c-2.2,0-4-1.8-4-4c0-2.2,1.8-4,4-4C703.3,104.4,705.1,106.2,705.1,108.4z"/>
		<path class="st1" d="M705.1,108.4c0,2.2-1.8,4-4,4c-2.2,0-4-1.8-4-4c0-2.2,1.8-4,4-4C703.3,104.4,705.1,106.2,705.1,108.4z"/>
		<path d="M619.1,466.7c0,2.2-1.8,4-4,4c-2.2,0-4-1.8-4-4c0-2.2,1.8-4,4-4C617.3,462.7,619.1,464.5,619.1,466.7z"/>
		<path class="st1" d="M619.1,466.7c0,2.2-1.8,4-4,4c-2.2,0-4-1.8-4-4c0-2.2,1.8-4,4-4C617.3,462.7,619.1,464.5,619.1,466.7z"/>
		<path d="M705.1,313.1c0,2.2-1.8,4-4,4c-2.2,0-4-1.8-4-4c0-2.2,1.8-4,4-4C703.3,309.1,705.1,310.9,705.1,313.1z"/>
		<path class="st1" d="M705.1,313.1c0,2.2-1.8,4-4,4c-2.2,0-4-1.8-4-4c0-2.2,1.8-4,4-4C703.3,309.1,705.1,310.9,705.1,313.1z"/>
		<path d="M619.1,364.3c0,2.2-1.8,4-4,4c-2.2,0-4-1.8-4-4c0-2.2,1.8-4,4-4C617.3,360.3,619.1,362.1,619.1,364.3z"/>
		<path class="st1" d="M619.1,364.3c0,2.2-1.8,4-4,4c-2.2,0-4-1.8-4-4c0-2.2,1.8-4,4-4C617.3,360.3,619.1,362.1,619.1,364.3z"/>
		<path d="M619.1,569c0,2.2-1.8,4-4,4c-2.2,0-4-1.8-4-4c0-2.2,1.8-4,4-4C617.3,565,619.1,566.8,619.1,569z"/>
		<path class="st1" d="M619.1,569c0,2.2-1.8,4-4,4c-2.2,0-4-1.8-4-4c0-2.2,1.8-4,4-4C617.3,565,619.1,566.8,619.1,569z"/>
		<path d="M447,505.1c0,2.2-1.8,4-4,4c-2.2,0-4-1.8-4-4c0-2.2,1.8-4,4-4C445.2,501.1,447,502.9,447,505.1z"/>
		<path class="st1" d="M447,505.1c0,2.2-1.8,4-4,4c-2.2,0-4-1.8-4-4c0-2.2,1.8-4,4-4C445.2,501.1,447,502.9,447,505.1z"/>
		<path d="M447,95.6c0,2.2-1.8,4-4,4c-2.2,0-4-1.8-4-4c0-2.2,1.8-4,4-4C445.2,91.6,447,93.4,447,95.6z"/>
		<path class="st1" d="M447,95.6c0,2.2-1.8,4-4,4c-2.2,0-4-1.8-4-4c0-2.2,1.8-4,4-4C445.2,91.6,447,93.4,447,95.6z"/>
		<path d="M533,134c0,2.2-1.8,4-4,4s-4-1.8-4-4c0-2.2,1.8-4,4-4S533,131.8,533,134z"/>
		<path class="st1" d="M533,134c0,2.2-1.8,4-4,4s-4-1.8-4-4c0-2.2,1.8-4,4-4S533,131.8,533,134z"/>
	</g>
	<g transform="matrix(1,0,0,1,706.08,369.8631)">
		<text transform="matrix(1 0 0 1 0 17)" class="st2 st3">dpse</text>
	</g>
	<g transform="matrix(1,0,0,1,706.08,233.3674)">
		<text transform="matrix(1 0 0 1 0 17)" class="st2 st3">dvir</text>
	</g>
	<g transform="matrix(1,0,0,1,706.08,472.2349)">
		<text transform="matrix(1 0 0 1 0 17)" class="st2 st3">dyak+</text>
	</g>
	<g transform="matrix(1,0,0,1,706.08,267.4913)">
		<text transform="matrix(1 0 0 1 0 17)" class="st2 st3">dmoj</text>
	</g>
	<g transform="matrix(1,0,0,1,706.08,130.9957)">
		<text transform="matrix(1 0 0 1 0 17)" class="st2 st3">dsec*</text>
	</g>
	<g transform="matrix(1,0,0,1,706.08,574.6066)">
		<text transform="matrix(1 0 0 1 0 17)" class="st2 st3">dsim+</text>
	</g>
	<g transform="matrix(1,0,0,1,706.08,403.987)">
		<text transform="matrix(1 0 0 1 0 17)" class="st2 st3">dana+</text>
	</g>
	<g transform="matrix(1,0,0,1,706.08,540.4827)">
		<text transform="matrix(1 0 0 1 0 17)" class="st2 st3">dsec+</text>
	</g>
	<g transform="matrix(1,0,0,1,706.08,28.6239)">
		<text transform="matrix(1 0 0 1 0 17)" class="st2 st3">dere*</text>
	</g>
	<g transform="matrix(1,0,0,1,706.08,62.7478)">
		<text transform="matrix(1 0 0 1 0 17)" class="st2 st3">dyak*</text>
	</g>
	<g transform="matrix(1,0,0,1,706.08,165.1196)">
		<text transform="matrix(1 0 0 1 0 17)" class="st2 st3">dsim*</text>
	</g>
	<g transform="matrix(1,0,0,1,706.08,-5.5)">
		<text transform="matrix(1 0 0 1 0 17)" class="st2 st3">dana*</text>
	</g>
	<g transform="matrix(1,0,0,1,706.08,335.7392)">
		<text transform="matrix(1 0 0 1 0 17)" class="st2 st3">dper</text>
	</g>
	<g transform="matrix(1,0,0,1,706.08,506.3588)">
		<text transform="matrix(1 0 0 1 0 17)" class="st2 st3">dmel+</text>
	</g>
	<g transform="matrix(1,0,0,1,706.08,96.8718)">
		<text transform="matrix(1 0 0 1 0 17)" class="st2 st3">dmel*</text>
	</g>
	<g transform="matrix(1,0,0,1,706.08,438.1109)">
		<text transform="matrix(1 0 0 1 0 17)" class="st2 st3">dere+</text>
	</g>
	<g transform="matrix(1,0,0,1,706.08,301.6153)">
		<text transform="matrix(1 0 0 1 0 17)" class="st2 st3">dwil</text>
	</g>
	<g transform="matrix(1,0,0,1,706.08,199.2435)">
		<text transform="matrix(1 0 0 1 0 17)" class="st2 st3">dgri</text>
	</g>
	<g transform="matrix(1,0,0,1,361.981,37.7876)">
		<text transform="matrix(1 0 0 1 0 20)" class="st4 st3">&lt;16&gt;</text>
	</g>
	<g transform="matrix(1,0,0,1,534.0305,530.4517)">
		<text transform="matrix(1 0 0 1 0 20)" class="st4 st3">&lt;6&gt;</text>
	</g>
	<g transform="matrix(1,0,0,1,534.0305,223.3365)">
		<text transform="matrix(1 0 0 1 0 20)" class="st4 st3">&lt;2&gt;</text>
	</g>
	<g transform="matrix(1,0,0,1,103.9067,286.519)">
		<text transform="matrix(1 0 0 1 0 20)" class="st4 st3">&lt;11&gt;</text>
	</g>
	<g transform="matrix(1,0,0,1,620.0553,248.9294)">
		<text transform="matrix(1 0 0 1 0 20)" class="st4 st3">&lt;1&gt;</text>
	</g>
	<g transform="matrix(1,0,0,1,275.9562,399.2879)">
		<text transform="matrix(1 0 0 1 0 20)" class="st4 st3">&lt;9&gt;</text>
	</g>
	<g transform="matrix(1,0,0,1,620.0553,146.5576)">
		<text transform="matrix(1 0 0 1 0 20)" class="st4 st3">&lt;13&gt;</text>
	</g>
	<g transform="matrix(1,0,0,1,620.0553,44.1859)">
		<text transform="matrix(1 0 0 1 0 20)" class="st4 st3">&lt;12&gt;</text>
	</g>
	<g transform="matrix(1,0,0,1,361.981,447.2747)">
		<text transform="matrix(1 0 0 1 0 20)" class="st4 st3">&lt;8&gt;</text>
	</g>
	<g transform="matrix(1,0,0,1,620.0553,453.6729)">
		<text transform="matrix(1 0 0 1 0 20)" class="st4 st3">&lt;4&gt;</text>
	</g>
	<g transform="matrix(1,0,0,1,620.0553,351.3011)">
		<text transform="matrix(1 0 0 1 0 20)" class="st4 st3">&lt;3&gt;</text>
	</g>
	<g transform="matrix(1,0,0,1,620.0553,556.0447)">
		<text transform="matrix(1 0 0 1 0 20)" class="st4 st3">&lt;5&gt;</text>
	</g>
	<g transform="matrix(1,0,0,1,189.9315,349.7016)">
		<text transform="matrix(1 0 0 1 0 20)" class="st4 st3">&lt;10&gt;</text>
	</g>
	<g transform="matrix(1,0,0,1,448.0057,492.0623)">
		<text transform="matrix(1 0 0 1 0 20)" class="st4 st3">&lt;7&gt;</text>
	</g>
	<g transform="matrix(1,0,0,1,534.0305,120.9647)">
		<text transform="matrix(1 0 0 1 0 20)" class="st4 st3">&lt;14&gt;</text>
	</g>
	<g transform="matrix(1,0,0,1,448.0057,82.5753)">
		<text transform="matrix(1 0 0 1 0 20)" class="st4 st3">&lt;15&gt;</text>
	</g>
	<g transform="matrix(1,0,0,1,103.9067,286.519)">
		<text transform="matrix(1 0 0 1 -83 -105.899)" class="st4 st3">&lt;17&gt;</text>
	</g>
</g>
<path class="st5" d="M344,597.3h424.2c9.5,0,17-5.6,17-12.4V412.9c0-6.9-7.6-12.4-17-12.4H344c-9.5,0-17,5.6-17,12.4v171.9
	C327,591.7,334.6,597.3,344,597.3z"/>
<path class="st5" d="M344,190h424.2c9.5,0,17-5.6,17-12.4V5.6c0-6.9-7.6-12.4-17-12.4H344c-9.5,0-17,5.6-17,12.4v171.9
	C327,184.4,334.6,190,344,190z"/>
</svg>
