<?xml version="1.0" encoding="utf-8"?>
<!-- Generator: Adobe Illustrator 19.0.0, SVG Export Plug-In . SVG Version: 6.00 Build 0)  -->
<svg version="1.1" id="Layer_1" xmlns="http://www.w3.org/2000/svg" xmlns:xlink="http://www.w3.org/1999/xlink" x="0px" y="0px"
	 viewBox="0 -10 724 614" style="enable-background:new 0 -10 724 614;" xml:space="preserve">
<style type="text/css">
	.st0{fill:none;stroke:#000000;stroke-width:2;stroke-miterlimit:10;}
	.st1{fill:none;stroke:#000000;stroke-width:0.5;stroke-linecap:square;stroke-miterlimit:10;}
	.st2{font-family:'CourierNewPSMT';}
	.st3{font-size:20px;}
	.st4{font-family:'SourceCodePro-Regular';}
	.st5{opacity:0.2;fill:#E46C0A;enable-background:new    ;}
	.st6{opacity:0.2;fill:#604A7B;enable-background:new    ;}
	.st7{opacity:0.2;fill:#318592;enable-background:new    ;}
	.st8{fill:none;}
</style>
<g>
	<g>
		<path class="st0" d="M600.1,328.3H207.9v68.5"/>
		<path class="st0" d="M502,102.7h-98V54.3"/>
		<path class="st0" d="M600.1,199.4h-98v32.2"/>
		<path class="st0" d="M207.9,396.8h-98v-82.6"/>
		<path class="st0" d="M404,537.8h-98v-72.5"/>
		<path class="st0" d="M404,54.3H11.9v129.9"/>
		<path class="st0" d="M600.1,521.7h-98v-32.2"/>
		<path class="st0" d="M306,465.3h-98v-68.5"/>
		<path class="st0" d="M600.1,70.5h-98v32.2"/>
		<path class="st0" d="M600.1,457.2h-98v32.2"/>
		<path class="st0" d="M600.1,263.9h-98v-32.2"/>
		<path class="st0" d="M502,489.5h-98v48.3"/>
		<path class="st0" d="M600.1,586.2H404v-48.3"/>
		<path class="st0" d="M502,231.6H109.9v82.6"/>
		<path class="st0" d="M600.1,6H404v48.3"/>
		<path class="st0" d="M109.9,314.2h-98V184.3"/>
		<path class="st0" d="M600.1,392.8H306v72.5"/>
		<path class="st0" d="M6,184.3h5.9"/>
		<path class="st0" d="M600.1,134.9h-98v-32.2"/>
		<path d="M604.1,328.3c0,2.2-1.8,4-4,4c-2.2,0-4-1.8-4-4c0-2.2,1.8-4,4-4C602.3,324.3,604.1,326.1,604.1,328.3z"/>
		<path class="st1" d="M604.1,328.3c0,2.2-1.8,4-4,4c-2.2,0-4-1.8-4-4c0-2.2,1.8-4,4-4C602.3,324.3,604.1,326.1,604.1,328.3z"/>
		<path d="M506,102.7c0,2.2-1.8,4-4,4s-4-1.8-4-4c0-2.2,1.8-4,4-4S506,100.5,506,102.7z"/>
		<path class="st1" d="M506,102.7c0,2.2-1.8,4-4,4s-4-1.8-4-4c0-2.2,1.8-4,4-4S506,100.5,506,102.7z"/>
		<path d="M604.1,199.4c0,2.2-1.8,4-4,4c-2.2,0-4-1.8-4-4c0-2.2,1.8-4,4-4C602.3,195.4,604.1,197.2,604.1,199.4z"/>
		<path class="st1" d="M604.1,199.4c0,2.2-1.8,4-4,4c-2.2,0-4-1.8-4-4c0-2.2,1.8-4,4-4C602.3,195.4,604.1,197.2,604.1,199.4z"/>
		<path d="M211.9,396.8c0,2.2-1.8,4-4,4c-2.2,0-4-1.8-4-4s1.8-4,4-4C210.2,392.8,211.9,394.6,211.9,396.8z"/>
		<path class="st1" d="M211.9,396.8c0,2.2-1.8,4-4,4c-2.2,0-4-1.8-4-4s1.8-4,4-4C210.2,392.8,211.9,394.6,211.9,396.8z"/>
		<path d="M408,537.8c0,2.2-1.8,4-4,4c-2.2,0-4-1.8-4-4c0-2.2,1.8-4,4-4C406.2,533.8,408,535.6,408,537.8z"/>
		<path class="st1" d="M408,537.8c0,2.2-1.8,4-4,4c-2.2,0-4-1.8-4-4c0-2.2,1.8-4,4-4C406.2,533.8,408,535.6,408,537.8z"/>
		<path d="M604.1,521.7c0,2.2-1.8,4-4,4c-2.2,0-4-1.8-4-4c0-2.2,1.8-4,4-4C602.3,517.7,604.1,519.5,604.1,521.7z"/>
		<path class="st1" d="M604.1,521.7c0,2.2-1.8,4-4,4c-2.2,0-4-1.8-4-4c0-2.2,1.8-4,4-4C602.3,517.7,604.1,519.5,604.1,521.7z"/>
		<path d="M408,54.3c0,2.2-1.8,4-4,4c-2.2,0-4-1.8-4-4c0-2.2,1.8-4,4-4C406.2,50.3,408,52.1,408,54.3z"/>
		<path class="st1" d="M408,54.3c0,2.2-1.8,4-4,4c-2.2,0-4-1.8-4-4c0-2.2,1.8-4,4-4C406.2,50.3,408,52.1,408,54.3z"/>
		<path d="M604.1,70.5c0,2.2-1.8,4-4,4c-2.2,0-4-1.8-4-4c0-2.2,1.8-4,4-4C602.3,66.5,604.1,68.3,604.1,70.5z"/>
		<path class="st1" d="M604.1,70.5c0,2.2-1.8,4-4,4c-2.2,0-4-1.8-4-4c0-2.2,1.8-4,4-4C602.3,66.5,604.1,68.3,604.1,70.5z"/>
		<path d="M310,465.3c0,2.2-1.8,4-4,4c-2.2,0-4-1.8-4-4c0-2.2,1.8-4,4-4C308.2,461.3,310,463.1,310,465.3z"/>
		<path class="st1" d="M310,465.3c0,2.2-1.8,4-4,4c-2.2,0-4-1.8-4-4c0-2.2,1.8-4,4-4C308.2,461.3,310,463.1,310,465.3z"/>
		<path d="M604.1,263.9c0,2.2-1.8,4-4,4c-2.2,0-4-1.8-4-4c0-2.2,1.8-4,4-4C602.3,259.9,604.1,261.6,604.1,263.9z"/>
		<path class="st1" d="M604.1,263.9c0,2.2-1.8,4-4,4c-2.2,0-4-1.8-4-4c0-2.2,1.8-4,4-4C602.3,259.9,604.1,261.6,604.1,263.9z"/>
		<path d="M604.1,457.2c0,2.2-1.8,4-4,4c-2.2,0-4-1.8-4-4c0-2.2,1.8-4,4-4C602.3,453.2,604.1,455,604.1,457.2z"/>
		<path class="st1" d="M604.1,457.2c0,2.2-1.8,4-4,4c-2.2,0-4-1.8-4-4c0-2.2,1.8-4,4-4C602.3,453.2,604.1,455,604.1,457.2z"/>
		<path d="M604.1,586.2c0,2.2-1.8,4-4,4c-2.2,0-4-1.8-4-4c0-2.2,1.8-4,4-4C602.3,582.2,604.1,584,604.1,586.2z"/>
		<path class="st1" d="M604.1,586.2c0,2.2-1.8,4-4,4c-2.2,0-4-1.8-4-4c0-2.2,1.8-4,4-4C602.3,582.2,604.1,584,604.1,586.2z"/>
		<path d="M506,489.5c0,2.2-1.8,4-4,4s-4-1.8-4-4c0-2.2,1.8-4,4-4S506,487.3,506,489.5z"/>
		<path class="st1" d="M506,489.5c0,2.2-1.8,4-4,4s-4-1.8-4-4c0-2.2,1.8-4,4-4S506,487.3,506,489.5z"/>
		<path d="M604.1,6c0,2.2-1.8,4-4,4c-2.2,0-4-1.8-4-4s1.8-4,4-4C602.3,2,604.1,3.8,604.1,6z"/>
		<path class="st1" d="M604.1,6c0,2.2-1.8,4-4,4c-2.2,0-4-1.8-4-4s1.8-4,4-4C602.3,2,604.1,3.8,604.1,6z"/>
		<path d="M506,231.6c0,2.2-1.8,4-4,4s-4-1.8-4-4c0-2.2,1.8-4,4-4S506,229.4,506,231.6z"/>
		<path class="st1" d="M506,231.6c0,2.2-1.8,4-4,4s-4-1.8-4-4c0-2.2,1.8-4,4-4S506,229.4,506,231.6z"/>
		<path d="M604.1,392.8c0,2.2-1.8,4-4,4c-2.2,0-4-1.8-4-4c0-2.2,1.8-4,4-4C602.3,388.8,604.1,390.6,604.1,392.8z"/>
		<path class="st1" d="M604.1,392.8c0,2.2-1.8,4-4,4c-2.2,0-4-1.8-4-4c0-2.2,1.8-4,4-4C602.3,388.8,604.1,390.6,604.1,392.8z"/>
		<path d="M113.9,314.2c0,2.2-1.8,4-4,4c-2.2,0-4-1.8-4-4c0-2.2,1.8-4,4-4C112.1,310.2,113.9,312,113.9,314.2z"/>
		<path class="st1" d="M113.9,314.2c0,2.2-1.8,4-4,4c-2.2,0-4-1.8-4-4c0-2.2,1.8-4,4-4C112.1,310.2,113.9,312,113.9,314.2z"/>
		<path d="M15.9,184.3c0,2.2-1.8,4-4,4c-2.2,0-4-1.8-4-4c0-2.2,1.8-4,4-4C14.1,180.3,15.9,182.1,15.9,184.3z"/>
		<path class="st1" d="M15.9,184.3c0,2.2-1.8,4-4,4c-2.2,0-4-1.8-4-4c0-2.2,1.8-4,4-4C14.1,180.3,15.9,182.1,15.9,184.3z"/>
		<path d="M604.1,134.9c0,2.2-1.8,4-4,4c-2.2,0-4-1.8-4-4c0-2.2,1.8-4,4-4C602.3,130.9,604.1,132.7,604.1,134.9z"/>
		<path class="st1" d="M604.1,134.9c0,2.2-1.8,4-4,4c-2.2,0-4-1.8-4-4c0-2.2,1.8-4,4-4C602.3,130.9,604.1,132.7,604.1,134.9z"/>
	</g>
	<g transform="matrix(1,0,0,1,605.06,316.8148)">
		<text transform="matrix(1 0 0 1 0 17)" class="st2 st3">BDIS</text>
	</g>
	<g transform="matrix(1,0,0,1,605.06,574.6667)">
		<text transform="matrix(1 0 0 1 0 17)" class="st2 st3">ATAU</text>
	</g>
	<g transform="matrix(1,0,0,1,605.06,187.8889)">
		<text transform="matrix(1 0 0 1 0 17)" class="st2 st3">OSAT</text>
	</g>
	<g transform="matrix(1,0,0,1,605.06,510.2037)">
		<text transform="matrix(1 0 0 1 0 17)" class="st2 st3">TAES</text>
	</g>
	<g transform="matrix(1,0,0,1,605.06,-5.5)">
		<text transform="matrix(1 0 0 1 0 17)" class="st2 st3">SITA</text>
	</g>
	<g transform="matrix(1,0,0,1,605.06,58.963)">
		<text transform="matrix(1 0 0 1 0 17)" class="st2 st3">ZMAY</text>
	</g>
	<g transform="matrix(1,0,0,1,605.06,381.2778)">
		<text transform="matrix(1 0 0 1 0 17)" class="st2 st3">HVUL</text>
	</g>
	<g transform="matrix(1,0,0,1,605.06,123.4259)">
		<text transform="matrix(1 0 0 1 0 17)" class="st2 st3">SBIC</text>
	</g>
	<g transform="matrix(1,0,0,1,605.06,252.3519)">
		<text transform="matrix(1 0 0 1 0 17)" class="st2 st3">LPER</text>
	</g>
	<g transform="matrix(1,0,0,1,605.06,445.7407)">
		<text transform="matrix(1 0 0 1 0 17)" class="st2 st3">TURA</text>
	</g>
	<g transform="matrix(1,0,0,1,507.0303,89.6944)">
		<text transform="matrix(1 0 0 1 0 20)" class="st4 st3">&lt;7&gt;</text>
	</g>
	<g transform="matrix(1,0,0,1,507.0303,476.4722)">
		<text transform="matrix(1 0 0 1 0 20)" class="st4 st3">&lt;1&gt;</text>
	</g>
	<g transform="matrix(1,0,0,1,212.9412,383.8067)">
		<text transform="matrix(1 0 0 1 0 20)" class="st4 st3">&lt;4&gt;</text>
	</g>
	<g transform="matrix(1,0,0,1,409.0006,524.8194)">
		<text transform="matrix(1 0 0 1 0 20)" class="st4 st3">&lt;2&gt;</text>
	</g>
	<g transform="matrix(1,0,0,1,409.0006,41.3472)">
		<text transform="matrix(1 0 0 1 0 20)" class="st4 st3">&lt;8&gt;</text>
	</g>
	<g transform="matrix(1,0,0,1,507.0303,218.6204)">
		<text transform="matrix(1 0 0 1 0 20)" class="st4 st3">&lt;5&gt;</text>
	</g>
	<g transform="matrix(1,0,0,1,310.9709,452.2986)">
		<text transform="matrix(1 0 0 1 0 20)" class="st4 st3">&lt;3&gt;</text>
	</g>
	<g transform="matrix(1,0,0,1,114.9115,301.2135)">
		<text transform="matrix(1 0 0 1 0 20)" class="st4 st3">&lt;6&gt;</text>
	</g>
</g>
<path class="st5" d="M541.5,534.6h146.7c3.3,0,5.9-0.9,5.9-1.8v-25.2c0-1.1-2.7-1.8-5.9-1.8H541.5c-3.3,0-5.9,0.9-5.9,1.8v25.2
	C535.7,533.7,538.3,534.6,541.5,534.6z"/>
<path class="st6" d="M541.5,471.6h146.7c3.3,0,5.9-0.9,5.9-1.8v-25.2c0-1.1-2.7-1.8-5.9-1.8H541.5c-3.3,0-5.9,0.9-5.9,1.8v25.2
	C535.7,470.9,538.3,471.6,541.5,471.6z"/>
<path class="st7" d="M541.7,600.6h146.7c3.3,0,5.9-0.9,5.9-1.8v-25.2c0-1.1-2.7-1.8-5.9-1.8H541.7c-3.3,0-5.9,0.9-5.9,1.8v25.2
	C535.9,599.9,538.5,600.6,541.7,600.6z"/>
<rect x="655.4" y="513.9" class="st8" width="37.6" height="18.5"/>
<text transform="matrix(1 0 0 1 655.3555 526.1831)" class="st2 st3">(A)</text>
</svg>
