<?xml version="1.0" encoding="utf-8"?>
<!-- Generator: Adobe Illustrator 19.0.0, SVG Export Plug-In . SVG Version: 6.00 Build 0)  -->
<svg version="1.1" id="Layer_1" xmlns="http://www.w3.org/2000/svg" xmlns:xlink="http://www.w3.org/1999/xlink" x="0px" y="0px"
	 viewBox="0 -7 704 617" style="enable-background:new 0 -7 704 617;" xml:space="preserve">
<style type="text/css">
	.st0{fill:none;stroke:#000000;stroke-width:2;stroke-miterlimit:10;}
	.st1{fill:none;stroke:#000000;stroke-width:0.5;stroke-linecap:square;stroke-miterlimit:10;}
	.st2{font-family:'CourierNewPSMT';}
	.st3{font-size:20px;}
	.st4{font-family:'SourceCodePro-Regular';}
	.st5{opacity:0.2;fill:#E46C0A;enable-background:new    ;}
	.st6{opacity:0.2;fill:#604A7B;enable-background:new    ;}
	.st7{opacity:0.2;fill:#318592;enable-background:new    ;}
</style>
<g>
	<g>
		<path class="st0" d="M258.3,408.5h-82.2v-56.2"/>
		<path class="st0" d="M587.1,296.1H176.1v56.2"/>
		<path class="st0" d="M504.9,93h-82.2V49.5"/>
		<path class="st0" d="M422.7,513.6h-82.2v-50.8"/>
		<path class="st0" d="M6,165.1h5.8"/>
		<path class="st0" d="M422.7,49.5H11.8v115.6"/>
		<path class="st0" d="M587.1,6H422.7v43.5"/>
		<path class="st0" d="M587.1,586.1h-82.2v-29"/>
		<path class="st0" d="M587.1,180h-82.2v29"/>
		<path class="st0" d="M587.1,122h-82.2V93"/>
		<path class="st0" d="M93.9,280.7H11.8V165.1"/>
		<path class="st0" d="M176.1,352.3H93.9v-71.6"/>
		<path class="st0" d="M340.5,462.8h-82.2v-54.4"/>
		<path class="st0" d="M587.1,470.1H422.7v43.5"/>
		<path class="st0" d="M504.9,209H93.9v71.6"/>
		<path class="st0" d="M587.1,238.1h-82.2v-29"/>
		<path class="st0" d="M587.1,354.1H258.3v54.4"/>
		<path class="st0" d="M504.9,557.1h-82.2v-43.5"/>
		<path class="st0" d="M587.1,64h-82.2v29"/>
		<path class="st0" d="M587.1,412.1H340.5v50.8"/>
		<path class="st0" d="M587.1,528.1h-82.2v29"/>
		<path d="M591.1,296.1c0,2.2-1.8,4-4,4c-2.2,0-4-1.8-4-4s1.8-4,4-4C589.3,292.1,591.1,293.9,591.1,296.1z"/>
		<path class="st1" d="M591.1,296.1c0,2.2-1.8,4-4,4c-2.2,0-4-1.8-4-4s1.8-4,4-4C589.3,292.1,591.1,293.9,591.1,296.1z"/>
		<path d="M262.3,408.5c0,2.2-1.8,4-4,4c-2.2,0-4-1.8-4-4c0-2.2,1.8-4,4-4C260.5,404.5,262.3,406.3,262.3,408.5z"/>
		<path class="st1" d="M262.3,408.5c0,2.2-1.8,4-4,4c-2.2,0-4-1.8-4-4c0-2.2,1.8-4,4-4C260.5,404.5,262.3,406.3,262.3,408.5z"/>
		<path d="M508.9,93c0,2.2-1.8,4-4,4c-2.2,0-4-1.8-4-4c0-2.2,1.8-4,4-4C507.1,89,508.9,90.8,508.9,93z"/>
		<path class="st1" d="M508.9,93c0,2.2-1.8,4-4,4c-2.2,0-4-1.8-4-4c0-2.2,1.8-4,4-4C507.1,89,508.9,90.8,508.9,93z"/>
		<path d="M426.7,513.6c0,2.2-1.8,4-4,4c-2.2,0-4-1.8-4-4c0-2.2,1.8-4,4-4C424.9,509.6,426.7,511.4,426.7,513.6z"/>
		<path class="st1" d="M426.7,513.6c0,2.2-1.8,4-4,4c-2.2,0-4-1.8-4-4c0-2.2,1.8-4,4-4C424.9,509.6,426.7,511.4,426.7,513.6z"/>
		<path d="M15.8,165.1c0,2.2-1.8,4-4,4c-2.2,0-4-1.8-4-4c0-2.2,1.8-4,4-4C14,161.1,15.8,162.9,15.8,165.1z"/>
		<path class="st1" d="M15.8,165.1c0,2.2-1.8,4-4,4c-2.2,0-4-1.8-4-4c0-2.2,1.8-4,4-4C14,161.1,15.8,162.9,15.8,165.1z"/>
		<path d="M426.7,49.5c0,2.2-1.8,4-4,4c-2.2,0-4-1.8-4-4c0-2.2,1.8-4,4-4C424.9,45.5,426.7,47.3,426.7,49.5z"/>
		<path class="st1" d="M426.7,49.5c0,2.2-1.8,4-4,4c-2.2,0-4-1.8-4-4c0-2.2,1.8-4,4-4C424.9,45.5,426.7,47.3,426.7,49.5z"/>
		<path d="M591.1,6c0,2.2-1.8,4-4,4c-2.2,0-4-1.8-4-4s1.8-4,4-4C589.3,2,591.1,3.8,591.1,6z"/>
		<path class="st1" d="M591.1,6c0,2.2-1.8,4-4,4c-2.2,0-4-1.8-4-4s1.8-4,4-4C589.3,2,591.1,3.8,591.1,6z"/>
		<path d="M591.1,586.1c0,2.2-1.8,4-4,4c-2.2,0-4-1.8-4-4s1.8-4,4-4C589.3,582.1,591.1,583.9,591.1,586.1z"/>
		<path class="st1" d="M591.1,586.1c0,2.2-1.8,4-4,4c-2.2,0-4-1.8-4-4s1.8-4,4-4C589.3,582.1,591.1,583.9,591.1,586.1z"/>
		<path d="M591.1,122c0,2.2-1.8,4-4,4c-2.2,0-4-1.8-4-4s1.8-4,4-4C589.3,118,591.1,119.8,591.1,122z"/>
		<path class="st1" d="M591.1,122c0,2.2-1.8,4-4,4c-2.2,0-4-1.8-4-4s1.8-4,4-4C589.3,118,591.1,119.8,591.1,122z"/>
		<path d="M591.1,180c0,2.2-1.8,4-4,4c-2.2,0-4-1.8-4-4c0-2.2,1.8-4,4-4C589.3,176,591.1,177.8,591.1,180z"/>
		<path class="st1" d="M591.1,180c0,2.2-1.8,4-4,4c-2.2,0-4-1.8-4-4c0-2.2,1.8-4,4-4C589.3,176,591.1,177.8,591.1,180z"/>
		<path d="M97.9,280.7c0,2.2-1.8,4-4,4c-2.2,0-4-1.8-4-4c0-2.2,1.8-4,4-4C96.2,276.7,97.9,278.4,97.9,280.7z"/>
		<path class="st1" d="M97.9,280.7c0,2.2-1.8,4-4,4c-2.2,0-4-1.8-4-4c0-2.2,1.8-4,4-4C96.2,276.7,97.9,278.4,97.9,280.7z"/>
		<path d="M180.1,352.3c0,2.2-1.8,4-4,4c-2.2,0-4-1.8-4-4c0-2.2,1.8-4,4-4C178.3,348.3,180.1,350.1,180.1,352.3z"/>
		<path class="st1" d="M180.1,352.3c0,2.2-1.8,4-4,4c-2.2,0-4-1.8-4-4c0-2.2,1.8-4,4-4C178.3,348.3,180.1,350.1,180.1,352.3z"/>
		<path d="M344.5,462.8c0,2.2-1.8,4-4,4c-2.2,0-4-1.8-4-4c0-2.2,1.8-4,4-4C342.7,458.8,344.5,460.6,344.5,462.8z"/>
		<path class="st1" d="M344.5,462.8c0,2.2-1.8,4-4,4c-2.2,0-4-1.8-4-4c0-2.2,1.8-4,4-4C342.7,458.8,344.5,460.6,344.5,462.8z"/>
		<path d="M591.1,470.1c0,2.2-1.8,4-4,4c-2.2,0-4-1.8-4-4s1.8-4,4-4C589.3,466.1,591.1,467.9,591.1,470.1z"/>
		<path class="st1" d="M591.1,470.1c0,2.2-1.8,4-4,4c-2.2,0-4-1.8-4-4s1.8-4,4-4C589.3,466.1,591.1,467.9,591.1,470.1z"/>
		<path d="M591.1,238.1c0,2.2-1.8,4-4,4c-2.2,0-4-1.8-4-4c0-2.2,1.8-4,4-4C589.3,234.1,591.1,235.8,591.1,238.1z"/>
		<path class="st1" d="M591.1,238.1c0,2.2-1.8,4-4,4c-2.2,0-4-1.8-4-4c0-2.2,1.8-4,4-4C589.3,234.1,591.1,235.8,591.1,238.1z"/>
		<path d="M508.9,209c0,2.2-1.8,4-4,4c-2.2,0-4-1.8-4-4c0-2.2,1.8-4,4-4C507.1,205,508.9,206.8,508.9,209z"/>
		<path class="st1" d="M508.9,209c0,2.2-1.8,4-4,4c-2.2,0-4-1.8-4-4c0-2.2,1.8-4,4-4C507.1,205,508.9,206.8,508.9,209z"/>
		<path d="M591.1,354.1c0,2.2-1.8,4-4,4c-2.2,0-4-1.8-4-4c0-2.2,1.8-4,4-4C589.3,350.1,591.1,351.9,591.1,354.1z"/>
		<path class="st1" d="M591.1,354.1c0,2.2-1.8,4-4,4c-2.2,0-4-1.8-4-4c0-2.2,1.8-4,4-4C589.3,350.1,591.1,351.9,591.1,354.1z"/>
		<path d="M591.1,64c0,2.2-1.8,4-4,4c-2.2,0-4-1.8-4-4c0-2.2,1.8-4,4-4C589.3,60,591.1,61.8,591.1,64z"/>
		<path class="st1" d="M591.1,64c0,2.2-1.8,4-4,4c-2.2,0-4-1.8-4-4c0-2.2,1.8-4,4-4C589.3,60,591.1,61.8,591.1,64z"/>
		<path d="M508.9,557.1c0,2.2-1.8,4-4,4c-2.2,0-4-1.8-4-4c0-2.2,1.8-4,4-4C507.1,553.1,508.9,554.9,508.9,557.1z"/>
		<path class="st1" d="M508.9,557.1c0,2.2-1.8,4-4,4c-2.2,0-4-1.8-4-4c0-2.2,1.8-4,4-4C507.1,553.1,508.9,554.9,508.9,557.1z"/>
		<path d="M591.1,412.1c0,2.2-1.8,4-4,4c-2.2,0-4-1.8-4-4s1.8-4,4-4C589.3,408.1,591.1,409.9,591.1,412.1z"/>
		<path class="st1" d="M591.1,412.1c0,2.2-1.8,4-4,4c-2.2,0-4-1.8-4-4s1.8-4,4-4C589.3,408.1,591.1,409.9,591.1,412.1z"/>
		<path d="M591.1,528.1c0,2.2-1.8,4-4,4c-2.2,0-4-1.8-4-4c0-2.2,1.8-4,4-4C589.3,524.1,591.1,525.9,591.1,528.1z"/>
		<path class="st1" d="M591.1,528.1c0,2.2-1.8,4-4,4c-2.2,0-4-1.8-4-4c0-2.2,1.8-4,4-4C589.3,524.1,591.1,525.9,591.1,528.1z"/>
	</g>
	<g transform="matrix(1,0,0,1,592.07,284.5625)">
		<text transform="matrix(1 0 0 1 0 17)" class="st2 st3">BDIS</text>
	</g>
	<g transform="matrix(1,0,0,1,592.07,110.525)">
		<text transform="matrix(1 0 0 1 0 17)" class="st2 st3">SBIC</text>
	</g>
	<g transform="matrix(1,0,0,1,592.07,168.5375)">
		<text transform="matrix(1 0 0 1 0 17)" class="st2 st3">OSAT</text>
	</g>
	<g transform="matrix(1,0,0,1,592.07,458.6)">
		<text transform="matrix(1 0 0 1 0 17)" class="st2 st3">TURA</text>
	</g>
	<g transform="matrix(1,0,0,1,592.07,226.55)">
		<text transform="matrix(1 0 0 1 0 17)" class="st2 st3">LPER</text>
	</g>
	<g transform="matrix(1,0,0,1,592.07,-5.5)">
		<text transform="matrix(1 0 0 1 0 17)" class="st2 st3">SITA</text>
	</g>
	<g transform="matrix(1,0,0,1,592.07,342.575)">
		<text transform="matrix(1 0 0 1 0 17)" class="st2 st3">HVUL</text>
	</g>
	<g transform="matrix(1,0,0,1,592.07,52.5125)">
		<text transform="matrix(1 0 0 1 0 17)" class="st2 st3">ZMAY</text>
	</g>
	<g transform="matrix(1,0,0,1,592.07,574.625)">
		<text transform="matrix(1 0 0 1 0 17)" class="st2 st3">TAES+</text>
	</g>
	<g transform="matrix(1,0,0,1,592.07,400.5875)">
		<text transform="matrix(1 0 0 1 0 17)" class="st2 st3">TAES*</text>
	</g>
	<g transform="matrix(1,0,0,1,592.07,516.6125)">
		<text transform="matrix(1 0 0 1 0 17)" class="st2 st3">ATAU</text>
	</g>
	<g transform="matrix(1,0,0,1,263.3175,395.4617)">
		<text transform="matrix(1 0 0 1 0 20)" class="st4 st3">&lt;4&gt;</text>
	</g>
	<g transform="matrix(1,0,0,1,509.8819,80.0188)">
		<text transform="matrix(1 0 0 1 0 20)" class="st4 st3">&lt;8&gt;</text>
	</g>
	<g transform="matrix(1,0,0,1,427.6938,500.6094)">
		<text transform="matrix(1 0 0 1 0 20)" class="st4 st3">&lt;2&gt;</text>
	</g>
	<g transform="matrix(1,0,0,1,98.9413,267.6529)">
		<text transform="matrix(1 0 0 1 0 20)" class="st4 st3">&lt;7&gt;</text>
	</g>
	<g transform="matrix(1,0,0,1,345.5056,449.8484)">
		<text transform="matrix(1 0 0 1 0 20)" class="st4 st3">&lt;3&gt;</text>
	</g>
	<g transform="matrix(1,0,0,1,181.1294,339.2621)">
		<text transform="matrix(1 0 0 1 0 20)" class="st4 st3">&lt;5&gt;</text>
	</g>
	<g transform="matrix(1,0,0,1,427.6938,36.5094)">
		<text transform="matrix(1 0 0 1 0 20)" class="st4 st3">&lt;9&gt;</text>
	</g>
	<g transform="matrix(1,0,0,1,509.8819,196.0438)">
		<text transform="matrix(1 0 0 1 0 20)" class="st4 st3">&lt;6&gt;</text>
	</g>
	<g transform="matrix(1,0,0,1,509.8819,544.1188)">
		<text transform="matrix(1 0 0 1 0 20)" class="st4 st3">&lt;1&gt;</text>
	</g>
</g>
<path class="st5" d="M543.1,426.5h146.7c3.3,0,5.9-0.9,5.9-1.8v-25.2c0-1.1-2.7-1.8-5.9-1.8H543.1c-3.3,0-5.9,0.9-5.9,1.8v25.2
	C537.3,425.6,539.9,426.5,543.1,426.5z"/>
<path class="st6" d="M543.1,484.2h146.7c3.3,0,5.9-0.9,5.9-1.8v-25.2c0-1.1-2.7-1.8-5.9-1.8H543.1c-3.3,0-5.9,0.9-5.9,1.8v25.2
	C537.3,483.5,539.9,484.2,543.1,484.2z"/>
<path class="st7" d="M543.1,541.1h146.7c3.3,0,5.9-0.9,5.9-1.8v-25.2c0-1.1-2.7-1.8-5.9-1.8H543.1c-3.3,0-5.9,0.9-5.9,1.8v25.2
	C537.3,540.4,539.9,541.1,543.1,541.1z"/>
<text transform="matrix(1 0 0 1 657.9908 417.0706)" class="st2 st3">(B)</text>
<path class="st5" d="M542.9,598.9h146.7c3.3,0,5.9-0.9,5.9-1.8v-25.2c0-1.1-2.7-1.8-5.9-1.8H542.9c-3.3,0-5.9,0.9-5.9,1.8v25.2
	C537.1,598,539.7,598.9,542.9,598.9z"/>
<text transform="matrix(1 0 0 1 658.9908 591.0551)" class="st2 st3">(D)</text>
</svg>
