<?xml version="1.0" encoding="utf-8"?>
<!-- Generator: Adobe Illustrator 19.0.0, SVG Export Plug-In . SVG Version: 6.00 Build 0)  -->
<svg version="1.1" id="Layer_1" xmlns="http://www.w3.org/2000/svg" xmlns:xlink="http://www.w3.org/1999/xlink" x="0px" y="0px"
	 viewBox="0 -9 847 621" style="enable-background:new 0 -9 847 621;" xml:space="preserve">
<style type="text/css">
	.st0{fill:none;stroke:#000000;stroke-width:2;stroke-miterlimit:10;}
	.st1{fill:none;stroke:#000000;stroke-width:0.5;stroke-linecap:square;stroke-miterlimit:10;}
	.st2{font-family:'CourierNewPSMT';}
	.st3{font-size:20px;}
	.st4{font-family:'SourceCodePro-Regular';}
	.st5{font-size:16px;}
	.st6{opacity:0.2;fill:#E46C0A;enable-background:new    ;}
	.st7{font-family:'ArialMT';}
	.st8{font-size:30px;}
	.st9{opacity:0.2;fill:#31859C;enable-background:new    ;}
	.st10{opacity:0.2;fill:#604A7B;enable-background:new    ;}
	.st11{opacity:0.2;fill:#3D3D5C;enable-background:new    ;}
</style>
<g>
	<g>
		<path class="st0" d="M448.3,515.1h-54.5v-48.4"/>
		<path class="st0" d="M666.1,522.4h-54.5v8.3"/>
		<path class="st0" d="M666.1,539h-54.5v-8.3"/>
		<path class="st0" d="M611.7,264.2h-54.5v-16.7"/>
		<path class="st0" d="M666.1,56H502.7v14.6"/>
		<path class="st0" d="M666.1,89.3h-54.5v8.3"/>
		<path class="st0" d="M502.7,70.5H121.5v60.3"/>
		<path class="st0" d="M666.1,172.6H557.2v12.5"/>
		<path class="st0" d="M666.1,355.8h-54.5v-8.3"/>
		<path class="st0" d="M666.1,372.5h-54.5v8.3"/>
		<path class="st0" d="M666.1,39.3h-54.5V31"/>
		<path class="st0" d="M666.1,305.8h-54.5v-8.3"/>
		<path class="st0" d="M666.1,472.4h-54.5v-8.3"/>
		<path class="st0" d="M230.4,259.6h-54.5v-68.5"/>
		<path class="st0" d="M611.7,530.7H502.7v18.7"/>
		<path class="st0" d="M666.1,155.9h-54.5v-8.3"/>
		<path class="st0" d="M666.1,255.9h-54.5v8.3"/>
		<path class="st0" d="M666.1,122.6H175.9v68.5"/>
		<path class="st0" d="M666.1,505.7h-54.5v-8.3"/>
		<path class="st0" d="M666.1,189.2h-54.5v8.3"/>
		<path class="st0" d="M557.2,247.5H448.3v34.4"/>
		<path class="st0" d="M611.7,297.5H502.7v18.7"/>
		<path class="st0" d="M666.1,22.7h-54.5V31"/>
		<path class="st0" d="M666.1,405.8H557.2v12.5"/>
		<path class="st0" d="M666.1,272.5h-54.5v-8.3"/>
		<path class="st0" d="M557.2,85.1h-54.5V70.5"/>
		<path class="st0" d="M611.7,230.9h-54.5v16.7"/>
		<path class="st0" d="M611.7,430.8h-54.5v-12.5"/>
		<path class="st0" d="M666.1,339.1h-54.5v8.3"/>
		<path class="st0" d="M611.7,464.1h-54.5v16.7"/>
		<path class="st0" d="M611.7,97.6h-54.5V85.1"/>
		<path class="st0" d="M666.1,289.2h-54.5v8.3"/>
		<path class="st0" d="M557.2,418.3H393.8v48.4"/>
		<path class="st0" d="M611.7,197.6h-54.5v-12.5"/>
		<path class="st0" d="M666.1,589h-54.5v-8.3"/>
		<path class="st0" d="M557.2,185.1h-54.5v-18.7"/>
		<path class="st0" d="M666.1,555.7H557.2v12.5"/>
		<path class="st0" d="M339.3,423.7h-54.5v-70.9"/>
		<path class="st0" d="M393.8,466.7h-54.5v-42.9"/>
		<path class="st0" d="M67,80.9H12.5V43.5"/>
		<path class="st0" d="M666.1,239.2h-54.5v-8.3"/>
		<path class="st0" d="M666.1,205.9h-54.5v-8.3"/>
		<path class="st0" d="M666.1,105.9h-54.5v-8.3"/>
		<path class="st0" d="M666.1,489.1h-54.5v8.3"/>
		<path class="st0" d="M666.1,422.4h-54.5v8.3"/>
		<path class="st0" d="M611.7,31H67v49.9"/>
		<path class="st0" d="M666.1,572.3h-54.5v8.3"/>
		<path class="st0" d="M666.1,455.7h-54.5v8.3"/>
		<path class="st0" d="M284.9,352.8h-54.5v-93.2"/>
		<path class="st0" d="M557.2,480.7H448.3v34.4"/>
		<path class="st0" d="M502.7,316.2h-54.5v-34.4"/>
		<path class="st0" d="M666.1,72.6H557.2v12.5"/>
		<path class="st0" d="M175.9,191.1h-54.5v-60.3"/>
		<path class="st0" d="M666.1,389.1h-54.5v-8.3"/>
		<path class="st0" d="M666.1,439.1h-54.5v-8.3"/>
		<path class="st0" d="M611.7,347.5h-54.5V335"/>
		<path class="st0" d="M666.1,222.5h-54.5v8.3"/>
		<path class="st0" d="M611.7,380.8H339.3v42.9"/>
		<path class="st0" d="M557.2,568.2h-54.5v-18.7"/>
		<path class="st0" d="M557.2,335h-54.5v-18.7"/>
		<path class="st0" d="M502.7,549.4h-54.5v-34.4"/>
		<path class="st0" d="M666.1,322.5H557.2V335"/>
		<path class="st0" d="M611.7,147.6H502.7v18.7"/>
		<path class="st0" d="M666.1,6H12.5v37.5"/>
		<path class="st0" d="M502.7,166.3H230.4v93.2"/>
		<path class="st0" d="M666.1,139.3h-54.5v8.3"/>
		<path class="st0" d="M6,43.5h6.5"/>
		<path class="st0" d="M121.5,130.8H67V80.9"/>
		<path class="st0" d="M448.3,281.9H284.9v70.9"/>
		<path class="st0" d="M611.7,580.7h-54.5v-12.5"/>
		<path class="st0" d="M611.7,497.4h-54.5v-16.7"/>
		<path d="M669.1,522.4c0,1.7-1.3,3-3,3s-3-1.3-3-3c0-1.7,1.3-3,3-3S669.1,520.7,669.1,522.4z"/>
		<path class="st1" d="M669.1,522.4c0,1.7-1.3,3-3,3s-3-1.3-3-3c0-1.7,1.3-3,3-3S669.1,520.7,669.1,522.4z"/>
		<path d="M451.3,515.1c0,1.7-1.3,3-3,3c-1.7,0-3-1.3-3-3c0-1.7,1.3-3,3-3C449.9,512.1,451.3,513.4,451.3,515.1z"/>
		<path class="st1" d="M451.3,515.1c0,1.7-1.3,3-3,3c-1.7,0-3-1.3-3-3c0-1.7,1.3-3,3-3C449.9,512.1,451.3,513.4,451.3,515.1z"/>
		<path d="M669.1,539c0,1.7-1.3,3-3,3s-3-1.3-3-3c0-1.7,1.3-3,3-3S669.1,537.4,669.1,539z"/>
		<path class="st1" d="M669.1,539c0,1.7-1.3,3-3,3s-3-1.3-3-3c0-1.7,1.3-3,3-3S669.1,537.4,669.1,539z"/>
		<path d="M614.7,264.2c0,1.7-1.3,3-3,3c-1.7,0-3-1.3-3-3c0-1.7,1.3-3,3-3C613.3,261.2,614.7,262.5,614.7,264.2z"/>
		<path class="st1" d="M614.7,264.2c0,1.7-1.3,3-3,3c-1.7,0-3-1.3-3-3c0-1.7,1.3-3,3-3C613.3,261.2,614.7,262.5,614.7,264.2z"/>
		<path d="M669.1,56c0,1.7-1.3,3-3,3s-3-1.3-3-3c0-1.7,1.3-3,3-3S669.1,54.3,669.1,56z"/>
		<path class="st1" d="M669.1,56c0,1.7-1.3,3-3,3s-3-1.3-3-3c0-1.7,1.3-3,3-3S669.1,54.3,669.1,56z"/>
		<path d="M669.1,89.3c0,1.7-1.3,3-3,3s-3-1.3-3-3c0-1.7,1.3-3,3-3S669.1,87.6,669.1,89.3z"/>
		<path class="st1" d="M669.1,89.3c0,1.7-1.3,3-3,3s-3-1.3-3-3c0-1.7,1.3-3,3-3S669.1,87.6,669.1,89.3z"/>
		<path d="M505.7,70.5c0,1.7-1.3,3-3,3c-1.7,0-3-1.3-3-3c0-1.7,1.3-3,3-3C504.4,67.5,505.7,68.9,505.7,70.5z"/>
		<path class="st1" d="M505.7,70.5c0,1.7-1.3,3-3,3c-1.7,0-3-1.3-3-3c0-1.7,1.3-3,3-3C504.4,67.5,505.7,68.9,505.7,70.5z"/>
		<path d="M669.1,172.6c0,1.7-1.3,3-3,3s-3-1.3-3-3c0-1.7,1.3-3,3-3S669.1,170.9,669.1,172.6z"/>
		<path class="st1" d="M669.1,172.6c0,1.7-1.3,3-3,3s-3-1.3-3-3c0-1.7,1.3-3,3-3S669.1,170.9,669.1,172.6z"/>
		<path d="M669.1,355.8c0,1.7-1.3,3-3,3s-3-1.3-3-3s1.3-3,3-3S669.1,354.1,669.1,355.8z"/>
		<path class="st1" d="M669.1,355.8c0,1.7-1.3,3-3,3s-3-1.3-3-3s1.3-3,3-3S669.1,354.1,669.1,355.8z"/>
		<path d="M669.1,372.5c0,1.7-1.3,3-3,3s-3-1.3-3-3c0-1.7,1.3-3,3-3S669.1,370.8,669.1,372.5z"/>
		<path class="st1" d="M669.1,372.5c0,1.7-1.3,3-3,3s-3-1.3-3-3c0-1.7,1.3-3,3-3S669.1,370.8,669.1,372.5z"/>
		<path d="M669.1,39.3c0,1.7-1.3,3-3,3s-3-1.3-3-3c0-1.7,1.3-3,3-3S669.1,37.7,669.1,39.3z"/>
		<path class="st1" d="M669.1,39.3c0,1.7-1.3,3-3,3s-3-1.3-3-3c0-1.7,1.3-3,3-3S669.1,37.7,669.1,39.3z"/>
		<path d="M669.1,305.8c0,1.7-1.3,3-3,3s-3-1.3-3-3c0-1.7,1.3-3,3-3S669.1,304.2,669.1,305.8z"/>
		<path class="st1" d="M669.1,305.8c0,1.7-1.3,3-3,3s-3-1.3-3-3c0-1.7,1.3-3,3-3S669.1,304.2,669.1,305.8z"/>
		<path d="M669.1,472.4c0,1.7-1.3,3-3,3s-3-1.3-3-3s1.3-3,3-3S669.1,470.7,669.1,472.4z"/>
		<path class="st1" d="M669.1,472.4c0,1.7-1.3,3-3,3s-3-1.3-3-3s1.3-3,3-3S669.1,470.7,669.1,472.4z"/>
		<path d="M669.1,155.9c0,1.7-1.3,3-3,3s-3-1.3-3-3c0-1.7,1.3-3,3-3S669.1,154.3,669.1,155.9z"/>
		<path class="st1" d="M669.1,155.9c0,1.7-1.3,3-3,3s-3-1.3-3-3c0-1.7,1.3-3,3-3S669.1,154.3,669.1,155.9z"/>
		<path d="M233.4,259.6c0,1.7-1.3,3-3,3c-1.7,0-3-1.3-3-3c0-1.7,1.3-3,3-3C232.1,256.6,233.4,257.9,233.4,259.6z"/>
		<path class="st1" d="M233.4,259.6c0,1.7-1.3,3-3,3c-1.7,0-3-1.3-3-3c0-1.7,1.3-3,3-3C232.1,256.6,233.4,257.9,233.4,259.6z"/>
		<path d="M614.7,530.7c0,1.7-1.3,3-3,3c-1.7,0-3-1.3-3-3c0-1.7,1.3-3,3-3C613.3,527.7,614.7,529,614.7,530.7z"/>
		<path class="st1" d="M614.7,530.7c0,1.7-1.3,3-3,3c-1.7,0-3-1.3-3-3c0-1.7,1.3-3,3-3C613.3,527.7,614.7,529,614.7,530.7z"/>
		<path d="M669.1,255.9c0,1.7-1.3,3-3,3s-3-1.3-3-3c0-1.7,1.3-3,3-3S669.1,254.2,669.1,255.9z"/>
		<path class="st1" d="M669.1,255.9c0,1.7-1.3,3-3,3s-3-1.3-3-3c0-1.7,1.3-3,3-3S669.1,254.2,669.1,255.9z"/>
		<path d="M669.1,505.7c0,1.7-1.3,3-3,3s-3-1.3-3-3s1.3-3,3-3S669.1,504.1,669.1,505.7z"/>
		<path class="st1" d="M669.1,505.7c0,1.7-1.3,3-3,3s-3-1.3-3-3s1.3-3,3-3S669.1,504.1,669.1,505.7z"/>
		<path d="M669.1,189.2c0,1.7-1.3,3-3,3s-3-1.3-3-3c0-1.7,1.3-3,3-3S669.1,187.6,669.1,189.2z"/>
		<path class="st1" d="M669.1,189.2c0,1.7-1.3,3-3,3s-3-1.3-3-3c0-1.7,1.3-3,3-3S669.1,187.6,669.1,189.2z"/>
		<path d="M669.1,122.6c0,1.7-1.3,3-3,3s-3-1.3-3-3s1.3-3,3-3S669.1,120.9,669.1,122.6z"/>
		<path class="st1" d="M669.1,122.6c0,1.7-1.3,3-3,3s-3-1.3-3-3s1.3-3,3-3S669.1,120.9,669.1,122.6z"/>
		<path d="M560.2,247.5c0,1.7-1.3,3-3,3c-1.7,0-3-1.3-3-3c0-1.7,1.3-3,3-3C558.8,244.5,560.2,245.9,560.2,247.5z"/>
		<path class="st1" d="M560.2,247.5c0,1.7-1.3,3-3,3c-1.7,0-3-1.3-3-3c0-1.7,1.3-3,3-3C558.8,244.5,560.2,245.9,560.2,247.5z"/>
		<path d="M614.7,297.5c0,1.7-1.3,3-3,3c-1.7,0-3-1.3-3-3s1.3-3,3-3C613.3,294.5,614.7,295.8,614.7,297.5z"/>
		<path class="st1" d="M614.7,297.5c0,1.7-1.3,3-3,3c-1.7,0-3-1.3-3-3s1.3-3,3-3C613.3,294.5,614.7,295.8,614.7,297.5z"/>
		<path d="M669.1,22.7c0,1.7-1.3,3-3,3s-3-1.3-3-3c0-1.7,1.3-3,3-3S669.1,21,669.1,22.7z"/>
		<path class="st1" d="M669.1,22.7c0,1.7-1.3,3-3,3s-3-1.3-3-3c0-1.7,1.3-3,3-3S669.1,21,669.1,22.7z"/>
		<path d="M669.1,405.8c0,1.7-1.3,3-3,3s-3-1.3-3-3c0-1.7,1.3-3,3-3S669.1,404.1,669.1,405.8z"/>
		<path class="st1" d="M669.1,405.8c0,1.7-1.3,3-3,3s-3-1.3-3-3c0-1.7,1.3-3,3-3S669.1,404.1,669.1,405.8z"/>
		<path d="M669.1,272.5c0,1.7-1.3,3-3,3s-3-1.3-3-3c0-1.7,1.3-3,3-3S669.1,270.9,669.1,272.5z"/>
		<path class="st1" d="M669.1,272.5c0,1.7-1.3,3-3,3s-3-1.3-3-3c0-1.7,1.3-3,3-3S669.1,270.9,669.1,272.5z"/>
		<path d="M560.2,85.1c0,1.7-1.3,3-3,3c-1.7,0-3-1.3-3-3c0-1.7,1.3-3,3-3C558.8,82.1,560.2,83.5,560.2,85.1z"/>
		<path class="st1" d="M560.2,85.1c0,1.7-1.3,3-3,3c-1.7,0-3-1.3-3-3c0-1.7,1.3-3,3-3C558.8,82.1,560.2,83.5,560.2,85.1z"/>
		<path d="M614.7,230.9c0,1.7-1.3,3-3,3c-1.7,0-3-1.3-3-3c0-1.7,1.3-3,3-3C613.3,227.9,614.7,229.2,614.7,230.9z"/>
		<path class="st1" d="M614.7,230.9c0,1.7-1.3,3-3,3c-1.7,0-3-1.3-3-3c0-1.7,1.3-3,3-3C613.3,227.9,614.7,229.2,614.7,230.9z"/>
		<path d="M614.7,430.8c0,1.7-1.3,3-3,3c-1.7,0-3-1.3-3-3c0-1.7,1.3-3,3-3C613.3,427.8,614.7,429.1,614.7,430.8z"/>
		<path class="st1" d="M614.7,430.8c0,1.7-1.3,3-3,3c-1.7,0-3-1.3-3-3c0-1.7,1.3-3,3-3C613.3,427.8,614.7,429.1,614.7,430.8z"/>
		<path d="M669.1,339.1c0,1.7-1.3,3-3,3s-3-1.3-3-3c0-1.7,1.3-3,3-3S669.1,337.5,669.1,339.1z"/>
		<path class="st1" d="M669.1,339.1c0,1.7-1.3,3-3,3s-3-1.3-3-3c0-1.7,1.3-3,3-3S669.1,337.5,669.1,339.1z"/>
		<path d="M614.7,464.1c0,1.7-1.3,3-3,3c-1.7,0-3-1.3-3-3c0-1.7,1.3-3,3-3C613.3,461.1,614.7,462.4,614.7,464.1z"/>
		<path class="st1" d="M614.7,464.1c0,1.7-1.3,3-3,3c-1.7,0-3-1.3-3-3c0-1.7,1.3-3,3-3C613.3,461.1,614.7,462.4,614.7,464.1z"/>
		<path d="M614.7,97.6c0,1.7-1.3,3-3,3c-1.7,0-3-1.3-3-3c0-1.7,1.3-3,3-3C613.3,94.6,614.7,96,614.7,97.6z"/>
		<path class="st1" d="M614.7,97.6c0,1.7-1.3,3-3,3c-1.7,0-3-1.3-3-3c0-1.7,1.3-3,3-3C613.3,94.6,614.7,96,614.7,97.6z"/>
		<path d="M669.1,289.2c0,1.7-1.3,3-3,3s-3-1.3-3-3c0-1.7,1.3-3,3-3S669.1,287.5,669.1,289.2z"/>
		<path class="st1" d="M669.1,289.2c0,1.7-1.3,3-3,3s-3-1.3-3-3c0-1.7,1.3-3,3-3S669.1,287.5,669.1,289.2z"/>
		<path d="M560.2,418.3c0,1.7-1.3,3-3,3c-1.7,0-3-1.3-3-3c0-1.7,1.3-3,3-3C558.8,415.3,560.2,416.6,560.2,418.3z"/>
		<path class="st1" d="M560.2,418.3c0,1.7-1.3,3-3,3c-1.7,0-3-1.3-3-3c0-1.7,1.3-3,3-3C558.8,415.3,560.2,416.6,560.2,418.3z"/>
		<path d="M614.7,197.6c0,1.7-1.3,3-3,3c-1.7,0-3-1.3-3-3c0-1.7,1.3-3,3-3C613.3,194.6,614.7,195.9,614.7,197.6z"/>
		<path class="st1" d="M614.7,197.6c0,1.7-1.3,3-3,3c-1.7,0-3-1.3-3-3c0-1.7,1.3-3,3-3C613.3,194.6,614.7,195.9,614.7,197.6z"/>
		<path d="M669.1,589c0,1.7-1.3,3-3,3s-3-1.3-3-3s1.3-3,3-3S669.1,587.3,669.1,589z"/>
		<path class="st1" d="M669.1,589c0,1.7-1.3,3-3,3s-3-1.3-3-3s1.3-3,3-3S669.1,587.3,669.1,589z"/>
		<path d="M560.2,185.1c0,1.7-1.3,3-3,3c-1.7,0-3-1.3-3-3c0-1.7,1.3-3,3-3C558.8,182.1,560.2,183.4,560.2,185.1z"/>
		<path class="st1" d="M560.2,185.1c0,1.7-1.3,3-3,3c-1.7,0-3-1.3-3-3c0-1.7,1.3-3,3-3C558.8,182.1,560.2,183.4,560.2,185.1z"/>
		<path d="M669.1,555.7c0,1.7-1.3,3-3,3s-3-1.3-3-3s1.3-3,3-3S669.1,554,669.1,555.7z"/>
		<path class="st1" d="M669.1,555.7c0,1.7-1.3,3-3,3s-3-1.3-3-3s1.3-3,3-3S669.1,554,669.1,555.7z"/>
		<path d="M342.3,423.7c0,1.7-1.3,3-3,3c-1.7,0-3-1.3-3-3c0-1.7,1.3-3,3-3C341,420.7,342.3,422.1,342.3,423.7z"/>
		<path class="st1" d="M342.3,423.7c0,1.7-1.3,3-3,3c-1.7,0-3-1.3-3-3c0-1.7,1.3-3,3-3C341,420.7,342.3,422.1,342.3,423.7z"/>
		<path d="M396.8,466.7c0,1.7-1.3,3-3,3c-1.7,0-3-1.3-3-3s1.3-3,3-3C395.5,463.7,396.8,465,396.8,466.7z"/>
		<path class="st1" d="M396.8,466.7c0,1.7-1.3,3-3,3c-1.7,0-3-1.3-3-3s1.3-3,3-3C395.5,463.7,396.8,465,396.8,466.7z"/>
		<path d="M70,80.9c0,1.7-1.3,3-3,3c-1.7,0-3-1.3-3-3c0-1.7,1.3-3,3-3C68.7,77.9,70,79.2,70,80.9z"/>
		<path class="st1" d="M70,80.9c0,1.7-1.3,3-3,3c-1.7,0-3-1.3-3-3c0-1.7,1.3-3,3-3C68.7,77.9,70,79.2,70,80.9z"/>
		<path d="M669.1,239.2c0,1.7-1.3,3-3,3s-3-1.3-3-3c0-1.7,1.3-3,3-3S669.1,237.5,669.1,239.2z"/>
		<path class="st1" d="M669.1,239.2c0,1.7-1.3,3-3,3s-3-1.3-3-3c0-1.7,1.3-3,3-3S669.1,237.5,669.1,239.2z"/>
		<path d="M669.1,205.9c0,1.7-1.3,3-3,3s-3-1.3-3-3c0-1.7,1.3-3,3-3S669.1,204.2,669.1,205.9z"/>
		<path class="st1" d="M669.1,205.9c0,1.7-1.3,3-3,3s-3-1.3-3-3c0-1.7,1.3-3,3-3S669.1,204.2,669.1,205.9z"/>
		<path d="M669.1,105.9c0,1.7-1.3,3-3,3s-3-1.3-3-3c0-1.7,1.3-3,3-3S669.1,104.3,669.1,105.9z"/>
		<path class="st1" d="M669.1,105.9c0,1.7-1.3,3-3,3s-3-1.3-3-3c0-1.7,1.3-3,3-3S669.1,104.3,669.1,105.9z"/>
		<path d="M669.1,489.1c0,1.7-1.3,3-3,3s-3-1.3-3-3c0-1.7,1.3-3,3-3S669.1,487.4,669.1,489.1z"/>
		<path class="st1" d="M669.1,489.1c0,1.7-1.3,3-3,3s-3-1.3-3-3c0-1.7,1.3-3,3-3S669.1,487.4,669.1,489.1z"/>
		<path d="M669.1,422.4c0,1.7-1.3,3-3,3s-3-1.3-3-3c0-1.7,1.3-3,3-3S669.1,420.8,669.1,422.4z"/>
		<path class="st1" d="M669.1,422.4c0,1.7-1.3,3-3,3s-3-1.3-3-3c0-1.7,1.3-3,3-3S669.1,420.8,669.1,422.4z"/>
		<path d="M669.1,572.3c0,1.7-1.3,3-3,3s-3-1.3-3-3c0-1.7,1.3-3,3-3S669.1,570.7,669.1,572.3z"/>
		<path class="st1" d="M669.1,572.3c0,1.7-1.3,3-3,3s-3-1.3-3-3c0-1.7,1.3-3,3-3S669.1,570.7,669.1,572.3z"/>
		<path d="M614.7,31c0,1.7-1.3,3-3,3c-1.7,0-3-1.3-3-3c0-1.7,1.3-3,3-3C613.3,28,614.7,29.3,614.7,31z"/>
		<path class="st1" d="M614.7,31c0,1.7-1.3,3-3,3c-1.7,0-3-1.3-3-3c0-1.7,1.3-3,3-3C613.3,28,614.7,29.3,614.7,31z"/>
		<path d="M669.1,455.7c0,1.7-1.3,3-3,3s-3-1.3-3-3c0-1.7,1.3-3,3-3S669.1,454.1,669.1,455.7z"/>
		<path class="st1" d="M669.1,455.7c0,1.7-1.3,3-3,3s-3-1.3-3-3c0-1.7,1.3-3,3-3S669.1,454.1,669.1,455.7z"/>
		<path d="M287.9,352.8c0,1.7-1.3,3-3,3c-1.7,0-3-1.3-3-3c0-1.7,1.3-3,3-3C286.5,349.8,287.9,351.2,287.9,352.8z"/>
		<path class="st1" d="M287.9,352.8c0,1.7-1.3,3-3,3c-1.7,0-3-1.3-3-3c0-1.7,1.3-3,3-3C286.5,349.8,287.9,351.2,287.9,352.8z"/>
		<path d="M560.2,480.7c0,1.7-1.3,3-3,3c-1.7,0-3-1.3-3-3c0-1.7,1.3-3,3-3C558.8,477.7,560.2,479.1,560.2,480.7z"/>
		<path class="st1" d="M560.2,480.7c0,1.7-1.3,3-3,3c-1.7,0-3-1.3-3-3c0-1.7,1.3-3,3-3C558.8,477.7,560.2,479.1,560.2,480.7z"/>
		<path d="M505.7,316.2c0,1.7-1.3,3-3,3c-1.7,0-3-1.3-3-3c0-1.7,1.3-3,3-3C504.4,313.2,505.7,314.6,505.7,316.2z"/>
		<path class="st1" d="M505.7,316.2c0,1.7-1.3,3-3,3c-1.7,0-3-1.3-3-3c0-1.7,1.3-3,3-3C504.4,313.2,505.7,314.6,505.7,316.2z"/>
		<path d="M669.1,72.6c0,1.7-1.3,3-3,3s-3-1.3-3-3c0-1.7,1.3-3,3-3S669.1,71,669.1,72.6z"/>
		<path class="st1" d="M669.1,72.6c0,1.7-1.3,3-3,3s-3-1.3-3-3c0-1.7,1.3-3,3-3S669.1,71,669.1,72.6z"/>
		<path d="M669.1,389.1c0,1.7-1.3,3-3,3s-3-1.3-3-3c0-1.7,1.3-3,3-3S669.1,387.5,669.1,389.1z"/>
		<path class="st1" d="M669.1,389.1c0,1.7-1.3,3-3,3s-3-1.3-3-3c0-1.7,1.3-3,3-3S669.1,387.5,669.1,389.1z"/>
		<path d="M178.9,191.1c0,1.7-1.3,3-3,3c-1.7,0-3-1.3-3-3c0-1.7,1.3-3,3-3C177.6,188.1,178.9,189.4,178.9,191.1z"/>
		<path class="st1" d="M178.9,191.1c0,1.7-1.3,3-3,3c-1.7,0-3-1.3-3-3c0-1.7,1.3-3,3-3C177.6,188.1,178.9,189.4,178.9,191.1z"/>
		<path d="M669.1,222.5c0,1.7-1.3,3-3,3s-3-1.3-3-3c0-1.7,1.3-3,3-3S669.1,220.9,669.1,222.5z"/>
		<path class="st1" d="M669.1,222.5c0,1.7-1.3,3-3,3s-3-1.3-3-3c0-1.7,1.3-3,3-3S669.1,220.9,669.1,222.5z"/>
		<path d="M669.1,439.1c0,1.7-1.3,3-3,3s-3-1.3-3-3c0-1.7,1.3-3,3-3S669.1,437.4,669.1,439.1z"/>
		<path class="st1" d="M669.1,439.1c0,1.7-1.3,3-3,3s-3-1.3-3-3c0-1.7,1.3-3,3-3S669.1,437.4,669.1,439.1z"/>
		<path d="M614.7,347.5c0,1.7-1.3,3-3,3c-1.7,0-3-1.3-3-3c0-1.7,1.3-3,3-3C613.3,344.5,614.7,345.8,614.7,347.5z"/>
		<path class="st1" d="M614.7,347.5c0,1.7-1.3,3-3,3c-1.7,0-3-1.3-3-3c0-1.7,1.3-3,3-3C613.3,344.5,614.7,345.8,614.7,347.5z"/>
		<path d="M614.7,380.8c0,1.7-1.3,3-3,3c-1.7,0-3-1.3-3-3s1.3-3,3-3C613.3,377.8,614.7,379.1,614.7,380.8z"/>
		<path class="st1" d="M614.7,380.8c0,1.7-1.3,3-3,3c-1.7,0-3-1.3-3-3s1.3-3,3-3C613.3,377.8,614.7,379.1,614.7,380.8z"/>
		<path d="M560.2,335c0,1.7-1.3,3-3,3c-1.7,0-3-1.3-3-3c0-1.7,1.3-3,3-3C558.8,332,560.2,333.3,560.2,335z"/>
		<path class="st1" d="M560.2,335c0,1.7-1.3,3-3,3c-1.7,0-3-1.3-3-3c0-1.7,1.3-3,3-3C558.8,332,560.2,333.3,560.2,335z"/>
		<path d="M560.2,568.2c0,1.7-1.3,3-3,3c-1.7,0-3-1.3-3-3c0-1.7,1.3-3,3-3C558.8,565.2,560.2,566.5,560.2,568.2z"/>
		<path class="st1" d="M560.2,568.2c0,1.7-1.3,3-3,3c-1.7,0-3-1.3-3-3c0-1.7,1.3-3,3-3C558.8,565.2,560.2,566.5,560.2,568.2z"/>
		<path d="M505.7,549.4c0,1.7-1.3,3-3,3c-1.7,0-3-1.3-3-3s1.3-3,3-3C504.4,546.4,505.7,547.8,505.7,549.4z"/>
		<path class="st1" d="M505.7,549.4c0,1.7-1.3,3-3,3c-1.7,0-3-1.3-3-3s1.3-3,3-3C504.4,546.4,505.7,547.8,505.7,549.4z"/>
		<path d="M669.1,322.5c0,1.7-1.3,3-3,3s-3-1.3-3-3c0-1.7,1.3-3,3-3S669.1,320.8,669.1,322.5z"/>
		<path class="st1" d="M669.1,322.5c0,1.7-1.3,3-3,3s-3-1.3-3-3c0-1.7,1.3-3,3-3S669.1,320.8,669.1,322.5z"/>
		<path d="M614.7,147.6c0,1.7-1.3,3-3,3c-1.7,0-3-1.3-3-3c0-1.7,1.3-3,3-3C613.3,144.6,614.7,145.9,614.7,147.6z"/>
		<path class="st1" d="M614.7,147.6c0,1.7-1.3,3-3,3c-1.7,0-3-1.3-3-3c0-1.7,1.3-3,3-3C613.3,144.6,614.7,145.9,614.7,147.6z"/>
		<path d="M669.1,6c0,1.7-1.3,3-3,3s-3-1.3-3-3s1.3-3,3-3S669.1,4.3,669.1,6z"/>
		<path class="st1" d="M669.1,6c0,1.7-1.3,3-3,3s-3-1.3-3-3s1.3-3,3-3S669.1,4.3,669.1,6z"/>
		<path d="M505.7,166.3c0,1.7-1.3,3-3,3c-1.7,0-3-1.3-3-3c0-1.7,1.3-3,3-3C504.4,163.3,505.7,164.7,505.7,166.3z"/>
		<path class="st1" d="M505.7,166.3c0,1.7-1.3,3-3,3c-1.7,0-3-1.3-3-3c0-1.7,1.3-3,3-3C504.4,163.3,505.7,164.7,505.7,166.3z"/>
		<path d="M669.1,139.3c0,1.7-1.3,3-3,3s-3-1.3-3-3c0-1.7,1.3-3,3-3S669.1,137.6,669.1,139.3z"/>
		<path class="st1" d="M669.1,139.3c0,1.7-1.3,3-3,3s-3-1.3-3-3c0-1.7,1.3-3,3-3S669.1,137.6,669.1,139.3z"/>
		<path d="M15.5,43.5c0,1.7-1.3,3-3,3c-1.7,0-3-1.3-3-3c0-1.7,1.3-3,3-3C14.2,40.5,15.5,41.8,15.5,43.5z"/>
		<path class="st1" d="M15.5,43.5c0,1.7-1.3,3-3,3c-1.7,0-3-1.3-3-3c0-1.7,1.3-3,3-3C14.2,40.5,15.5,41.8,15.5,43.5z"/>
		<path d="M124.5,130.8c0,1.7-1.3,3-3,3c-1.7,0-3-1.3-3-3c0-1.7,1.3-3,3-3C123.1,127.8,124.5,129.2,124.5,130.8z"/>
		<path class="st1" d="M124.5,130.8c0,1.7-1.3,3-3,3c-1.7,0-3-1.3-3-3c0-1.7,1.3-3,3-3C123.1,127.8,124.5,129.2,124.5,130.8z"/>
		<path d="M451.3,281.9c0,1.7-1.3,3-3,3c-1.7,0-3-1.3-3-3c0-1.7,1.3-3,3-3C449.9,278.9,451.3,280.2,451.3,281.9z"/>
		<path class="st1" d="M451.3,281.9c0,1.7-1.3,3-3,3c-1.7,0-3-1.3-3-3c0-1.7,1.3-3,3-3C449.9,278.9,451.3,280.2,451.3,281.9z"/>
		<path d="M614.7,580.7c0,1.7-1.3,3-3,3c-1.7,0-3-1.3-3-3c0-1.7,1.3-3,3-3C613.3,577.7,614.7,579,614.7,580.7z"/>
		<path class="st1" d="M614.7,580.7c0,1.7-1.3,3-3,3c-1.7,0-3-1.3-3-3c0-1.7,1.3-3,3-3C613.3,577.7,614.7,579,614.7,580.7z"/>
		<path d="M614.7,497.4c0,1.7-1.3,3-3,3c-1.7,0-3-1.3-3-3c0-1.7,1.3-3,3-3C613.3,494.4,614.7,495.7,614.7,497.4z"/>
		<path class="st1" d="M614.7,497.4c0,1.7-1.3,3-3,3c-1.7,0-3-1.3-3-3c0-1.7,1.3-3,3-3C613.3,494.4,614.7,495.7,614.7,497.4z"/>
	</g>
	<g transform="matrix(1,0,0,1,671.12,510.8714)">
		<text transform="matrix(1 0 0 1 0 17)" class="st2 st3">SACBA+</text>
	</g>
	<g transform="matrix(1,0,0,1,671.12,277.6714)">
		<text transform="matrix(1 0 0 1 0 17)" class="st2 st3">SACBA*</text>
	</g>
	<g transform="matrix(1,0,0,1,671.12,527.5286)">
		<text transform="matrix(1 0 0 1 0 17)" class="st2 st3">YEAST+</text>
	</g>
	<g transform="matrix(1,0,0,1,671.12,577.5)">
		<text transform="matrix(1 0 0 1 0 17)" class="st2 st3">51914A+</text>
	</g>
	<g transform="matrix(1,0,0,1,671.12,44.4714)">
		<text transform="matrix(1 0 0 1 0 17)" class="st2 st3">DEKBR</text>
	</g>
	<g transform="matrix(1,0,0,1,671.12,77.7857)">
		<text transform="matrix(1 0 0 1 0 17)" class="st2 st3">PICST</text>
	</g>
	<g transform="matrix(1,0,0,1,671.12,544.1857)">
		<text transform="matrix(1 0 0 1 0 17)" class="st2 st3">CANGA+</text>
	</g>
	<g transform="matrix(1,0,0,1,671.12,161.0714)">
		<text transform="matrix(1 0 0 1 0 17)" class="st2 st3">SACKL</text>
	</g>
	<g transform="matrix(1,0,0,1,671.12,344.3)">
		<text transform="matrix(1 0 0 1 0 17)" class="st2 st3">51914A*</text>
	</g>
	<g transform="matrix(1,0,0,1,671.12,360.9571)">
		<text transform="matrix(1 0 0 1 0 17)" class="st2 st3">TORDC</text>
	</g>
	<g transform="matrix(1,0,0,1,671.12,27.8143)">
		<text transform="matrix(1 0 0 1 0 17)" class="st2 st3">45786A</text>
	</g>
	<g transform="matrix(1,0,0,1,671.12,294.3286)">
		<text transform="matrix(1 0 0 1 0 17)" class="st2 st3">YEAST*</text>
	</g>
	<g transform="matrix(1,0,0,1,671.12,94.4429)">
		<text transform="matrix(1 0 0 1 0 17)" class="st2 st3">CANAL</text>
	</g>
	<g transform="matrix(1,0,0,1,671.12,194.3857)">
		<text transform="matrix(1 0 0 1 0 17)" class="st2 st3">LACTH</text>
	</g>
	<g transform="matrix(1,0,0,1,671.12,227.7)">
		<text transform="matrix(1 0 0 1 0 17)" class="st2 st3">KAZAF*</text>
	</g>
	<g transform="matrix(1,0,0,1,671.12,410.9286)">
		<text transform="matrix(1 0 0 1 0 17)" class="st2 st3">TETPH</text>
	</g>
	<g transform="matrix(1,0,0,1,671.12,477.5571)">
		<text transform="matrix(1 0 0 1 0 17)" class="st2 st3">NAUDC+</text>
	</g>
	<g transform="matrix(1,0,0,1,671.12,560.8429)">
		<text transform="matrix(1 0 0 1 0 17)" class="st2 st3">51660A+</text>
	</g>
	<g transform="matrix(1,0,0,1,671.12,444.2429)">
		<text transform="matrix(1 0 0 1 0 17)" class="st2 st3">588726A+</text>
	</g>
	<g transform="matrix(1,0,0,1,671.12,460.9)">
		<text transform="matrix(1 0 0 1 0 17)" class="st2 st3">KAZAF+</text>
	</g>
	<g transform="matrix(1,0,0,1,671.12,144.4143)">
		<text transform="matrix(1 0 0 1 0 17)" class="st2 st3">ASHGO</text>
	</g>
	<g transform="matrix(1,0,0,1,671.12,244.3571)">
		<text transform="matrix(1 0 0 1 0 17)" class="st2 st3">NAUDC*</text>
	</g>
	<g transform="matrix(1,0,0,1,671.12,61.1286)">
		<text transform="matrix(1 0 0 1 0 17)" class="st2 st3">DEBHA</text>
	</g>
	<g transform="matrix(1,0,0,1,671.12,377.6143)">
		<text transform="matrix(1 0 0 1 0 17)" class="st2 st3">ZYGRO</text>
	</g>
	<g transform="matrix(1,0,0,1,671.12,211.0429)">
		<text transform="matrix(1 0 0 1 0 17)" class="st2 st3">588726A*</text>
	</g>
	<g transform="matrix(1,0,0,1,671.12,427.5857)">
		<text transform="matrix(1 0 0 1 0 17)" class="st2 st3">VANPO</text>
	</g>
	<g transform="matrix(1,0,0,1,671.12,111.1)">
		<text transform="matrix(1 0 0 1 0 17)" class="st2 st3">HANAN</text>
	</g>
	<g transform="matrix(1,0,0,1,671.12,177.7286)">
		<text transform="matrix(1 0 0 1 0 17)" class="st2 st3">KLUWA</text>
	</g>
	<g transform="matrix(1,0,0,1,671.12,494.2143)">
		<text transform="matrix(1 0 0 1 0 17)" class="st2 st3">SACCA+</text>
	</g>
	<g transform="matrix(1,0,0,1,671.12,11.1571)">
		<text transform="matrix(1 0 0 1 0 17)" class="st2 st3">YARLI</text>
	</g>
	<g transform="matrix(1,0,0,1,671.12,394.2714)">
		<text transform="matrix(1 0 0 1 0 17)" class="st2 st3">1071379A</text>
	</g>
	<g transform="matrix(1,0,0,1,671.12,261.0143)">
		<text transform="matrix(1 0 0 1 0 17)" class="st2 st3">SACCA*</text>
	</g>
	<g transform="matrix(1,0,0,1,671.12,310.9857)">
		<text transform="matrix(1 0 0 1 0 17)" class="st2 st3">CANGA*</text>
	</g>
	<g transform="matrix(1,0,0,1,671.12,-5.5)">
		<text transform="matrix(1 0 0 1 0 17)" class="st2 st3">SCHPO</text>
	</g>
	<g transform="matrix(1,0,0,1,671.12,127.7571)">
		<text transform="matrix(1 0 0 1 0 17)" class="st2 st3">KLULA</text>
	</g>
	<g transform="matrix(1,0,0,1,671.12,327.6429)">
		<text transform="matrix(1 0 0 1 0 17)" class="st2 st3">51660A*</text>
	</g>
	<g transform="matrix(1,0,0,1,453.2586,504.5839)">
		<text transform="matrix(1 0 0 1 0 16)" class="st4 st5">&lt;19&gt;</text>
	</g>
	<g transform="matrix(1,0,0,1,616.6547,253.6857)">
		<text transform="matrix(1 0 0 1 0 16)" class="st4 st5">&lt;23&gt;</text>
	</g>
	<g transform="matrix(1,0,0,1,616.6547,187.0571)">
		<text transform="matrix(1 0 0 1 0 16)" class="st4 st5">&lt;6&gt;</text>
	</g>
	<g transform="matrix(1,0,0,1,562.1893,407.7643)">
		<text transform="matrix(1 0 0 1 0 16)" class="st4 st5">&lt;11&gt;</text>
	</g>
	<g transform="matrix(1,0,0,1,562.1893,174.5643)">
		<text transform="matrix(1 0 0 1 0 16)" class="st4 st5">&lt;7&gt;</text>
	</g>
	<g transform="matrix(1,0,0,1,398.7933,456.1741)">
		<text transform="matrix(1 0 0 1 0 16)" class="st4 st5">&lt;20&gt;</text>
	</g>
	<g transform="matrix(1,0,0,1,344.3279,413.2299)">
		<text transform="matrix(1 0 0 1 0 16)" class="st4 st5">&lt;21&gt;</text>
	</g>
	<g transform="matrix(1,0,0,1,507.724,60.0464)">
		<text transform="matrix(1 0 0 1 0 16)" class="st4 st5">&lt;4&gt;</text>
	</g>
	<g transform="matrix(1,0,0,1,72.0012,70.4002)">
		<text transform="matrix(1 0 0 1 0 16)" class="st4 st5">&lt;34&gt;</text>
	</g>
	<g transform="matrix(1,0,0,1,616.6547,20.4857)">
		<text transform="matrix(1 0 0 1 0 16)" class="st4 st5">&lt;1&gt;</text>
	</g>
	<g transform="matrix(1,0,0,1,289.8626,342.3069)">
		<text transform="matrix(1 0 0 1 0 16)" class="st4 st5">&lt;30&gt;</text>
	</g>
	<g transform="matrix(1,0,0,1,562.1893,470.2286)">
		<text transform="matrix(1 0 0 1 0 16)" class="st4 st5">&lt;14&gt;</text>
	</g>
	<g transform="matrix(1,0,0,1,507.724,305.7393)">
		<text transform="matrix(1 0 0 1 0 16)" class="st4 st5">&lt;28&gt;</text>
	</g>
	<g transform="matrix(1,0,0,1,616.6547,520.2)">
		<text transform="matrix(1 0 0 1 0 16)" class="st4 st5">&lt;17&gt;</text>
	</g>
	<g transform="matrix(1,0,0,1,235.3972,249.066)">
		<text transform="matrix(1 0 0 1 0 16)" class="st4 st5">&lt;31&gt;</text>
	</g>
	<g transform="matrix(1,0,0,1,180.9319,180.583)">
		<text transform="matrix(1 0 0 1 0 16)" class="st4 st5">&lt;32&gt;</text>
	</g>
	<g transform="matrix(1,0,0,1,616.6547,336.9714)">
		<text transform="matrix(1 0 0 1 0 16)" class="st4 st5">&lt;25&gt;</text>
	</g>
	<g transform="matrix(1,0,0,1,562.1893,237.0286)">
		<text transform="matrix(1 0 0 1 0 16)" class="st4 st5">&lt;24&gt;</text>
	</g>
	<g transform="matrix(1,0,0,1,616.6547,287)">
		<text transform="matrix(1 0 0 1 0 16)" class="st4 st5">&lt;27&gt;</text>
	</g>
	<g transform="matrix(1,0,0,1,616.6547,370.2857)">
		<text transform="matrix(1 0 0 1 0 16)" class="st4 st5">&lt;9&gt;</text>
	</g>
	<g transform="matrix(1,0,0,1,562.1893,324.4786)">
		<text transform="matrix(1 0 0 1 0 16)" class="st4 st5">&lt;26&gt;</text>
	</g>
	<g transform="matrix(1,0,0,1,562.1893,557.6786)">
		<text transform="matrix(1 0 0 1 0 16)" class="st4 st5">&lt;16&gt;</text>
	</g>
	<g transform="matrix(1,0,0,1,562.1893,74.6214)">
		<text transform="matrix(1 0 0 1 0 16)" class="st4 st5">&lt;3&gt;</text>
	</g>
	<g transform="matrix(1,0,0,1,507.724,538.9393)">
		<text transform="matrix(1 0 0 1 0 16)" class="st4 st5">&lt;18&gt;</text>
	</g>
	<g transform="matrix(1,0,0,1,616.6547,137.0857)">
		<text transform="matrix(1 0 0 1 0 16)" class="st4 st5">&lt;5&gt;</text>
	</g>
	<g transform="matrix(1,0,0,1,507.724,155.825)">
		<text transform="matrix(1 0 0 1 0 16)" class="st4 st5">&lt;8&gt;</text>
	</g>
	<g transform="matrix(1,0,0,1,616.6547,220.3714)">
		<text transform="matrix(1 0 0 1 0 16)" class="st4 st5">&lt;22&gt;</text>
	</g>
	<g transform="matrix(1,0,0,1,616.6547,420.2571)">
		<text transform="matrix(1 0 0 1 0 16)" class="st4 st5">&lt;10&gt;</text>
	</g>
	<g transform="matrix(1,0,0,1,616.6547,87.1143)">
		<text transform="matrix(1 0 0 1 0 16)" class="st4 st5">&lt;2&gt;</text>
	</g>
	<g transform="matrix(1,0,0,1,616.6547,453.5714)">
		<text transform="matrix(1 0 0 1 0 16)" class="st4 st5">&lt;12&gt;</text>
	</g>
	<g transform="matrix(1,0,0,1,126.4665,120.3147)">
		<text transform="matrix(1 0 0 1 0 16)" class="st4 st5">&lt;33&gt;</text>
	</g>
	<g transform="matrix(1,0,0,1,453.2586,271.3839)">
		<text transform="matrix(1 0 0 1 0 16)" class="st4 st5">&lt;29&gt;</text>
	</g>
	<g transform="matrix(1,0,0,1,616.6547,570.1714)">
		<text transform="matrix(1 0 0 1 0 16)" class="st4 st5">&lt;15&gt;</text>
	</g>
	<g transform="matrix(1,0,0,1,616.6547,486.8857)">
		<text transform="matrix(1 0 0 1 0 16)" class="st4 st5">&lt;13&gt;</text>
	</g>
</g>
<path class="st6" d="M452.6,603.9H766c7,0,12.6-4.4,12.6-10V455.2c0-5.6-5.6-10-12.6-10H452.6c-7,0-12.6,4.4-12.6,10v138.6
	C440,599.4,445.6,603.9,452.6,603.9z"/>
<text transform="matrix(1.0489 0 0 1 789.0293 533.666)" class="st7 st8">BY</text>
<path class="st9" d="M608.7,395.9h161.5c3.6,0,6.5-5.3,6.5-11.9v-6.5c0-6.6-2.9-11.9-6.5-11.9H608.7c-3.6,0-6.5,5.3-6.5,11.9v6.5
	C602.2,390.6,605.1,395.9,608.7,395.9z"/>
<text transform="matrix(1 0 0 1 787.6173 391.5989)" class="st7 st8">ZT</text>
<path class="st6" d="M451.7,364.5h313.4c7,0,12.6-4.2,12.6-9.6V222.4c0-5.3-5.6-9.6-12.6-9.6H451.7c-7,0-12.6,4.2-12.6,9.6v132.5
	C439.1,360.2,444.7,364.5,451.7,364.5z"/>
<text transform="matrix(1.0489 0 0 1 788.1694 294.2793)" class="st7 st8">BY</text>
<path class="st10" d="M502.8,212.5h262.1c5.9,0,10.5-5.4,10.5-12.3v-55.9c0-6.8-4.7-12.3-10.5-12.3H502.8c-5.9,0-10.5,5.4-10.5,12.3
	v55.9C492.3,207,497,212.5,502.8,212.5z"/>
<text transform="matrix(1 0 0 1 785.4924 187.9517)" class="st7 st8">KLE</text>
<path class="st11" d="M499,131.4h266.4c5.9,0,10.7-5.7,10.7-12.9V9.9c0-7.2-4.7-12.9-10.7-12.9H499c-5.9,0-10.7,5.7-10.7,12.9v108.7
	C488.3,125.6,493.1,131.4,499,131.4z"/>
<text transform="matrix(1 0 0 1 788.1691 73.5464)" class="st7 st8">O</text>
</svg>
