<?xml version="1.0" encoding="utf-8"?>
<!-- Generator: Adobe Illustrator 19.0.0, SVG Export Plug-In . SVG Version: 6.00 Build 0)  -->
<svg version="1.1" id="Layer_1" xmlns="http://www.w3.org/2000/svg" xmlns:xlink="http://www.w3.org/1999/xlink" x="0px" y="0px"
	 viewBox="0 -9 712 614" style="enable-background:new 0 -9 712 614;" xml:space="preserve">
<style type="text/css">
	.st0{fill:none;stroke:#000000;stroke-width:2;stroke-miterlimit:10;}
	.st1{fill:none;stroke:#000000;stroke-width:0.5;stroke-linecap:square;stroke-miterlimit:10;}
	.st2{font-family:'CourierNewPSMT';}
	.st3{font-size:20px;}
	.st4{font-family:'SourceCodePro-Regular';}
	.st5{opacity:0.2;fill:#E46C0A;enable-background:new    ;}
	.st6{opacity:0.2;fill:#604A7B;enable-background:new    ;}
	.st7{opacity:0.2;fill:#318592;enable-background:new    ;}
</style>
<g>
	<g>
		<path class="st0" d="M299.9,426.6h-96v-65.3"/>
		<path class="st0" d="M396,499.1h-96v-72.5"/>
		<path class="st0" d="M588.1,238.1h-96v-29"/>
		<path class="st0" d="M492,557.1h-96v-58"/>
		<path class="st0" d="M588.1,354.1H299.9v72.5"/>
		<path class="st0" d="M588.1,412.1h-96v29"/>
		<path class="st0" d="M588.1,528.1h-96v29"/>
		<path class="st0" d="M588.1,122h-96V93"/>
		<path class="st0" d="M203.9,361.3h-96v-76.1"/>
		<path class="st0" d="M588.1,470.1h-96v-29"/>
		<path class="st0" d="M588.1,64h-96v29"/>
		<path class="st0" d="M588.1,296.1H203.9v65.3"/>
		<path class="st0" d="M588.1,586.1h-96v-29"/>
		<path class="st0" d="M396,49.5H11.8v117.8"/>
		<path class="st0" d="M492,93h-96V49.5"/>
		<path class="st0" d="M588.1,180h-96v29"/>
		<path class="st0" d="M588.1,6H396v43.5"/>
		<path class="st0" d="M492,209H107.8v76.1"/>
		<path class="st0" d="M6,167.3h5.8"/>
		<path class="st0" d="M107.8,285.2h-96V167.3"/>
		<path class="st0" d="M492,441.1h-96v58"/>
		<path d="M303.9,426.6c0,2.2-1.8,4-4,4s-4-1.8-4-4c0-2.2,1.8-4,4-4S303.9,424.4,303.9,426.6z"/>
		<path class="st1" d="M303.9,426.6c0,2.2-1.8,4-4,4s-4-1.8-4-4c0-2.2,1.8-4,4-4S303.9,424.4,303.9,426.6z"/>
		<path d="M400,499.1c0,2.2-1.8,4-4,4s-4-1.8-4-4c0-2.2,1.8-4,4-4S400,496.9,400,499.1z"/>
		<path class="st1" d="M400,499.1c0,2.2-1.8,4-4,4s-4-1.8-4-4c0-2.2,1.8-4,4-4S400,496.9,400,499.1z"/>
		<path d="M592.1,238.1c0,2.2-1.8,4-4,4c-2.2,0-4-1.8-4-4c0-2.2,1.8-4,4-4C590.3,234.1,592.1,235.8,592.1,238.1z"/>
		<path class="st1" d="M592.1,238.1c0,2.2-1.8,4-4,4c-2.2,0-4-1.8-4-4c0-2.2,1.8-4,4-4C590.3,234.1,592.1,235.8,592.1,238.1z"/>
		<path d="M496,557.1c0,2.2-1.8,4-4,4s-4-1.8-4-4c0-2.2,1.8-4,4-4S496,554.9,496,557.1z"/>
		<path class="st1" d="M496,557.1c0,2.2-1.8,4-4,4s-4-1.8-4-4c0-2.2,1.8-4,4-4S496,554.9,496,557.1z"/>
		<path d="M592.1,354.1c0,2.2-1.8,4-4,4c-2.2,0-4-1.8-4-4c0-2.2,1.8-4,4-4C590.3,350.1,592.1,351.9,592.1,354.1z"/>
		<path class="st1" d="M592.1,354.1c0,2.2-1.8,4-4,4c-2.2,0-4-1.8-4-4c0-2.2,1.8-4,4-4C590.3,350.1,592.1,351.9,592.1,354.1z"/>
		<path d="M592.1,412.1c0,2.2-1.8,4-4,4c-2.2,0-4-1.8-4-4c0-2.2,1.8-4,4-4C590.3,408.1,592.1,409.9,592.1,412.1z"/>
		<path class="st1" d="M592.1,412.1c0,2.2-1.8,4-4,4c-2.2,0-4-1.8-4-4c0-2.2,1.8-4,4-4C590.3,408.1,592.1,409.9,592.1,412.1z"/>
		<path d="M592.1,528.1c0,2.2-1.8,4-4,4c-2.2,0-4-1.8-4-4c0-2.2,1.8-4,4-4C590.3,524.1,592.1,525.9,592.1,528.1z"/>
		<path class="st1" d="M592.1,528.1c0,2.2-1.8,4-4,4c-2.2,0-4-1.8-4-4c0-2.2,1.8-4,4-4C590.3,524.1,592.1,525.9,592.1,528.1z"/>
		<path d="M592.1,122c0,2.2-1.8,4-4,4c-2.2,0-4-1.8-4-4s1.8-4,4-4C590.3,118,592.1,119.8,592.1,122z"/>
		<path class="st1" d="M592.1,122c0,2.2-1.8,4-4,4c-2.2,0-4-1.8-4-4s1.8-4,4-4C590.3,118,592.1,119.8,592.1,122z"/>
		<path d="M207.9,361.3c0,2.2-1.8,4-4,4c-2.2,0-4-1.8-4-4c0-2.2,1.8-4,4-4C206.1,357.3,207.9,359.1,207.9,361.3z"/>
		<path class="st1" d="M207.9,361.3c0,2.2-1.8,4-4,4c-2.2,0-4-1.8-4-4c0-2.2,1.8-4,4-4C206.1,357.3,207.9,359.1,207.9,361.3z"/>
		<path d="M592.1,470.1c0,2.2-1.8,4-4,4c-2.2,0-4-1.8-4-4c0-2.2,1.8-4,4-4C590.3,466.1,592.1,467.9,592.1,470.1z"/>
		<path class="st1" d="M592.1,470.1c0,2.2-1.8,4-4,4c-2.2,0-4-1.8-4-4c0-2.2,1.8-4,4-4C590.3,466.1,592.1,467.9,592.1,470.1z"/>
		<path d="M592.1,64c0,2.2-1.8,4-4,4c-2.2,0-4-1.8-4-4c0-2.2,1.8-4,4-4C590.3,60,592.1,61.8,592.1,64z"/>
		<path class="st1" d="M592.1,64c0,2.2-1.8,4-4,4c-2.2,0-4-1.8-4-4c0-2.2,1.8-4,4-4C590.3,60,592.1,61.8,592.1,64z"/>
		<path d="M592.1,296.1c0,2.2-1.8,4-4,4c-2.2,0-4-1.8-4-4c0-2.2,1.8-4,4-4C590.3,292.1,592.1,293.9,592.1,296.1z"/>
		<path class="st1" d="M592.1,296.1c0,2.2-1.8,4-4,4c-2.2,0-4-1.8-4-4c0-2.2,1.8-4,4-4C590.3,292.1,592.1,293.9,592.1,296.1z"/>
		<path d="M592.1,586.1c0,2.2-1.8,4-4,4c-2.2,0-4-1.8-4-4c0-2.2,1.8-4,4-4C590.3,582.1,592.1,583.9,592.1,586.1z"/>
		<path class="st1" d="M592.1,586.1c0,2.2-1.8,4-4,4c-2.2,0-4-1.8-4-4c0-2.2,1.8-4,4-4C590.3,582.1,592.1,583.9,592.1,586.1z"/>
		<path d="M400,49.5c0,2.2-1.8,4-4,4s-4-1.8-4-4c0-2.2,1.8-4,4-4S400,47.3,400,49.5z"/>
		<path class="st1" d="M400,49.5c0,2.2-1.8,4-4,4s-4-1.8-4-4c0-2.2,1.8-4,4-4S400,47.3,400,49.5z"/>
		<path d="M496,93c0,2.2-1.8,4-4,4s-4-1.8-4-4c0-2.2,1.8-4,4-4S496,90.8,496,93z"/>
		<path class="st1" d="M496,93c0,2.2-1.8,4-4,4s-4-1.8-4-4c0-2.2,1.8-4,4-4S496,90.8,496,93z"/>
		<path d="M592.1,6c0,2.2-1.8,4-4,4c-2.2,0-4-1.8-4-4s1.8-4,4-4C590.3,2,592.1,3.8,592.1,6z"/>
		<path class="st1" d="M592.1,6c0,2.2-1.8,4-4,4c-2.2,0-4-1.8-4-4s1.8-4,4-4C590.3,2,592.1,3.8,592.1,6z"/>
		<path d="M592.1,180c0,2.2-1.8,4-4,4c-2.2,0-4-1.8-4-4c0-2.2,1.8-4,4-4C590.3,176,592.1,177.8,592.1,180z"/>
		<path class="st1" d="M592.1,180c0,2.2-1.8,4-4,4c-2.2,0-4-1.8-4-4c0-2.2,1.8-4,4-4C590.3,176,592.1,177.8,592.1,180z"/>
		<path d="M496,209c0,2.2-1.8,4-4,4s-4-1.8-4-4c0-2.2,1.8-4,4-4S496,206.8,496,209z"/>
		<path class="st1" d="M496,209c0,2.2-1.8,4-4,4s-4-1.8-4-4c0-2.2,1.8-4,4-4S496,206.8,496,209z"/>
		<path d="M15.8,167.3c0,2.2-1.8,4-4,4c-2.2,0-4-1.8-4-4c0-2.2,1.8-4,4-4C14,163.3,15.8,165.1,15.8,167.3z"/>
		<path class="st1" d="M15.8,167.3c0,2.2-1.8,4-4,4c-2.2,0-4-1.8-4-4c0-2.2,1.8-4,4-4C14,163.3,15.8,165.1,15.8,167.3z"/>
		<path d="M111.8,285.2c0,2.2-1.8,4-4,4c-2.2,0-4-1.8-4-4c0-2.2,1.8-4,4-4C110,281.2,111.8,283,111.8,285.2z"/>
		<path class="st1" d="M111.8,285.2c0,2.2-1.8,4-4,4c-2.2,0-4-1.8-4-4c0-2.2,1.8-4,4-4C110,281.2,111.8,283,111.8,285.2z"/>
		<path d="M496,441.1c0,2.2-1.8,4-4,4s-4-1.8-4-4c0-2.2,1.8-4,4-4S496,438.9,496,441.1z"/>
		<path class="st1" d="M496,441.1c0,2.2-1.8,4-4,4s-4-1.8-4-4c0-2.2,1.8-4,4-4S496,438.9,496,441.1z"/>
	</g>
	<g transform="matrix(1,0,0,1,593.06,110.525)">
		<text transform="matrix(1 0 0 1 0 17)" class="st2 st3">SBIC</text>
	</g>
	<g transform="matrix(1,0,0,1,593.06,458.6)">
		<text transform="matrix(1 0 0 1 0 17)" class="st2 st3">TAES+</text>
	</g>
	<g transform="matrix(1,0,0,1,593.06,52.5125)">
		<text transform="matrix(1 0 0 1 0 17)" class="st2 st3">ZMAY</text>
	</g>
	<g transform="matrix(1,0,0,1,593.06,284.5625)">
		<text transform="matrix(1 0 0 1 0 17)" class="st2 st3">BDIS</text>
	</g>
	<g transform="matrix(1,0,0,1,593.06,574.625)">
		<text transform="matrix(1 0 0 1 0 17)" class="st2 st3">TAES*</text>
	</g>
	<g transform="matrix(1,0,0,1,593.06,226.55)">
		<text transform="matrix(1 0 0 1 0 17)" class="st2 st3">LPER</text>
	</g>
	<g transform="matrix(1,0,0,1,593.06,-5.5)">
		<text transform="matrix(1 0 0 1 0 17)" class="st2 st3">SITA</text>
	</g>
	<g transform="matrix(1,0,0,1,593.06,168.5375)">
		<text transform="matrix(1 0 0 1 0 17)" class="st2 st3">OSAT</text>
	</g>
	<g transform="matrix(1,0,0,1,593.06,342.575)">
		<text transform="matrix(1 0 0 1 0 17)" class="st2 st3">HVUL</text>
	</g>
	<g transform="matrix(1,0,0,1,593.06,400.5875)">
		<text transform="matrix(1 0 0 1 0 17)" class="st2 st3">TURA</text>
	</g>
	<g transform="matrix(1,0,0,1,593.06,516.6125)">
		<text transform="matrix(1 0 0 1 0 17)" class="st2 st3">ATAU</text>
	</g>
	<g transform="matrix(1,0,0,1,304.9115,413.5907)">
		<text transform="matrix(1 0 0 1 0 20)" class="st4 st3">&lt;4&gt;</text>
	</g>
	<g transform="matrix(1,0,0,1,400.961,486.1063)">
		<text transform="matrix(1 0 0 1 0 20)" class="st4 st3">&lt;3&gt;</text>
	</g>
	<g transform="matrix(1,0,0,1,208.862,348.3266)">
		<text transform="matrix(1 0 0 1 0 20)" class="st4 st3">&lt;5&gt;</text>
	</g>
	<g transform="matrix(1,0,0,1,497.0105,80.0188)">
		<text transform="matrix(1 0 0 1 0 20)" class="st4 st3">&lt;8&gt;</text>
	</g>
	<g transform="matrix(1,0,0,1,400.961,36.5094)">
		<text transform="matrix(1 0 0 1 0 20)" class="st4 st3">&lt;9&gt;</text>
	</g>
	<g transform="matrix(1,0,0,1,497.0105,544.1188)">
		<text transform="matrix(1 0 0 1 0 20)" class="st4 st3">&lt;2&gt;</text>
	</g>
	<g transform="matrix(1,0,0,1,497.0105,196.0438)">
		<text transform="matrix(1 0 0 1 0 20)" class="st4 st3">&lt;6&gt;</text>
	</g>
	<g transform="matrix(1,0,0,1,497.0105,428.0938)">
		<text transform="matrix(1 0 0 1 0 20)" class="st4 st3">&lt;1&gt;</text>
	</g>
	<g transform="matrix(1,0,0,1,112.8125,272.1852)">
		<text transform="matrix(1 0 0 1 0 20)" class="st4 st3">&lt;7&gt;</text>
	</g>
</g>
<path class="st5" d="M542.9,484.1h146.7c3.3,0,5.9-0.9,5.9-1.8v-25.2c0-1.1-2.7-1.8-5.9-1.8H542.9c-3.3,0-5.9,0.9-5.9,1.8v25.2
	C537.1,483.2,539.7,484.1,542.9,484.1z"/>
<path class="st6" d="M542.9,428.1h146.7c3.3,0,5.9-0.9,5.9-1.8v-25.2c0-1.1-2.7-1.8-5.9-1.8H542.9c-3.3,0-5.9,0.9-5.9,1.8v25.2
	C537.1,427.4,539.7,428.1,542.9,428.1z"/>
<path class="st7" d="M543.1,541.1h146.7c3.3,0,5.9-0.9,5.9-1.8v-25.2c0-1.1-2.7-1.8-5.9-1.8H543.1c-3.3,0-5.9,0.9-5.9,1.8v25.2
	C537.3,540.4,539.9,541.1,543.1,541.1z"/>
<text transform="matrix(1 0 0 1 657.7908 474.6487)" class="st2 st3">(A)</text>
<path class="st5" d="M542.9,598.9h146.7c3.3,0,5.9-0.9,5.9-1.8v-25.2c0-1.1-2.7-1.8-5.9-1.8H542.9c-3.3,0-5.9,0.9-5.9,1.8v25.2
	C537.1,598,539.7,598.9,542.9,598.9z"/>
<text transform="matrix(1 0 0 1 658.9908 591.0551)" class="st2 st3">(D)</text>
</svg>
