<?xml version="1.0" encoding="utf-8"?>
<!-- Generator: Adobe Illustrator 19.0.0, SVG Export Plug-In . SVG Version: 6.00 Build 0)  -->
<svg version="1.1" id="Layer_1" xmlns="http://www.w3.org/2000/svg" xmlns:xlink="http://www.w3.org/1999/xlink" x="0px" y="0px"
	 viewBox="0 -5 696 608" style="enable-background:new 0 -5 696 608;" xml:space="preserve">
<style type="text/css">
	.st0{fill:none;stroke:#000000;stroke-width:2;stroke-miterlimit:10;}
	.st1{fill:none;stroke:#000000;stroke-width:0.5;stroke-linecap:square;stroke-miterlimit:10;}
	.st2{font-family:'CourierNewPSMT';}
	.st3{font-size:20px;}
	.st4{font-family:'SourceCodePro-Regular';}
	.st5{opacity:0.2;fill:#E46C0A;enable-background:new    ;}
	.st6{opacity:0.2;fill:#604A7B;enable-background:new    ;}
	.st7{opacity:0.2;fill:#318592;enable-background:new    ;}
</style>
<g>
	<g>
		<path class="st0" d="M587.1,6H395.3v43.5"/>
		<path class="st0" d="M587.1,586.1h-95.9v-29"/>
		<path class="st0" d="M587.1,180h-95.9v29"/>
		<path class="st0" d="M491.2,93h-95.9V49.5"/>
		<path class="st0" d="M491.2,441.1h-95.9v58"/>
		<path class="st0" d="M587.1,64h-95.9v29"/>
		<path class="st0" d="M587.1,528.1h-95.9v29"/>
		<path class="st0" d="M587.1,470.1h-95.9v-29"/>
		<path class="st0" d="M587.1,412.1h-95.9v29"/>
		<path class="st0" d="M491.2,209H107.6v76.1"/>
		<path class="st0" d="M587.1,122h-95.9V93"/>
		<path class="st0" d="M6,167.3h5.8"/>
		<path class="st0" d="M395.3,49.5H11.8v117.8"/>
		<path class="st0" d="M203.5,361.3h-95.9v-76.1"/>
		<path class="st0" d="M107.6,285.2H11.8V167.3"/>
		<path class="st0" d="M587.1,296.1H203.5v65.3"/>
		<path class="st0" d="M491.2,557.1h-95.9v-58"/>
		<path class="st0" d="M395.3,499.1h-95.9v-72.5"/>
		<path class="st0" d="M299.4,426.6h-95.9v-65.3"/>
		<path class="st0" d="M587.1,238.1h-95.9v-29"/>
		<path class="st0" d="M587.1,354.1H299.4v72.5"/>
		<path d="M591.1,6c0,2.2-1.8,4-4,4c-2.2,0-4-1.8-4-4s1.8-4,4-4C589.3,2,591.1,3.8,591.1,6z"/>
		<path class="st1" d="M591.1,6c0,2.2-1.8,4-4,4c-2.2,0-4-1.8-4-4s1.8-4,4-4C589.3,2,591.1,3.8,591.1,6z"/>
		<path d="M591.1,586.1c0,2.2-1.8,4-4,4c-2.2,0-4-1.8-4-4s1.8-4,4-4C589.3,582.1,591.1,583.9,591.1,586.1z"/>
		<path class="st1" d="M591.1,586.1c0,2.2-1.8,4-4,4c-2.2,0-4-1.8-4-4s1.8-4,4-4C589.3,582.1,591.1,583.9,591.1,586.1z"/>
		<path d="M591.1,180c0,2.2-1.8,4-4,4c-2.2,0-4-1.8-4-4c0-2.2,1.8-4,4-4C589.3,176,591.1,177.8,591.1,180z"/>
		<path class="st1" d="M591.1,180c0,2.2-1.8,4-4,4c-2.2,0-4-1.8-4-4c0-2.2,1.8-4,4-4C589.3,176,591.1,177.8,591.1,180z"/>
		<path d="M495.2,93c0,2.2-1.8,4-4,4s-4-1.8-4-4c0-2.2,1.8-4,4-4S495.2,90.8,495.2,93z"/>
		<path class="st1" d="M495.2,93c0,2.2-1.8,4-4,4s-4-1.8-4-4c0-2.2,1.8-4,4-4S495.2,90.8,495.2,93z"/>
		<path d="M591.1,64c0,2.2-1.8,4-4,4c-2.2,0-4-1.8-4-4c0-2.2,1.8-4,4-4C589.3,60,591.1,61.8,591.1,64z"/>
		<path class="st1" d="M591.1,64c0,2.2-1.8,4-4,4c-2.2,0-4-1.8-4-4c0-2.2,1.8-4,4-4C589.3,60,591.1,61.8,591.1,64z"/>
		<path d="M495.2,441.1c0,2.2-1.8,4-4,4s-4-1.8-4-4c0-2.2,1.8-4,4-4S495.2,438.9,495.2,441.1z"/>
		<path class="st1" d="M495.2,441.1c0,2.2-1.8,4-4,4s-4-1.8-4-4c0-2.2,1.8-4,4-4S495.2,438.9,495.2,441.1z"/>
		<path d="M591.1,528.1c0,2.2-1.8,4-4,4c-2.2,0-4-1.8-4-4c0-2.2,1.8-4,4-4C589.3,524.1,591.1,525.9,591.1,528.1z"/>
		<path class="st1" d="M591.1,528.1c0,2.2-1.8,4-4,4c-2.2,0-4-1.8-4-4c0-2.2,1.8-4,4-4C589.3,524.1,591.1,525.9,591.1,528.1z"/>
		<path d="M591.1,470.1c0,2.2-1.8,4-4,4c-2.2,0-4-1.8-4-4s1.8-4,4-4C589.3,466.1,591.1,467.9,591.1,470.1z"/>
		<path class="st1" d="M591.1,470.1c0,2.2-1.8,4-4,4c-2.2,0-4-1.8-4-4s1.8-4,4-4C589.3,466.1,591.1,467.9,591.1,470.1z"/>
		<path d="M591.1,412.1c0,2.2-1.8,4-4,4c-2.2,0-4-1.8-4-4s1.8-4,4-4C589.3,408.1,591.1,409.9,591.1,412.1z"/>
		<path class="st1" d="M591.1,412.1c0,2.2-1.8,4-4,4c-2.2,0-4-1.8-4-4s1.8-4,4-4C589.3,408.1,591.1,409.9,591.1,412.1z"/>
		<path d="M495.2,209c0,2.2-1.8,4-4,4s-4-1.8-4-4c0-2.2,1.8-4,4-4S495.2,206.8,495.2,209z"/>
		<path class="st1" d="M495.2,209c0,2.2-1.8,4-4,4s-4-1.8-4-4c0-2.2,1.8-4,4-4S495.2,206.8,495.2,209z"/>
		<path d="M591.1,122c0,2.2-1.8,4-4,4c-2.2,0-4-1.8-4-4s1.8-4,4-4C589.3,118,591.1,119.8,591.1,122z"/>
		<path class="st1" d="M591.1,122c0,2.2-1.8,4-4,4c-2.2,0-4-1.8-4-4s1.8-4,4-4C589.3,118,591.1,119.8,591.1,122z"/>
		<path d="M15.8,167.3c0,2.2-1.8,4-4,4c-2.2,0-4-1.8-4-4c0-2.2,1.8-4,4-4C14,163.3,15.8,165.1,15.8,167.3z"/>
		<path class="st1" d="M15.8,167.3c0,2.2-1.8,4-4,4c-2.2,0-4-1.8-4-4c0-2.2,1.8-4,4-4C14,163.3,15.8,165.1,15.8,167.3z"/>
		<path d="M399.3,49.5c0,2.2-1.8,4-4,4c-2.2,0-4-1.8-4-4c0-2.2,1.8-4,4-4C397.5,45.5,399.3,47.3,399.3,49.5z"/>
		<path class="st1" d="M399.3,49.5c0,2.2-1.8,4-4,4c-2.2,0-4-1.8-4-4c0-2.2,1.8-4,4-4C397.5,45.5,399.3,47.3,399.3,49.5z"/>
		<path d="M207.5,361.3c0,2.2-1.8,4-4,4c-2.2,0-4-1.8-4-4c0-2.2,1.8-4,4-4C205.7,357.3,207.5,359.1,207.5,361.3z"/>
		<path class="st1" d="M207.5,361.3c0,2.2-1.8,4-4,4c-2.2,0-4-1.8-4-4c0-2.2,1.8-4,4-4C205.7,357.3,207.5,359.1,207.5,361.3z"/>
		<path d="M111.6,285.2c0,2.2-1.8,4-4,4c-2.2,0-4-1.8-4-4c0-2.2,1.8-4,4-4C109.8,281.2,111.6,283,111.6,285.2z"/>
		<path class="st1" d="M111.6,285.2c0,2.2-1.8,4-4,4c-2.2,0-4-1.8-4-4c0-2.2,1.8-4,4-4C109.8,281.2,111.6,283,111.6,285.2z"/>
		<path d="M591.1,296.1c0,2.2-1.8,4-4,4c-2.2,0-4-1.8-4-4s1.8-4,4-4C589.3,292.1,591.1,293.9,591.1,296.1z"/>
		<path class="st1" d="M591.1,296.1c0,2.2-1.8,4-4,4c-2.2,0-4-1.8-4-4s1.8-4,4-4C589.3,292.1,591.1,293.9,591.1,296.1z"/>
		<path d="M495.2,557.1c0,2.2-1.8,4-4,4s-4-1.8-4-4c0-2.2,1.8-4,4-4S495.2,554.9,495.2,557.1z"/>
		<path class="st1" d="M495.2,557.1c0,2.2-1.8,4-4,4s-4-1.8-4-4c0-2.2,1.8-4,4-4S495.2,554.9,495.2,557.1z"/>
		<path d="M399.3,499.1c0,2.2-1.8,4-4,4c-2.2,0-4-1.8-4-4c0-2.2,1.8-4,4-4C397.5,495.1,399.3,496.9,399.3,499.1z"/>
		<path class="st1" d="M399.3,499.1c0,2.2-1.8,4-4,4c-2.2,0-4-1.8-4-4c0-2.2,1.8-4,4-4C397.5,495.1,399.3,496.9,399.3,499.1z"/>
		<path d="M303.4,426.6c0,2.2-1.8,4-4,4c-2.2,0-4-1.8-4-4c0-2.2,1.8-4,4-4C301.6,422.6,303.4,424.4,303.4,426.6z"/>
		<path class="st1" d="M303.4,426.6c0,2.2-1.8,4-4,4c-2.2,0-4-1.8-4-4c0-2.2,1.8-4,4-4C301.6,422.6,303.4,424.4,303.4,426.6z"/>
		<path d="M591.1,238.1c0,2.2-1.8,4-4,4c-2.2,0-4-1.8-4-4c0-2.2,1.8-4,4-4C589.3,234.1,591.1,235.8,591.1,238.1z"/>
		<path class="st1" d="M591.1,238.1c0,2.2-1.8,4-4,4c-2.2,0-4-1.8-4-4c0-2.2,1.8-4,4-4C589.3,234.1,591.1,235.8,591.1,238.1z"/>
		<path d="M591.1,354.1c0,2.2-1.8,4-4,4c-2.2,0-4-1.8-4-4c0-2.2,1.8-4,4-4C589.3,350.1,591.1,351.9,591.1,354.1z"/>
		<path class="st1" d="M591.1,354.1c0,2.2-1.8,4-4,4c-2.2,0-4-1.8-4-4c0-2.2,1.8-4,4-4C589.3,350.1,591.1,351.9,591.1,354.1z"/>
	</g>
	<g transform="matrix(1,0,0,1,592.06,-5.5)">
		<text transform="matrix(1 0 0 1 0 17)" class="st2 st3">SITA</text>
	</g>
	<g transform="matrix(1,0,0,1,592.06,574.625)">
		<text transform="matrix(1 0 0 1 0 17)" class="st2 st3">TAES*</text>
	</g>
	<g transform="matrix(1,0,0,1,592.06,168.5375)">
		<text transform="matrix(1 0 0 1 0 17)" class="st2 st3">OSAT</text>
	</g>
	<g transform="matrix(1,0,0,1,592.06,52.5125)">
		<text transform="matrix(1 0 0 1 0 17)" class="st2 st3">ZMAY</text>
	</g>
	<g transform="matrix(1,0,0,1,592.06,516.6125)">
		<text transform="matrix(1 0 0 1 0 17)" class="st2 st3">ATAU</text>
	</g>
	<g transform="matrix(1,0,0,1,592.06,284.5625)">
		<text transform="matrix(1 0 0 1 0 17)" class="st2 st3">BDIS</text>
	</g>
	<g transform="matrix(1,0,0,1,592.06,458.6)">
		<text transform="matrix(1 0 0 1 0 17)" class="st2 st3">TAES+</text>
	</g>
	<g transform="matrix(1,0,0,1,592.06,400.5875)">
		<text transform="matrix(1 0 0 1 0 17)" class="st2 st3">TURA</text>
	</g>
	<g transform="matrix(1,0,0,1,592.06,110.525)">
		<text transform="matrix(1 0 0 1 0 17)" class="st2 st3">SBIC</text>
	</g>
	<g transform="matrix(1,0,0,1,592.06,226.55)">
		<text transform="matrix(1 0 0 1 0 17)" class="st2 st3">LPER</text>
	</g>
	<g transform="matrix(1,0,0,1,592.06,342.575)">
		<text transform="matrix(1 0 0 1 0 17)" class="st2 st3">HVUL</text>
	</g>
	<g transform="matrix(1,0,0,1,400.291,36.5094)">
		<text transform="matrix(1 0 0 1 0 20)" class="st4 st3">&lt;9&gt;</text>
	</g>
	<g transform="matrix(1,0,0,1,496.1755,80.0188)">
		<text transform="matrix(1 0 0 1 0 20)" class="st4 st3">&lt;8&gt;</text>
	</g>
	<g transform="matrix(1,0,0,1,496.1755,428.0938)">
		<text transform="matrix(1 0 0 1 0 20)" class="st4 st3">&lt;1&gt;</text>
	</g>
	<g transform="matrix(1,0,0,1,208.522,348.3266)">
		<text transform="matrix(1 0 0 1 0 20)" class="st4 st3">&lt;5&gt;</text>
	</g>
	<g transform="matrix(1,0,0,1,112.6376,272.1852)">
		<text transform="matrix(1 0 0 1 0 20)" class="st4 st3">&lt;7&gt;</text>
	</g>
	<g transform="matrix(1,0,0,1,496.1755,544.1188)">
		<text transform="matrix(1 0 0 1 0 20)" class="st4 st3">&lt;2&gt;</text>
	</g>
	<g transform="matrix(1,0,0,1,400.291,486.1062)">
		<text transform="matrix(1 0 0 1 0 20)" class="st4 st3">&lt;3&gt;</text>
	</g>
	<g transform="matrix(1,0,0,1,304.4065,413.5906)">
		<text transform="matrix(1 0 0 1 0 20)" class="st4 st3">&lt;4&gt;</text>
	</g>
	<g transform="matrix(1,0,0,1,496.1755,196.0438)">
		<text transform="matrix(1 0 0 1 0 20)" class="st4 st3">&lt;6&gt;</text>
	</g>
</g>
<path class="st5" d="M537.2,484.1h146.7c3.3,0,5.9-0.9,5.9-1.8v-25.2c0-1.1-2.7-1.8-5.9-1.8H537.2c-3.3,0-5.9,0.9-5.9,1.8v25.2
	C531.4,483.2,534,484.1,537.2,484.1z"/>
<path class="st6" d="M537.2,428.1h146.7c3.3,0,5.9-0.9,5.9-1.8v-25.2c0-1.1-2.7-1.8-5.9-1.8H537.2c-3.3,0-5.9,0.9-5.9,1.8v25.2
	C531.4,427.4,534,428.1,537.2,428.1z"/>
<path class="st7" d="M537.4,541.1h146.7c3.3,0,5.9-0.9,5.9-1.8v-25.2c0-1.1-2.7-1.8-5.9-1.8H537.4c-3.3,0-5.9,0.9-5.9,1.8v25.2
	C531.6,540.4,534.2,541.1,537.4,541.1z"/>
<text transform="matrix(1 0 0 1 652.0555 474.7018)" class="st2 st3">(A)</text>
<path class="st5" d="M537.2,599h146.7c3.3,0,5.9-0.9,5.9-1.8V572c0-1.1-2.7-1.8-5.9-1.8H537.2c-3.3,0-5.9,0.9-5.9,1.8v25.2
	C531.4,598.1,534,599,537.2,599z"/>
<text transform="matrix(1 0 0 1 653.2555 591.1082)" class="st2 st3">(D)</text>
</svg>
