<?xml version="1.0" encoding="utf-8"?>
<!-- Generator: Adobe Illustrator 19.0.0, SVG Export Plug-In . SVG Version: 6.00 Build 0)  -->
<svg version="1.1" id="Layer_1" xmlns="http://www.w3.org/2000/svg" xmlns:xlink="http://www.w3.org/1999/xlink" x="0px" y="0px"
	 viewBox="0 -9 711 620" style="enable-background:new 0 -9 711 620;" xml:space="preserve">
<style type="text/css">
	.st0{fill:none;stroke:#000000;stroke-width:2;stroke-miterlimit:10;}
	.st1{fill:none;stroke:#000000;stroke-width:0.5;stroke-linecap:square;stroke-miterlimit:10;}
	.st2{font-family:'CourierNewPSMT';}
	.st3{font-size:20px;}
	.st4{font-family:'SourceCodePro-Regular';}
	.st5{opacity:0.2;fill:#604A7B;enable-background:new    ;}
	.st6{opacity:0.2;fill:#318592;enable-background:new    ;}
	.st7{opacity:0.2;fill:#E46C0A;enable-background:new    ;}
</style>
<g>
	<g>
		<path class="st0" d="M402.7,54.3H11.9v127.9"/>
		<path class="st0" d="M305,449.2h-97.7v-60.4"/>
		<path class="st0" d="M6,182.3h5.9"/>
		<path class="st0" d="M598.1,263.8h-97.7v-32.2"/>
		<path class="st0" d="M598.1,457.2H402.7v48.3"/>
		<path class="st0" d="M598.1,521.7h-97.7v32.2"/>
		<path class="st0" d="M598.1,586.1h-97.7v-32.2"/>
		<path class="st0" d="M598.1,328.3H207.3v60.4"/>
		<path class="st0" d="M598.1,392.8H305v56.4"/>
		<path class="st0" d="M500.4,102.7h-97.7V54.3"/>
		<path class="st0" d="M402.7,505.6H305v-56.4"/>
		<path class="st0" d="M598.1,134.9h-97.7v-32.2"/>
		<path class="st0" d="M598.1,70.5h-97.7v32.2"/>
		<path class="st0" d="M598.1,6H402.7v48.3"/>
		<path class="st0" d="M109.6,310.2H11.9V182.3"/>
		<path class="st0" d="M598.1,199.4h-97.7v32.2"/>
		<path class="st0" d="M207.3,388.7h-97.7v-78.6"/>
		<path class="st0" d="M500.4,553.9h-97.7v-48.3"/>
		<path class="st0" d="M500.4,231.6H109.6v78.6"/>
		<path d="M406.7,54.3c0,2.2-1.8,4-4,4c-2.2,0-4-1.8-4-4c0-2.2,1.8-4,4-4C404.9,50.3,406.7,52.1,406.7,54.3z"/>
		<path class="st1" d="M406.7,54.3c0,2.2-1.8,4-4,4c-2.2,0-4-1.8-4-4c0-2.2,1.8-4,4-4C404.9,50.3,406.7,52.1,406.7,54.3z"/>
		<path d="M309,449.2c0,2.2-1.8,4-4,4s-4-1.8-4-4c0-2.2,1.8-4,4-4S309,447,309,449.2z"/>
		<path class="st1" d="M309,449.2c0,2.2-1.8,4-4,4s-4-1.8-4-4c0-2.2,1.8-4,4-4S309,447,309,449.2z"/>
		<path d="M15.9,182.3c0,2.2-1.8,4-4,4c-2.2,0-4-1.8-4-4c0-2.2,1.8-4,4-4C14.1,178.3,15.9,180,15.9,182.3z"/>
		<path class="st1" d="M15.9,182.3c0,2.2-1.8,4-4,4c-2.2,0-4-1.8-4-4c0-2.2,1.8-4,4-4C14.1,178.3,15.9,180,15.9,182.3z"/>
		<path d="M602.1,263.8c0,2.2-1.8,4-4,4c-2.2,0-4-1.8-4-4s1.8-4,4-4C600.3,259.8,602.1,261.6,602.1,263.8z"/>
		<path class="st1" d="M602.1,263.8c0,2.2-1.8,4-4,4c-2.2,0-4-1.8-4-4s1.8-4,4-4C600.3,259.8,602.1,261.6,602.1,263.8z"/>
		<path d="M602.1,457.2c0,2.2-1.8,4-4,4c-2.2,0-4-1.8-4-4c0-2.2,1.8-4,4-4C600.3,453.2,602.1,455,602.1,457.2z"/>
		<path class="st1" d="M602.1,457.2c0,2.2-1.8,4-4,4c-2.2,0-4-1.8-4-4c0-2.2,1.8-4,4-4C600.3,453.2,602.1,455,602.1,457.2z"/>
		<path d="M602.1,521.7c0,2.2-1.8,4-4,4c-2.2,0-4-1.8-4-4c0-2.2,1.8-4,4-4C600.3,517.7,602.1,519.5,602.1,521.7z"/>
		<path class="st1" d="M602.1,521.7c0,2.2-1.8,4-4,4c-2.2,0-4-1.8-4-4c0-2.2,1.8-4,4-4C600.3,517.7,602.1,519.5,602.1,521.7z"/>
		<path d="M602.1,586.1c0,2.2-1.8,4-4,4c-2.2,0-4-1.8-4-4c0-2.2,1.8-4,4-4C600.3,582.1,602.1,583.9,602.1,586.1z"/>
		<path class="st1" d="M602.1,586.1c0,2.2-1.8,4-4,4c-2.2,0-4-1.8-4-4c0-2.2,1.8-4,4-4C600.3,582.1,602.1,583.9,602.1,586.1z"/>
		<path d="M602.1,328.3c0,2.2-1.8,4-4,4c-2.2,0-4-1.8-4-4c0-2.2,1.8-4,4-4C600.3,324.3,602.1,326.1,602.1,328.3z"/>
		<path class="st1" d="M602.1,328.3c0,2.2-1.8,4-4,4c-2.2,0-4-1.8-4-4c0-2.2,1.8-4,4-4C600.3,324.3,602.1,326.1,602.1,328.3z"/>
		<path d="M602.1,392.8c0,2.2-1.8,4-4,4c-2.2,0-4-1.8-4-4c0-2.2,1.8-4,4-4C600.3,388.8,602.1,390.6,602.1,392.8z"/>
		<path class="st1" d="M602.1,392.8c0,2.2-1.8,4-4,4c-2.2,0-4-1.8-4-4c0-2.2,1.8-4,4-4C600.3,388.8,602.1,390.6,602.1,392.8z"/>
		<path d="M504.4,102.7c0,2.2-1.8,4-4,4c-2.2,0-4-1.8-4-4c0-2.2,1.8-4,4-4C502.6,98.7,504.4,100.5,504.4,102.7z"/>
		<path class="st1" d="M504.4,102.7c0,2.2-1.8,4-4,4c-2.2,0-4-1.8-4-4c0-2.2,1.8-4,4-4C502.6,98.7,504.4,100.5,504.4,102.7z"/>
		<path d="M406.7,505.6c0,2.2-1.8,4-4,4c-2.2,0-4-1.8-4-4c0-2.2,1.8-4,4-4C404.9,501.6,406.7,503.4,406.7,505.6z"/>
		<path class="st1" d="M406.7,505.6c0,2.2-1.8,4-4,4c-2.2,0-4-1.8-4-4c0-2.2,1.8-4,4-4C404.9,501.6,406.7,503.4,406.7,505.6z"/>
		<path d="M602.1,134.9c0,2.2-1.8,4-4,4c-2.2,0-4-1.8-4-4c0-2.2,1.8-4,4-4C600.3,130.9,602.1,132.7,602.1,134.9z"/>
		<path class="st1" d="M602.1,134.9c0,2.2-1.8,4-4,4c-2.2,0-4-1.8-4-4c0-2.2,1.8-4,4-4C600.3,130.9,602.1,132.7,602.1,134.9z"/>
		<path d="M602.1,70.5c0,2.2-1.8,4-4,4c-2.2,0-4-1.8-4-4c0-2.2,1.8-4,4-4C600.3,66.5,602.1,68.3,602.1,70.5z"/>
		<path class="st1" d="M602.1,70.5c0,2.2-1.8,4-4,4c-2.2,0-4-1.8-4-4c0-2.2,1.8-4,4-4C600.3,66.5,602.1,68.3,602.1,70.5z"/>
		<path d="M602.1,6c0,2.2-1.8,4-4,4c-2.2,0-4-1.8-4-4s1.8-4,4-4C600.3,2,602.1,3.8,602.1,6z"/>
		<path class="st1" d="M602.1,6c0,2.2-1.8,4-4,4c-2.2,0-4-1.8-4-4s1.8-4,4-4C600.3,2,602.1,3.8,602.1,6z"/>
		<path d="M113.6,310.2c0,2.2-1.8,4-4,4c-2.2,0-4-1.8-4-4c0-2.2,1.8-4,4-4C111.8,306.2,113.6,308,113.6,310.2z"/>
		<path class="st1" d="M113.6,310.2c0,2.2-1.8,4-4,4c-2.2,0-4-1.8-4-4c0-2.2,1.8-4,4-4C111.8,306.2,113.6,308,113.6,310.2z"/>
		<path d="M602.1,199.4c0,2.2-1.8,4-4,4c-2.2,0-4-1.8-4-4c0-2.2,1.8-4,4-4C600.3,195.4,602.1,197.2,602.1,199.4z"/>
		<path class="st1" d="M602.1,199.4c0,2.2-1.8,4-4,4c-2.2,0-4-1.8-4-4c0-2.2,1.8-4,4-4C600.3,195.4,602.1,197.2,602.1,199.4z"/>
		<path d="M211.3,388.7c0,2.2-1.8,4-4,4c-2.2,0-4-1.8-4-4c0-2.2,1.8-4,4-4C209.5,384.7,211.3,386.5,211.3,388.7z"/>
		<path class="st1" d="M211.3,388.7c0,2.2-1.8,4-4,4c-2.2,0-4-1.8-4-4c0-2.2,1.8-4,4-4C209.5,384.7,211.3,386.5,211.3,388.7z"/>
		<path d="M504.4,553.9c0,2.2-1.8,4-4,4c-2.2,0-4-1.8-4-4c0-2.2,1.8-4,4-4C502.6,549.9,504.4,551.7,504.4,553.9z"/>
		<path class="st1" d="M504.4,553.9c0,2.2-1.8,4-4,4c-2.2,0-4-1.8-4-4c0-2.2,1.8-4,4-4C502.6,549.9,504.4,551.7,504.4,553.9z"/>
		<path d="M504.4,231.6c0,2.2-1.8,4-4,4c-2.2,0-4-1.8-4-4c0-2.2,1.8-4,4-4C502.6,227.6,504.4,229.4,504.4,231.6z"/>
		<path class="st1" d="M504.4,231.6c0,2.2-1.8,4-4,4c-2.2,0-4-1.8-4-4c0-2.2,1.8-4,4-4C502.6,227.6,504.4,229.4,504.4,231.6z"/>
	</g>
	<g transform="matrix(1,0,0,1,603.06,-5.5)">
		<text transform="matrix(1 0 0 1 0 17)" class="st2 st3">SITA</text>
	</g>
	<g transform="matrix(1,0,0,1,603.06,252.3395)">
		<text transform="matrix(1 0 0 1 0 17)" class="st2 st3">LPER</text>
	</g>
	<g transform="matrix(1,0,0,1,603.06,445.7191)">
		<text transform="matrix(1 0 0 1 0 17)" class="st2 st3">TURA</text>
	</g>
	<g transform="matrix(1,0,0,1,603.06,510.179)">
		<text transform="matrix(1 0 0 1 0 17)" class="st2 st3">ATAU</text>
	</g>
	<g transform="matrix(1,0,0,1,603.06,574.6389)">
		<text transform="matrix(1 0 0 1 0 17)" class="st2 st3">TAES</text>
	</g>
	<g transform="matrix(1,0,0,1,603.06,187.8796)">
		<text transform="matrix(1 0 0 1 0 17)" class="st2 st3">OSAT</text>
	</g>
	<g transform="matrix(1,0,0,1,603.06,316.7994)">
		<text transform="matrix(1 0 0 1 0 17)" class="st2 st3">BDIS</text>
	</g>
	<g transform="matrix(1,0,0,1,603.06,381.2593)">
		<text transform="matrix(1 0 0 1 0 17)" class="st2 st3">HVUL</text>
	</g>
	<g transform="matrix(1,0,0,1,603.06,123.4198)">
		<text transform="matrix(1 0 0 1 0 17)" class="st2 st3">SBIC</text>
	</g>
	<g transform="matrix(1,0,0,1,603.06,58.9599)">
		<text transform="matrix(1 0 0 1 0 17)" class="st2 st3">ZMAY</text>
	</g>
	<g transform="matrix(1,0,0,1,407.6607,41.3449)">
		<text transform="matrix(1 0 0 1 0 20)" class="st4 st3">&lt;8&gt;</text>
	</g>
	<g transform="matrix(1,0,0,1,309.961,436.1617)">
		<text transform="matrix(1 0 0 1 0 20)" class="st4 st3">&lt;3&gt;</text>
	</g>
	<g transform="matrix(1,0,0,1,114.5617,297.17)">
		<text transform="matrix(1 0 0 1 0 20)" class="st4 st3">&lt;6&gt;</text>
	</g>
	<g transform="matrix(1,0,0,1,505.3603,89.6898)">
		<text transform="matrix(1 0 0 1 0 20)" class="st4 st3">&lt;7&gt;</text>
	</g>
	<g transform="matrix(1,0,0,1,212.2613,375.7305)">
		<text transform="matrix(1 0 0 1 0 20)" class="st4 st3">&lt;4&gt;</text>
	</g>
	<g transform="matrix(1,0,0,1,407.6607,492.564)">
		<text transform="matrix(1 0 0 1 0 20)" class="st4 st3">&lt;2&gt;</text>
	</g>
	<g transform="matrix(1,0,0,1,505.3603,540.909)">
		<text transform="matrix(1 0 0 1 0 20)" class="st4 st3">&lt;1&gt;</text>
	</g>
	<g transform="matrix(1,0,0,1,505.3603,218.6096)">
		<text transform="matrix(1 0 0 1 0 20)" class="st4 st3">&lt;5&gt;</text>
	</g>
</g>
<path class="st5" d="M538.9,471.6h146.7c3.3,0,5.9-0.9,5.9-1.8v-25.2c0-1.1-2.7-1.8-5.9-1.8H538.9c-3.3,0-5.9,0.9-5.9,1.8v25.2
	C533.1,470.9,535.7,471.6,538.9,471.6z"/>
<path class="st6" d="M538.9,536.1h146.7c3.3,0,5.9-0.9,5.9-1.8v-25.2c0-1.1-2.7-1.8-5.9-1.8H538.9c-3.3,0-5.9,0.9-5.9,1.8v25.2
	C533.1,535.4,535.7,536.1,538.9,536.1z"/>
<path class="st7" d="M538.9,599.5h146.7c3.3,0,5.9-0.9,5.9-1.8v-25.2c0-1.1-2.7-1.8-5.9-1.8H538.9c-3.3,0-5.9,0.9-5.9,1.8v25.2
	C533.1,598.6,535.7,599.5,538.9,599.5z"/>
<text transform="matrix(1 0 0 1 654.9908 590.647)" class="st2 st3">(D)</text>
</svg>
