<?xml version="1.0" encoding="utf-8"?>
<!-- Generator: Adobe Illustrator 19.0.0, SVG Export Plug-In . SVG Version: 6.00 Build 0)  -->
<svg version="1.1" id="Layer_1" xmlns="http://www.w3.org/2000/svg" xmlns:xlink="http://www.w3.org/1999/xlink" x="0px" y="0px"
	 viewBox="0 -8 806 611" style="enable-background:new 0 -8 806 611;" xml:space="preserve">
<style type="text/css">
	.st0{fill:none;stroke:#000000;stroke-width:2;stroke-miterlimit:10;}
	.st1{fill:none;stroke:#000000;stroke-width:0.5;stroke-linecap:square;stroke-miterlimit:10;}
	.st2{font-family:'CourierNewPSMT';}
	.st3{font-size:20px;}
	.st4{font-family:'SourceCodePro-Regular';}
	.st5{opacity:0.2;fill:#E46C0A;enable-background:new    ;}
</style>
<g>
	<g>
		<path class="st0" d="M313,391.6H213v-74.2"/>
		<path class="st0" d="M613.1,243.3H213v74.2"/>
		<path class="st0" d="M713.1,427.9h-100v-26.4"/>
		<path class="st0" d="M513.1,45.6H13v97.6"/>
		<path class="st0" d="M6,143.2h7"/>
		<path class="st0" d="M513.1,520.2H413v-59.3"/>
		<path class="st0" d="M713.1,375.2h-100v26.4"/>
		<path class="st0" d="M613.1,401.5H413v59.3"/>
		<path class="st0" d="M613.1,559.7h-100v-39.6"/>
		<path class="st0" d="M713.1,217h-100v26.4"/>
		<path class="st0" d="M113,240.8H13v-97.6"/>
		<path class="st0" d="M713.1,586.1h-100v-26.4"/>
		<path class="st0" d="M213,317.5H113v-76.6"/>
		<path class="st0" d="M713.1,322.4H313v69.2"/>
		<path class="st0" d="M613.1,85.1h-100V45.6"/>
		<path class="st0" d="M413,460.9H313v-69.2"/>
		<path class="st0" d="M713.1,164.2H113v76.6"/>
		<path class="st0" d="M713.1,480.6h-200v39.6"/>
		<path class="st0" d="M713.1,533.4h-100v26.4"/>
		<path class="st0" d="M713.1,6h-200v39.6"/>
		<path class="st0" d="M713.1,269.7h-100v-26.4"/>
		<path class="st0" d="M713.1,58.7h-100v26.4"/>
		<path class="st0" d="M713.1,111.5h-100V85.1"/>
		<path d="M317,391.6c0,2.2-1.8,4-4,4s-4-1.8-4-4c0-2.2,1.8-4,4-4S317,389.4,317,391.6z"/>
		<path class="st1" d="M317,391.6c0,2.2-1.8,4-4,4s-4-1.8-4-4c0-2.2,1.8-4,4-4S317,389.4,317,391.6z"/>
		<path d="M617.1,243.3c0,2.2-1.8,4-4,4s-4-1.8-4-4c0-2.2,1.8-4,4-4S617.1,241.1,617.1,243.3z"/>
		<path class="st1" d="M617.1,243.3c0,2.2-1.8,4-4,4s-4-1.8-4-4c0-2.2,1.8-4,4-4S617.1,241.1,617.1,243.3z"/>
		<path d="M717.1,427.9c0,2.2-1.8,4-4,4c-2.2,0-4-1.8-4-4c0-2.2,1.8-4,4-4C715.3,423.9,717.1,425.7,717.1,427.9z"/>
		<path class="st1" d="M717.1,427.9c0,2.2-1.8,4-4,4c-2.2,0-4-1.8-4-4c0-2.2,1.8-4,4-4C715.3,423.9,717.1,425.7,717.1,427.9z"/>
		<path d="M517.1,45.6c0,2.2-1.8,4-4,4c-2.2,0-4-1.8-4-4s1.8-4,4-4C515.3,41.6,517.1,43.3,517.1,45.6z"/>
		<path class="st1" d="M517.1,45.6c0,2.2-1.8,4-4,4c-2.2,0-4-1.8-4-4s1.8-4,4-4C515.3,41.6,517.1,43.3,517.1,45.6z"/>
		<path d="M717.1,375.2c0,2.2-1.8,4-4,4c-2.2,0-4-1.8-4-4c0-2.2,1.8-4,4-4C715.3,371.2,717.1,373,717.1,375.2z"/>
		<path class="st1" d="M717.1,375.2c0,2.2-1.8,4-4,4c-2.2,0-4-1.8-4-4c0-2.2,1.8-4,4-4C715.3,371.2,717.1,373,717.1,375.2z"/>
		<path d="M17,143.2c0,2.2-1.8,4-4,4s-4-1.8-4-4c0-2.2,1.8-4,4-4S17,141,17,143.2z"/>
		<path class="st1" d="M17,143.2c0,2.2-1.8,4-4,4s-4-1.8-4-4c0-2.2,1.8-4,4-4S17,141,17,143.2z"/>
		<path d="M517.1,520.2c0,2.2-1.8,4-4,4c-2.2,0-4-1.8-4-4c0-2.2,1.8-4,4-4C515.3,516.2,517.1,518,517.1,520.2z"/>
		<path class="st1" d="M517.1,520.2c0,2.2-1.8,4-4,4c-2.2,0-4-1.8-4-4c0-2.2,1.8-4,4-4C515.3,516.2,517.1,518,517.1,520.2z"/>
		<path d="M617.1,401.5c0,2.2-1.8,4-4,4s-4-1.8-4-4c0-2.2,1.8-4,4-4S617.1,399.3,617.1,401.5z"/>
		<path class="st1" d="M617.1,401.5c0,2.2-1.8,4-4,4s-4-1.8-4-4c0-2.2,1.8-4,4-4S617.1,399.3,617.1,401.5z"/>
		<path d="M717.1,217c0,2.2-1.8,4-4,4c-2.2,0-4-1.8-4-4c0-2.2,1.8-4,4-4C715.3,213,717.1,214.7,717.1,217z"/>
		<path class="st1" d="M717.1,217c0,2.2-1.8,4-4,4c-2.2,0-4-1.8-4-4c0-2.2,1.8-4,4-4C715.3,213,717.1,214.7,717.1,217z"/>
		<path d="M617.1,559.7c0,2.2-1.8,4-4,4s-4-1.8-4-4c0-2.2,1.8-4,4-4S617.1,557.5,617.1,559.7z"/>
		<path class="st1" d="M617.1,559.7c0,2.2-1.8,4-4,4s-4-1.8-4-4c0-2.2,1.8-4,4-4S617.1,557.5,617.1,559.7z"/>
		<path d="M117,240.8c0,2.2-1.8,4-4,4c-2.2,0-4-1.8-4-4c0-2.2,1.8-4,4-4C115.2,236.8,117,238.6,117,240.8z"/>
		<path class="st1" d="M117,240.8c0,2.2-1.8,4-4,4c-2.2,0-4-1.8-4-4c0-2.2,1.8-4,4-4C115.2,236.8,117,238.6,117,240.8z"/>
		<path d="M717.1,586.1c0,2.2-1.8,4-4,4c-2.2,0-4-1.8-4-4c0-2.2,1.8-4,4-4C715.3,582.1,717.1,583.9,717.1,586.1z"/>
		<path class="st1" d="M717.1,586.1c0,2.2-1.8,4-4,4c-2.2,0-4-1.8-4-4c0-2.2,1.8-4,4-4C715.3,582.1,717.1,583.9,717.1,586.1z"/>
		<path d="M217,317.5c0,2.2-1.8,4-4,4c-2.2,0-4-1.8-4-4c0-2.2,1.8-4,4-4C215.2,313.5,217,315.3,217,317.5z"/>
		<path class="st1" d="M217,317.5c0,2.2-1.8,4-4,4c-2.2,0-4-1.8-4-4c0-2.2,1.8-4,4-4C215.2,313.5,217,315.3,217,317.5z"/>
		<path d="M717.1,322.4c0,2.2-1.8,4-4,4c-2.2,0-4-1.8-4-4c0-2.2,1.8-4,4-4C715.3,318.4,717.1,320.2,717.1,322.4z"/>
		<path class="st1" d="M717.1,322.4c0,2.2-1.8,4-4,4c-2.2,0-4-1.8-4-4c0-2.2,1.8-4,4-4C715.3,318.4,717.1,320.2,717.1,322.4z"/>
		<path d="M617.1,85.1c0,2.2-1.8,4-4,4s-4-1.8-4-4s1.8-4,4-4S617.1,82.9,617.1,85.1z"/>
		<path class="st1" d="M617.1,85.1c0,2.2-1.8,4-4,4s-4-1.8-4-4s1.8-4,4-4S617.1,82.9,617.1,85.1z"/>
		<path d="M417,460.9c0,2.2-1.8,4-4,4c-2.2,0-4-1.8-4-4c0-2.2,1.8-4,4-4C415.2,456.9,417,458.7,417,460.9z"/>
		<path class="st1" d="M417,460.9c0,2.2-1.8,4-4,4c-2.2,0-4-1.8-4-4c0-2.2,1.8-4,4-4C415.2,456.9,417,458.7,417,460.9z"/>
		<path d="M717.1,480.6c0,2.2-1.8,4-4,4c-2.2,0-4-1.8-4-4c0-2.2,1.8-4,4-4C715.3,476.6,717.1,478.4,717.1,480.6z"/>
		<path class="st1" d="M717.1,480.6c0,2.2-1.8,4-4,4c-2.2,0-4-1.8-4-4c0-2.2,1.8-4,4-4C715.3,476.6,717.1,478.4,717.1,480.6z"/>
		<path d="M717.1,164.2c0,2.2-1.8,4-4,4c-2.2,0-4-1.8-4-4c0-2.2,1.8-4,4-4C715.3,160.2,717.1,162,717.1,164.2z"/>
		<path class="st1" d="M717.1,164.2c0,2.2-1.8,4-4,4c-2.2,0-4-1.8-4-4c0-2.2,1.8-4,4-4C715.3,160.2,717.1,162,717.1,164.2z"/>
		<path d="M717.1,533.4c0,2.2-1.8,4-4,4c-2.2,0-4-1.8-4-4s1.8-4,4-4C715.3,529.4,717.1,531.2,717.1,533.4z"/>
		<path class="st1" d="M717.1,533.4c0,2.2-1.8,4-4,4c-2.2,0-4-1.8-4-4s1.8-4,4-4C715.3,529.4,717.1,531.2,717.1,533.4z"/>
		<path d="M717.1,6c0,2.2-1.8,4-4,4c-2.2,0-4-1.8-4-4s1.8-4,4-4C715.3,2,717.1,3.8,717.1,6z"/>
		<path class="st1" d="M717.1,6c0,2.2-1.8,4-4,4c-2.2,0-4-1.8-4-4s1.8-4,4-4C715.3,2,717.1,3.8,717.1,6z"/>
		<path d="M717.1,269.7c0,2.2-1.8,4-4,4c-2.2,0-4-1.8-4-4c0-2.2,1.8-4,4-4C715.3,265.7,717.1,267.5,717.1,269.7z"/>
		<path class="st1" d="M717.1,269.7c0,2.2-1.8,4-4,4c-2.2,0-4-1.8-4-4c0-2.2,1.8-4,4-4C715.3,265.7,717.1,267.5,717.1,269.7z"/>
		<path d="M717.1,58.7c0,2.2-1.8,4-4,4c-2.2,0-4-1.8-4-4c0-2.2,1.8-4,4-4C715.3,54.7,717.1,56.5,717.1,58.7z"/>
		<path class="st1" d="M717.1,58.7c0,2.2-1.8,4-4,4c-2.2,0-4-1.8-4-4c0-2.2,1.8-4,4-4C715.3,54.7,717.1,56.5,717.1,58.7z"/>
		<path d="M717.1,111.5c0,2.2-1.8,4-4,4c-2.2,0-4-1.8-4-4c0-2.2,1.8-4,4-4C715.3,107.5,717.1,109.3,717.1,111.5z"/>
		<path class="st1" d="M717.1,111.5c0,2.2-1.8,4-4,4c-2.2,0-4-1.8-4-4c0-2.2,1.8-4,4-4C715.3,107.5,717.1,109.3,717.1,111.5z"/>
	</g>
	<g transform="matrix(1,0,0,1,718.07,310.9256)">
		<text transform="matrix(1 0 0 1 0 17)" class="st2 st3">dana</text>
	</g>
	<g transform="matrix(1,0,0,1,718.07,416.4008)">
		<text transform="matrix(1 0 0 1 0 17)" class="st2 st3">dyak</text>
	</g>
	<g transform="matrix(1,0,0,1,718.07,152.7128)">
		<text transform="matrix(1 0 0 1 0 17)" class="st2 st3">dwil</text>
	</g>
	<g transform="matrix(1,0,0,1,718.07,469.1384)">
		<text transform="matrix(1 0 0 1 0 17)" class="st2 st3">dmel</text>
	</g>
	<g transform="matrix(1,0,0,1,718.07,521.876)">
		<text transform="matrix(1 0 0 1 0 17)" class="st2 st3">dsec</text>
	</g>
	<g transform="matrix(1,0,0,1,718.07,-5.5)">
		<text transform="matrix(1 0 0 1 0 17)" class="st2 st3">dgri</text>
	</g>
	<g transform="matrix(1,0,0,1,718.07,258.188)">
		<text transform="matrix(1 0 0 1 0 17)" class="st2 st3">dpse</text>
	</g>
	<g transform="matrix(1,0,0,1,718.07,363.6632)">
		<text transform="matrix(1 0 0 1 0 17)" class="st2 st3">dere</text>
	</g>
	<g transform="matrix(1,0,0,1,718.07,47.2376)">
		<text transform="matrix(1 0 0 1 0 17)" class="st2 st3">dvir</text>
	</g>
	<g transform="matrix(1,0,0,1,718.07,205.4504)">
		<text transform="matrix(1 0 0 1 0 17)" class="st2 st3">dper</text>
	</g>
	<g transform="matrix(1,0,0,1,718.07,574.6136)">
		<text transform="matrix(1 0 0 1 0 17)" class="st2 st3">dsim</text>
	</g>
	<g transform="matrix(1,0,0,1,718.07,99.9752)">
		<text transform="matrix(1 0 0 1 0 17)" class="st2 st3">dmoj</text>
	</g>
	<g transform="matrix(1,0,0,1,618.0601,230.3192)">
		<text transform="matrix(1 0 0 1 0 20)" class="st4 st3">&lt;3&gt;</text>
	</g>
	<g transform="matrix(1,0,0,1,318.0304,378.6437)">
		<text transform="matrix(1 0 0 1 0 20)" class="st4 st3">&lt;8&gt;</text>
	</g>
	<g transform="matrix(1,0,0,1,618.0601,72.1064)">
		<text transform="matrix(1 0 0 1 0 20)" class="st4 st3">&lt;1&gt;</text>
	</g>
	<g transform="matrix(1,0,0,1,418.0403,447.8618)">
		<text transform="matrix(1 0 0 1 0 20)" class="st4 st3">&lt;7&gt;</text>
	</g>
	<g transform="matrix(1,0,0,1,518.0502,32.5532)">
		<text transform="matrix(1 0 0 1 0 20)" class="st4 st3">&lt;2&gt;</text>
	</g>
	<g transform="matrix(1,0,0,1,518.0502,507.1916)">
		<text transform="matrix(1 0 0 1 0 20)" class="st4 st3">&lt;6&gt;</text>
	</g>
	<g transform="matrix(1,0,0,1,618.0601,388.532)">
		<text transform="matrix(1 0 0 1 0 20)" class="st4 st3">&lt;4&gt;</text>
	</g>
	<g transform="matrix(1,0,0,1,618.0601,546.7448)">
		<text transform="matrix(1 0 0 1 0 20)" class="st4 st3">&lt;5&gt;</text>
	</g>
	<g transform="matrix(1,0,0,1,118.0106,227.8471)">
		<text transform="matrix(1 0 0 1 0 20)" class="st4 st3">&lt;10&gt;</text>
	</g>
	<g transform="matrix(1,0,0,1,218.0205,304.4815)">
		<text transform="matrix(1 0 0 1 0 20)" class="st4 st3">&lt;9&gt;</text>
	</g>
	<g transform="matrix(1,0,0,1,118.0106,227.8471)">
		<text transform="matrix(1 0 0 1 -97 -77.6465)" class="st4 st3">&lt;11&gt;</text>
	</g>
</g>
<path class="st5" d="M310.3,600.8h456.6c10.2,0,18.3-8.6,18.3-19.2v-265c0-10.6-8.1-19.2-18.3-19.2H310.3
	c-10.2,0-18.3,8.6-18.3,19.2v265C292,592.3,300.1,600.8,310.3,600.8z"/>
</svg>
