<?xml version="1.0" encoding="utf-8"?>
<!-- Generator: Adobe Illustrator 19.0.0, SVG Export Plug-In . SVG Version: 6.00 Build 0)  -->
<svg version="1.1" id="Layer_1" xmlns="http://www.w3.org/2000/svg" xmlns:xlink="http://www.w3.org/1999/xlink" x="0px" y="0px"
	 viewBox="0 -7 705 617" style="enable-background:new 0 -7 705 617;" xml:space="preserve">
<style type="text/css">
	.st0{fill:none;stroke:#000000;stroke-width:2;stroke-miterlimit:10;}
	.st1{fill:none;stroke:#000000;stroke-width:0.5;stroke-linecap:square;stroke-miterlimit:10;}
	.st2{font-family:'CourierNewPSMT';}
	.st3{font-size:20px;}
	.st4{font-family:'SourceCodePro-Regular';}
	.st5{opacity:0.2;fill:#E46C0A;enable-background:new    ;}
	.st6{opacity:0.2;fill:#604A7B;enable-background:new    ;}
	.st7{opacity:0.2;fill:#318592;enable-background:new    ;}
</style>
<g>
	<g>
		<path class="st0" d="M587.1,238.1h-82.2v-29"/>
		<path class="st0" d="M504.9,93h-82.2V49.5"/>
		<path class="st0" d="M587.1,122h-82.2V93"/>
		<path class="st0" d="M422.7,542.6h-82.2v-65.3"/>
		<path class="st0" d="M587.1,586.2H422.7v-43.5"/>
		<path class="st0" d="M258.3,415.7h-82.2v-59.8"/>
		<path class="st0" d="M176.1,355.9H93.9v-73.4"/>
		<path class="st0" d="M587.1,6H422.7v43.5"/>
		<path class="st0" d="M587.1,296.1H176.1v59.8"/>
		<path class="st0" d="M587.1,354.1H258.3v61.6"/>
		<path class="st0" d="M587.1,412.1H340.5v65.3"/>
		<path class="st0" d="M504.9,499.1h-82.2v43.5"/>
		<path class="st0" d="M504.9,209.1H93.9v73.4"/>
		<path class="st0" d="M587.1,180h-82.2v29"/>
		<path class="st0" d="M340.5,477.4h-82.2v-61.6"/>
		<path class="st0" d="M587.1,64h-82.2v29"/>
		<path class="st0" d="M422.7,49.5H11.8V166"/>
		<path class="st0" d="M93.9,282.5H11.8V166"/>
		<path class="st0" d="M587.1,528.1h-82.2v-29"/>
		<path class="st0" d="M587.1,470.1h-82.2v29"/>
		<path class="st0" d="M6,166h5.8"/>
		<path d="M591.1,122c0,2.2-1.8,4-4,4c-2.2,0-4-1.8-4-4s1.8-4,4-4C589.3,118,591.1,119.8,591.1,122z"/>
		<path class="st1" d="M591.1,122c0,2.2-1.8,4-4,4c-2.2,0-4-1.8-4-4s1.8-4,4-4C589.3,118,591.1,119.8,591.1,122z"/>
		<path d="M591.1,238.1c0,2.2-1.8,4-4,4c-2.2,0-4-1.8-4-4c0-2.2,1.8-4,4-4C589.3,234.1,591.1,235.9,591.1,238.1z"/>
		<path class="st1" d="M591.1,238.1c0,2.2-1.8,4-4,4c-2.2,0-4-1.8-4-4c0-2.2,1.8-4,4-4C589.3,234.1,591.1,235.9,591.1,238.1z"/>
		<path d="M508.9,93c0,2.2-1.8,4-4,4c-2.2,0-4-1.8-4-4s1.8-4,4-4C507.1,89,508.9,90.8,508.9,93z"/>
		<path class="st1" d="M508.9,93c0,2.2-1.8,4-4,4c-2.2,0-4-1.8-4-4s1.8-4,4-4C507.1,89,508.9,90.8,508.9,93z"/>
		<path d="M591.1,586.2c0,2.2-1.8,4-4,4c-2.2,0-4-1.8-4-4c0-2.2,1.8-4,4-4C589.3,582.2,591.1,583.9,591.1,586.2z"/>
		<path class="st1" d="M591.1,586.2c0,2.2-1.8,4-4,4c-2.2,0-4-1.8-4-4c0-2.2,1.8-4,4-4C589.3,582.2,591.1,583.9,591.1,586.2z"/>
		<path d="M426.7,542.6c0,2.2-1.8,4-4,4c-2.2,0-4-1.8-4-4c0-2.2,1.8-4,4-4C424.9,538.6,426.7,540.4,426.7,542.6z"/>
		<path class="st1" d="M426.7,542.6c0,2.2-1.8,4-4,4c-2.2,0-4-1.8-4-4c0-2.2,1.8-4,4-4C424.9,538.6,426.7,540.4,426.7,542.6z"/>
		<path d="M262.3,415.7c0,2.2-1.8,4-4,4c-2.2,0-4-1.8-4-4c0-2.2,1.8-4,4-4C260.5,411.7,262.3,413.5,262.3,415.7z"/>
		<path class="st1" d="M262.3,415.7c0,2.2-1.8,4-4,4c-2.2,0-4-1.8-4-4c0-2.2,1.8-4,4-4C260.5,411.7,262.3,413.5,262.3,415.7z"/>
		<path d="M591.1,6c0,2.2-1.8,4-4,4c-2.2,0-4-1.8-4-4s1.8-4,4-4C589.3,2,591.1,3.8,591.1,6z"/>
		<path class="st1" d="M591.1,6c0,2.2-1.8,4-4,4c-2.2,0-4-1.8-4-4s1.8-4,4-4C589.3,2,591.1,3.8,591.1,6z"/>
		<path d="M180.1,355.9c0,2.2-1.8,4-4,4c-2.2,0-4-1.8-4-4c0-2.2,1.8-4,4-4C178.3,351.9,180.1,353.7,180.1,355.9z"/>
		<path class="st1" d="M180.1,355.9c0,2.2-1.8,4-4,4c-2.2,0-4-1.8-4-4c0-2.2,1.8-4,4-4C178.3,351.9,180.1,353.7,180.1,355.9z"/>
		<path d="M591.1,296.1c0,2.2-1.8,4-4,4c-2.2,0-4-1.8-4-4c0-2.2,1.8-4,4-4C589.3,292.1,591.1,293.9,591.1,296.1z"/>
		<path class="st1" d="M591.1,296.1c0,2.2-1.8,4-4,4c-2.2,0-4-1.8-4-4c0-2.2,1.8-4,4-4C589.3,292.1,591.1,293.9,591.1,296.1z"/>
		<path d="M591.1,354.1c0,2.2-1.8,4-4,4c-2.2,0-4-1.8-4-4s1.8-4,4-4C589.3,350.1,591.1,351.9,591.1,354.1z"/>
		<path class="st1" d="M591.1,354.1c0,2.2-1.8,4-4,4c-2.2,0-4-1.8-4-4s1.8-4,4-4C589.3,350.1,591.1,351.9,591.1,354.1z"/>
		<path d="M591.1,412.1c0,2.2-1.8,4-4,4c-2.2,0-4-1.8-4-4c0-2.2,1.8-4,4-4C589.3,408.1,591.1,409.9,591.1,412.1z"/>
		<path class="st1" d="M591.1,412.1c0,2.2-1.8,4-4,4c-2.2,0-4-1.8-4-4c0-2.2,1.8-4,4-4C589.3,408.1,591.1,409.9,591.1,412.1z"/>
		<path d="M508.9,499.1c0,2.2-1.8,4-4,4c-2.2,0-4-1.8-4-4s1.8-4,4-4C507.1,495.1,508.9,496.9,508.9,499.1z"/>
		<path class="st1" d="M508.9,499.1c0,2.2-1.8,4-4,4c-2.2,0-4-1.8-4-4s1.8-4,4-4C507.1,495.1,508.9,496.9,508.9,499.1z"/>
		<path d="M591.1,180c0,2.2-1.8,4-4,4c-2.2,0-4-1.8-4-4c0-2.2,1.8-4,4-4C589.3,176,591.1,177.8,591.1,180z"/>
		<path class="st1" d="M591.1,180c0,2.2-1.8,4-4,4c-2.2,0-4-1.8-4-4c0-2.2,1.8-4,4-4C589.3,176,591.1,177.8,591.1,180z"/>
		<path d="M508.9,209.1c0,2.2-1.8,4-4,4c-2.2,0-4-1.8-4-4c0-2.2,1.8-4,4-4C507.1,205.1,508.9,206.8,508.9,209.1z"/>
		<path class="st1" d="M508.9,209.1c0,2.2-1.8,4-4,4c-2.2,0-4-1.8-4-4c0-2.2,1.8-4,4-4C507.1,205.1,508.9,206.8,508.9,209.1z"/>
		<path d="M591.1,64c0,2.2-1.8,4-4,4c-2.2,0-4-1.8-4-4s1.8-4,4-4C589.3,60,591.1,61.8,591.1,64z"/>
		<path class="st1" d="M591.1,64c0,2.2-1.8,4-4,4c-2.2,0-4-1.8-4-4s1.8-4,4-4C589.3,60,591.1,61.8,591.1,64z"/>
		<path d="M344.5,477.4c0,2.2-1.8,4-4,4c-2.2,0-4-1.8-4-4c0-2.2,1.8-4,4-4C342.7,473.4,344.5,475.2,344.5,477.4z"/>
		<path class="st1" d="M344.5,477.4c0,2.2-1.8,4-4,4c-2.2,0-4-1.8-4-4c0-2.2,1.8-4,4-4C342.7,473.4,344.5,475.2,344.5,477.4z"/>
		<path d="M426.7,49.5c0,2.2-1.8,4-4,4c-2.2,0-4-1.8-4-4c0-2.2,1.8-4,4-4C424.9,45.5,426.7,47.3,426.7,49.5z"/>
		<path class="st1" d="M426.7,49.5c0,2.2-1.8,4-4,4c-2.2,0-4-1.8-4-4c0-2.2,1.8-4,4-4C424.9,45.5,426.7,47.3,426.7,49.5z"/>
		<path d="M97.9,282.5c0,2.2-1.8,4-4,4c-2.2,0-4-1.8-4-4c0-2.2,1.8-4,4-4C96.2,278.5,97.9,280.3,97.9,282.5z"/>
		<path class="st1" d="M97.9,282.5c0,2.2-1.8,4-4,4c-2.2,0-4-1.8-4-4c0-2.2,1.8-4,4-4C96.2,278.5,97.9,280.3,97.9,282.5z"/>
		<path d="M591.1,528.1c0,2.2-1.8,4-4,4c-2.2,0-4-1.8-4-4c0-2.2,1.8-4,4-4C589.3,524.1,591.1,525.9,591.1,528.1z"/>
		<path class="st1" d="M591.1,528.1c0,2.2-1.8,4-4,4c-2.2,0-4-1.8-4-4c0-2.2,1.8-4,4-4C589.3,524.1,591.1,525.9,591.1,528.1z"/>
		<path d="M591.1,470.1c0,2.2-1.8,4-4,4c-2.2,0-4-1.8-4-4s1.8-4,4-4C589.3,466.1,591.1,467.9,591.1,470.1z"/>
		<path class="st1" d="M591.1,470.1c0,2.2-1.8,4-4,4c-2.2,0-4-1.8-4-4s1.8-4,4-4C589.3,466.1,591.1,467.9,591.1,470.1z"/>
		<path d="M15.8,166c0,2.2-1.8,4-4,4c-2.2,0-4-1.8-4-4c0-2.2,1.8-4,4-4C14,162,15.8,163.8,15.8,166z"/>
		<path class="st1" d="M15.8,166c0,2.2-1.8,4-4,4c-2.2,0-4-1.8-4-4c0-2.2,1.8-4,4-4C14,162,15.8,163.8,15.8,166z"/>
	</g>
	<g transform="matrix(1,0,0,1,592.07,110.53)">
		<text transform="matrix(1 0 0 1 0 17)" class="st2 st3">SBIC</text>
	</g>
	<g transform="matrix(1,0,0,1,592.07,226.56)">
		<text transform="matrix(1 0 0 1 0 17)" class="st2 st3">LPER</text>
	</g>
	<g transform="matrix(1,0,0,1,592.07,168.545)">
		<text transform="matrix(1 0 0 1 0 17)" class="st2 st3">OSAT</text>
	</g>
	<g transform="matrix(1,0,0,1,592.07,52.515)">
		<text transform="matrix(1 0 0 1 0 17)" class="st2 st3">ZMAY</text>
	</g>
	<g transform="matrix(1,0,0,1,592.07,574.65)">
		<text transform="matrix(1 0 0 1 0 17)" class="st2 st3">ATAU</text>
	</g>
	<g transform="matrix(1,0,0,1,592.07,-5.5)">
		<text transform="matrix(1 0 0 1 0 17)" class="st2 st3">SITA</text>
	</g>
	<g transform="matrix(1,0,0,1,592.07,284.575)">
		<text transform="matrix(1 0 0 1 0 17)" class="st2 st3">BDIS</text>
	</g>
	<g transform="matrix(1,0,0,1,592.07,516.635)">
		<text transform="matrix(1 0 0 1 0 17)" class="st2 st3">TAES+</text>
	</g>
	<g transform="matrix(1,0,0,1,592.07,342.59)">
		<text transform="matrix(1 0 0 1 0 17)" class="st2 st3">HVUL</text>
	</g>
	<g transform="matrix(1,0,0,1,592.07,458.62)">
		<text transform="matrix(1 0 0 1 0 17)" class="st2 st3">TURA</text>
	</g>
	<g transform="matrix(1,0,0,1,592.07,400.605)">
		<text transform="matrix(1 0 0 1 0 17)" class="st2 st3">TAES*</text>
	</g>
	<g transform="matrix(1,0,0,1,509.8819,80.0225)">
		<text transform="matrix(1 0 0 1 0 20)" class="st4 st3">&lt;8&gt;</text>
	</g>
	<g transform="matrix(1,0,0,1,509.8819,486.1275)">
		<text transform="matrix(1 0 0 1 0 20)" class="st4 st3">&lt;1&gt;</text>
	</g>
	<g transform="matrix(1,0,0,1,509.8819,196.0525)">
		<text transform="matrix(1 0 0 1 0 20)" class="st4 st3">&lt;6&gt;</text>
	</g>
	<g transform="matrix(1,0,0,1,427.6938,529.6388)">
		<text transform="matrix(1 0 0 1 0 20)" class="st4 st3">&lt;2&gt;</text>
	</g>
	<g transform="matrix(1,0,0,1,345.5056,464.3719)">
		<text transform="matrix(1 0 0 1 0 20)" class="st4 st3">&lt;3&gt;</text>
	</g>
	<g transform="matrix(1,0,0,1,427.6938,36.5113)">
		<text transform="matrix(1 0 0 1 0 20)" class="st4 st3">&lt;9&gt;</text>
	</g>
	<g transform="matrix(1,0,0,1,263.3175,402.7309)">
		<text transform="matrix(1 0 0 1 0 20)" class="st4 st3">&lt;4&gt;</text>
	</g>
	<g transform="matrix(1,0,0,1,181.1294,342.903)">
		<text transform="matrix(1 0 0 1 0 20)" class="st4 st3">&lt;5&gt;</text>
	</g>
	<g transform="matrix(1,0,0,1,98.9413,269.4777)">
		<text transform="matrix(1 0 0 1 0 20)" class="st4 st3">&lt;7&gt;</text>
	</g>
</g>
<path class="st5" d="M547.4,542.5h146.7c3.3,0,5.9-0.9,5.9-1.8v-25.2c0-1.1-2.7-1.8-5.9-1.8H547.4c-3.3,0-5.9,0.9-5.9,1.8v25.2
	C541.6,541.6,544.2,542.5,547.4,542.5z"/>
<path class="st6" d="M547.4,484.5h146.7c3.3,0,5.9-0.9,5.9-1.8v-25.2c0-1.1-2.7-1.8-5.9-1.8H547.4c-3.3,0-5.9,0.9-5.9,1.8v25.2
	C541.6,483.8,544.2,484.5,547.4,484.5z"/>
<path class="st7" d="M547.4,600.6h146.7c3.3,0,5.9-0.9,5.9-1.8v-25.2c0-1.1-2.7-1.8-5.9-1.8H547.4c-3.3,0-5.9,0.9-5.9,1.8v25.2
	C541.6,599.9,544.2,600.6,547.4,600.6z"/>
<text transform="matrix(1 0 0 1 662.2555 533.1182)" class="st2 st3">(A)</text>
<path class="st5" d="M547.4,426.1h146.7c3.3,0,5.9-0.9,5.9-1.8v-25.2c0-1.1-2.7-1.8-5.9-1.8H547.4c-3.3,0-5.9,0.9-5.9,1.8v25.2
	C541.6,425.2,544.2,426.1,547.4,426.1z"/>
<text transform="matrix(1 0 0 1 663.4555 418.239)" class="st2 st3">(B)</text>
</svg>
