<?xml version="1.0" encoding="utf-8"?>
<!-- Generator: Adobe Illustrator 19.0.0, SVG Export Plug-In . SVG Version: 6.00 Build 0)  -->
<svg version="1.1" id="Layer_1" xmlns="http://www.w3.org/2000/svg" xmlns:xlink="http://www.w3.org/1999/xlink" x="0px" y="0px"
	 viewBox="0 0 960 560" style="enable-background:new 0 0 960 560;" xml:space="preserve">
<style type="text/css">
	.st0{fill:none;stroke:#333333;stroke-width:0.5;stroke-miterlimit:10;}
</style>
<g>
	<g>
		<path class="st0" d="M403.8,449.6l4.5-15.6c6.6,1.9,13.4,3.5,20.2,4.8"/>
		<path class="st0" d="M280,475.6l29.9-38.4c6.9,5.4,14.1,10.4,21.5,15"/>
		<path class="st0" d="M299.2,146.6l14.3,7.7c-10.1,18.7-16.6,39-19.3,60.1"/>
		<path class="st0" d="M752.6,334.9L722,324.4c-1.8,5.3-3.8,10.5-5.9,15.7"/>
		<path class="st0" d="M705.2,422.6l-12.8-10c-2.4,3.1-4.9,6.2-7.5,9.2"/>
		<path class="st0" d="M457.7,312.2l1.8-16.1c16.5,1.8,33-3.3,45.6-14.1"/>
		<path class="st0" d="M505.1-31.3l-2.3,16c-6.1-0.9-12.2-1.5-18.3-2"/>
		<path class="st0" d="M208.4,362.5l14.6-7.1c2.5,5,5.1,10,7.8,14.8"/>
		<path class="st0" d="M515.9,535.4l-2.7-16c3.9-0.7,7.8-1.4,11.6-2.2"/>
		<path class="st0" d="M651.4,17.6L640.9,30c-4.3-3.6-8.6-7.1-13.1-10.4"/>
		<path class="st0" d="M342.7,14l7.9,14.2c-9,5-17.6,10.5-25.9,16.6"/>
		<path class="st0" d="M768,211.5l-16.1,1.3c-0.3-3.9-0.7-7.9-1.2-11.8"/>
		<path class="st0" d="M587.8-41l-6.5,14.8c-3.6-1.6-7.3-3.1-11-4.5"/>
		<path class="st0" d="M199.6,92.3l14.3,7.7c-1.9,3.5-3.7,7-5.4,10.5"/>
		<path class="st0" d="M227,50.4l63.9,49.8c6.2-8,13-15.6,20.3-22.6"/>
		<path class="st0" d="M561.9,418.6l-7.5-14.3c6.1-3.2,12-6.8,17.8-10.6"/>
		<path class="st0" d="M181.5,272l16.1-2c-0.9-7.4-1.5-14.8-1.8-22.3"/>
		<path class="st0" d="M367.7-50.1l5.3,15.3c-3.7,1.3-7.4,2.6-11.1,4.1"/>
		<path class="st0" d="M464.8-1.7l0.1,16.2c14-0.1,27.9,1.2,41.6,3.7"/>
		<path class="st0" d="M416.2,535.4l13.3-79.9c-8.7-1.4-17.3-3.4-25.7-5.9"/>
		<path class="st0" d="M631.8,490.2l-53.2-81.4c-5.4,3.5-11,6.8-16.7,9.8"/>
		<path class="st0" d="M324.7,44.8l9.6,13c-8.2,6-15.9,12.6-23.2,19.7"/>
		<path class="st0" d="M179.5,334.9l61.3-21c-2.4-7-4.5-14.1-6.2-21.3"/>
		<path class="st0" d="M294.1,214.3l16.1,2.1c-2.9,22.8-0.8,46,6.2,67.9"/>
		<path class="st0" d="M505.3,487.8l-2.5-16c10.1-1.6,20.2-3.8,30-6.7"/>
		<path class="st0" d="M280.7,17.6L291.2,30c-4.3,3.6-8.4,7.4-12.5,11.2"/>
		<path class="st0" d="M477.9,523l-1.3-32.4c9.6-0.4,19.2-1.3,28.8-2.8"/>
		<path class="st0" d="M690.9,158l-15.3,5.3c-2.5-7-5.3-14-8.4-20.7"/>
		<path class="st0" d="M716.1,340l-134.7-55.8c-3.3,8-7.4,15.5-12.3,22.7"/>
		<path class="st0" d="M764.9,286.4l-16-2.7c-0.7,3.9-1.4,7.8-2.2,11.6"/>
		<path class="st0" d="M570.3-30.7l-23.6,60.4c-13-5.1-26.5-8.9-40.2-11.5"/>
		<path class="st0" d="M752.6,138.1l-46,15.8c2,5.8,3.8,11.7,5.3,17.6"/>
		<path class="st0" d="M712.4,89.7l-55.7,33.2c3.8,6.4,7.3,13,10.5,19.8"/>
		<path class="st0" d="M466.1,236.5l-11.9-24.8"/>
		<path class="st0" d="M587.8,514l-26-59.4c-9.4,4.1-19,7.6-28.9,10.5"/>
		<path class="st0" d="M321.8,503l7.7-14.3c-3.5-1.9-6.9-3.8-10.3-5.9"/>
		<path class="st0" d="M344.3,514l6.5-14.8c3.6,1.6,7.3,3.1,11,4.5"/>
		<path class="st0" d="M719.7,70.8l-13.6,8.9c2.2,3.3,4.3,6.7,6.3,10.1"/>
		<path class="st0" d="M501.4,406.2l-3.3-15.9c17-3.5,33.4-9.9,48.3-18.8"/>
		<path class="st0" d="M179.5,224.6l16.2,0.7c-0.3,7.5-0.3,14.9,0,22.4"/>
		<path class="st0" d="M391.7-57.2l27.8,110c7.9-2,15.9-3.5,23.9-4.4"/>
		<path class="st0" d="M723.7,362.5l-14.6-7.1c2.5-5,4.8-10.1,6.9-15.3"/>
		<path class="st0" d="M311.1,77.5l11.3,11.6c-5.4,5.3-10.5,10.8-15.3,16.6"/>
		<path class="st0" d="M524.9-44.2l-3.3,15.9c-5.5-1.1-11-2.1-16.5-2.9"/>
		<path class="st0" d="M307.2,105.7l12.5,10.3c-7.8,9.5-14.7,19.7-20.5,30.6"/>
		<path class="st0" d="M450.4,343.9l2.3-16c-45.8-6.7-79.6-46.3-79-92.6"/>
		<path class="st0" d="M172.3,310.9l47.1-11.9c-2.2-8.5-3.9-17.1-5.1-25.8"/>
		<path class="st0" d="M416.2-62.4l16,95.9c11.8-2,23.8-2.9,35.7-2.8"/>
		<path class="st0" d="M163.1,236.5h16.2c0-4,0.1-7.9,0.2-11.9"/>
		<path class="st0" d="M524.9,517.2l-3.3-15.9c5.5-1.1,10.9-2.5,16.3-3.9"/>
		<path class="st0" d="M230.8,370.2l14.1-8c3,5.3,6.3,10.6,9.7,15.7"/>
		<path class="st0" d="M466.1,539.5v-16.2c4,0,7.9-0.1,11.9-0.2"/>
		<path class="st0" d="M732,186.5l-15.9,3c-1.1-6-2.5-12-4.1-17.9"/>
		<path class="st0" d="M641.6,129.1l-13.8,8.5c-3.2-5.3-6.7-10.4-10.4-15.3"/>
		<path class="st0" d="M254.5,377.8l13.5-9c3.4,5.1,7,10.1,10.8,14.9"/>
		<path class="st0" d="M319.3,482.9l8.3-13.9c6.4,3.8,13,7.4,19.7,10.6"/>
		<path class="st0" d="M372.6,455.6l6.4-14.9c8.1,3.5,16.4,6.4,24.8,8.9"/>
		<path class="st0" d="M732.5,92.3l-14.3,7.7c-1.9-3.5-3.8-6.9-5.9-10.3"/>
		<path class="st0" d="M199.6,380.7l14.3-7.7c-1.9-3.5-3.7-7-5.4-10.5"/>
		<path class="st0" d="M540.4,530.2l-4-15.7c-3.8,1-7.7,1.9-11.5,2.7"/>
		<path class="st0" d="M344.3-41l6.5,14.8c3.6-1.6,7.3-3.1,11-4.5"/>
		<path class="st0" d="M467.9,30.7l-0.1,16.2c-8.1-0.1-16.2,0.4-24.3,1.3"/>
		<path class="st0" d="M223,161.4l61.9,19.1c3.6-11.7,8.4-23.1,14.2-33.9"/>
		<path class="st0" d="M505.1,282l-10.6-12.3c-12.3,10.6-29.5,13.5-44.6,7.5c-15.1-6-25.7-19.8-27.4-36"/>
		<path class="st0" d="M712,171.5l-15.7,4.1c-1.6-6-3.4-11.8-5.4-17.6"/>
		<path class="st0" d="M347.2,479.6l7.1-14.6c-7.9-3.8-15.5-8.1-23-12.7"/>
		<path class="st0" d="M759.8,310.9l-15.7-4c1-3.8,1.9-7.7,2.7-11.5"/>
		<path class="st0" d="M227,422.6l38.4-29.9c-3.8-4.8-7.4-9.8-10.8-14.9"/>
		<path class="st0" d="M172.3,162.1l15.7,4c-1,3.8-1.9,7.7-2.7,11.5"/>
		<path class="st0" d="M466.1-66.5v48.6c6.1,0,12.3,0.2,18.4,0.7"/>
		<path class="st0" d="M732.5,380.7l-14.3-7.7c1.9-3.5,3.7-7,5.4-10.5"/>
		<path class="st0" d="M651.4,455.3l-62.8-74.2c-5.3,4.5-10.8,8.6-16.5,12.5"/>
		<path class="st0" d="M652.2-2.6l-10,12.8c3.1,2.4,6.2,4.9,9.2,7.5"/>
		<path class="st0" d="M769.1,236.5h-16.2c0,4-0.1,7.9-0.2,11.9"/>
		<path class="st0" d="M750.7,201l-16.1,2c-0.7-5.6-1.6-11.1-2.6-16.6"/>
		<path class="st0" d="M303.1,387.3l47.6-44c-15.6-16.9-27.4-37-34.4-58.9"/>
		<path class="st0" d="M764.9,186.6l-16,2.7c0.7,3.9,1.2,7.8,1.7,11.7"/>
		<path class="st0" d="M491.1-65.5l-2.7,32.3c5.6,0.5,11.1,1.1,16.7,1.9"/>
		<path class="st0" d="M373.7,235.3l16.2,0.2c-0.5,39.2,28.8,72.4,67.8,76.7"/>
		<path class="st0" d="M443.5,48.3l11.6,96.5c-46,5.5-80.7,44.2-81.3,90.5"/>
		<path class="st0" d="M689,31.3l-83.4,76.8c4.2,4.5,8.1,9.3,11.8,14.2"/>
		<path class="st0" d="M216.1,132.9l15,6.2c-3,7.3-5.7,14.7-8,22.2"/>
		<path class="st0" d="M631.8-17.2L614.1,10c4.7,3.1,9.3,6.3,13.8,9.6"/>
		<path class="st0" d="M331.4,452.3l8.6-13.7c10.4,6.5,21.4,12.2,32.7,17.1"/>
		<path class="st0" d="M671.3,459.4l-11-11.9c-2.9,2.7-5.9,5.3-8.9,7.8"/>
		<path class="st0" d="M260.8,459.4l54.9-59.6c-4.4-4-8.6-8.2-12.6-12.6"/>
		<path class="st0" d="M759.8,162.1l-31.4,8c1.4,5.4,2.6,10.9,3.6,16.4"/>
		<path class="st0" d="M179.5,138.1l30.7,10.5c1.8-5.3,3.8-10.5,5.9-15.7"/>
		<path class="st0" d="M689,441.7l-11.9-11c2.7-2.9,5.3-5.9,7.8-8.9"/>
		<path class="st0" d="M316.3,284.3l46.3-14.8c12.6,39.5,46.7,68.4,87.7,74.4"/>
		<path class="st0" d="M212.4,402.2l27.1-17.7c-3.1-4.7-6-9.5-8.7-14.3"/>
		<path class="st0" d="M610.3-30L486.9,198c-14.3-7.7-31.7-6.9-45.2,2.1c-13.5,9.1-20.9,24.8-19.1,41"/>
		<path class="st0" d="M321.8-30l15.4,28.5c4.9-2.7,9.9-5.2,15-7.5"/>
		<path class="st0" d="M705.2,50.4l-76.7,59.7c4.7,6.1,9.1,12.4,13.2,19"/>
		<path class="st0" d="M243.1,441.7l47.7-43.9c-4.2-4.5-8.2-9.2-12-14.1"/>
		<path class="st0" d="M719.7,402.2l-135.6-88.6c-5.9,9-12.7,17.2-20.5,24.7"/>
		<path class="st0" d="M569.1,306.9l-13.4-9.1c-23.4,34.2-64.3,52.2-105.3,46.2"/>
		<path class="st0" d="M188.6,358.2l14.8-6.5c1.6,3.6,3.2,7.2,5,10.8"/>
		<path class="st0" d="M572.1,393.6l-9.1-13.4c-18.7,12.6-39.6,21.4-61.7,26"/>
		<path class="st0" d="M667.2,142.6l-14.7,6.9c-3.3-7-6.9-13.8-10.9-20.4"/>
		<path class="st0" d="M540.4-57.2l-4,15.7c-3.8-1-7.7-1.9-11.5-2.7"/>
		<path class="st0" d="M212.4,70.8l81.4,53.2c4.1-6.3,8.6-12.4,13.4-18.2"/>
		<path class="st0" d="M278.9,383.8l12.7-10c3.7,4.7,7.5,9.2,11.5,13.5"/>
		<path class="st0" d="M532.8,465.1l-4.5-15.6c7.5-2.2,14.9-4.8,22.2-7.8"/>
		<path class="st0" d="M671.3,13.6l-11,11.9c-2.9-2.7-5.9-5.3-8.9-7.8"/>
		<path class="st0" d="M484.4-17.2l-1.2,16.2c-6.1-0.4-12.3-0.7-18.4-0.6"/>
		<path class="st0" d="M260.8,13.6l11,11.9c2.9-2.7,5.9-5.3,8.9-7.8"/>
		<path class="st0" d="M564.4,523.1l-10.5-30.7c-5.3,1.8-10.6,3.5-16,5"/>
		<path class="st0" d="M441-65.5l5.4,64.6c6.1-0.5,12.3-0.8,18.4-0.8"/>
		<path class="st0" d="M428.5,438.8l5.9-31.9c22.1,4.1,44.9,3.9,66.9-0.7"/>
		<path class="st0" d="M352.3-9l6.8,14.7c-5.6,2.6-11,5.4-16.4,8.3"/>
		<path class="st0" d="M300.3-17.2l26.6,40.7c5.1-3.4,10.4-6.5,15.8-9.5"/>
		<path class="st0" d="M185.4,177.6l31.7,6.7c1.6-7.7,3.6-15.4,5.9-22.9"/>
		<path class="st0" d="M563.6,338.3l-11.2-11.7c6.2-6,11.8-12.5,16.7-19.7"/>
		<path class="st0" d="M610.3,503l-38.6-71.3c-6.9,3.7-14,7.1-21.2,10.1"/>
		<path class="st0" d="M506.6,18.2l-3,15.9c-11.8-2.2-23.7-3.3-35.7-3.4"/>
		<path class="st0" d="M441,538.5l8-96.9c-6.9-0.6-13.7-1.5-20.5-2.7"/>
		<path class="st0" d="M491.1,538.5l-1.3-16.1c-3.9,0.3-7.9,0.6-11.8,0.7"/>
		<path class="st0" d="M361.8-30.7l5.9,15.1c-5.2,2-10.4,4.2-15.4,6.6"/>
		<path class="st0" d="M422.6,241.2l16.1-1.7c-1.2-11.6,5-22.7,15.5-27.8"/>
		<path class="st0" d="M243.1,31.3L267,53.2c3.8-4.1,7.7-8.1,11.7-12"/>
		<path class="st0" d="M361.8,503.7l5.9-15.1c-6.9-2.7-13.8-5.7-20.5-9"/>
		<path class="st0" d="M768,261.5l-16.1-1.3c0.3-3.9,0.6-7.9,0.7-11.8"/>
		<path class="st0" d="M550.5,441.8l-6.2-15c6-2.5,11.8-5.2,17.6-8.2"/>
		<path class="st0" d="M617.4,122.3l-12.9,9.8c-4.9-6.5-10.3-12.7-16.1-18.5"/>
		<path class="st0" d="M164.1,261.5l16.1-1.3c0.3,3.9,0.7,7.9,1.2,11.8"/>
		<path class="st0" d="M588.3,113.5L485.5,217c-8.3-8.2-20.8-10.3-31.3-5.3"/>
		<path class="st0" d="M367.7,523.1l5.3-15.3c-3.7-1.3-7.4-2.6-11.1-4.1"/>
		<path class="st0" d="M214.3,273.2l16-2.3c1.1,7.3,2.5,14.6,4.2,21.7"/>
		<path class="st0" d="M167.2,186.6l16,2.7c0.7-3.9,1.4-7.8,2.2-11.6"/>
		<path class="st0" d="M743.5,358.2l-14.8-6.5c-1.6,3.6-3.2,7.2-5,10.8"/>
		<path class="st0" d="M546.4,371.6l-8.3-13.9c9.2-5.5,17.8-12,25.5-19.4"/>
		<path class="st0" d="M188.6,114.8l14.8,6.5c1.6-3.6,3.2-7.2,5-10.8"/>
		<path class="st0" d="M537.9,497.4l-4.3-15.6c-9.3,2.6-18.7,4.6-28.3,6.1"/>
		<path class="st0" d="M652.2,475.6l-10-12.8c3.1-2.4,6.2-4.9,9.2-7.5"/>
		<path class="st0" d="M746.8,295.4l-206.2-43.2c-8,38.4-43.9,64.4-82.9,60.1"/>
		<path class="st0" d="M278.7,41.2l22.4,23.4c7.4-7.1,15.3-13.7,23.5-19.8"/>
		<path class="st0" d="M208.4,110.5l14.6,7.1c-2.5,5-4.8,10.1-6.9,15.3"/>
		<path class="st0" d="M684.9,421.9L586,338.1c-11.3,13.3-24.6,24.6-39.6,33.5"/>
		<path class="st0" d="M752.6,248.3L526,239c-0.7,16.6-8.2,32.2-20.8,43"/>
		<path class="st0" d="M195.7,247.7l16.2-0.7c0.4,8.8,1.2,17.5,2.4,26.2"/>
		<path class="st0" d="M564.4-50.1l-5.3,15.3c3.7,1.3,7.4,2.6,11.1,4.1"/>
		<path class="st0" d="M627.8,19.6l-58.1,77.9c6.6,4.9,12.8,10.3,18.6,16"/>
		<path class="st0" d="M743.5,114.8l-59.4,26c2.5,5.6,4.7,11.4,6.8,17.2"/>
		<path class="st0" d="M164.1,211.5l16.1,1.3c-0.3,3.9-0.6,7.9-0.7,11.8"/>
		<path class="st0" d="M515.9-62.4l-2.7,16c3.9,0.7,7.8,1.4,11.6,2.2"/>
		<path class="st0" d="M280-2.6l10,12.8c-3.1,2.4-6.2,4.9-9.2,7.5"/>
		<path class="st0" d="M167.2,286.4l16-2.7c-0.7-3.9-1.2-7.8-1.7-11.7"/>
		<path class="st0" d="M234.6,292.6l63-15.3c-5-20.6-6.2-42-3.5-63"/>
		<path class="st0" d="M300.3,490.2l8.9-13.6c3.3,2.2,6.7,4.3,10.1,6.3"/>
		<path class="st0" d="M391.7,530.2l15.9-62.8c-11.9-3-23.6-7-34.9-11.8"/>
	</g>
</g>
</svg>
